G04 #@! TF.GenerationSoftware,KiCad,Pcbnew,(5.0.0)*
G04 #@! TF.CreationDate,2019-01-26T11:16:20+03:00*
G04 #@! TF.ProjectId,stm32mc,73746D33326D632E6B696361645F7063,rev?*
G04 #@! TF.SameCoordinates,Original*
G04 #@! TF.FileFunction,Legend,Bot*
G04 #@! TF.FilePolarity,Positive*
%FSLAX46Y46*%
G04 Gerber Fmt 4.6, Leading zero omitted, Abs format (unit mm)*
G04 Created by KiCad (PCBNEW (5.0.0)) date 01/26/19 11:16:20*
%MOMM*%
%LPD*%
G01*
G04 APERTURE LIST*
%ADD10C,0.150000*%
%ADD11C,0.120000*%
G04 APERTURE END LIST*
D10*
X58531000Y-19050000D02*
G75*
G03X58531000Y-19050000I-1000000J0D01*
G01*
X32512000Y-40386000D02*
G75*
G03X32512000Y-40386000I-1000000J0D01*
G01*
X59055000Y-42291000D02*
X59055000Y-17526000D01*
X59024000Y-17507000D02*
X21082000Y-17526000D01*
X21082000Y-42291000D02*
X59055000Y-42291000D01*
X21082000Y-17526000D02*
X21082000Y-42291000D01*
D11*
G04 #@! TO.C,C4*
X41437779Y-28192000D02*
X41112221Y-28192000D01*
X41437779Y-29212000D02*
X41112221Y-29212000D01*
G04 #@! TO.C,R9*
X34796000Y-21173221D02*
X34796000Y-21498779D01*
X35816000Y-21173221D02*
X35816000Y-21498779D01*
G04 #@! TO.C,C3*
X41412279Y-30863000D02*
X41086721Y-30863000D01*
X41412279Y-29843000D02*
X41086721Y-29843000D01*
G04 #@! TO.C,R1*
X37594000Y-21524279D02*
X37594000Y-21198721D01*
X36574000Y-21524279D02*
X36574000Y-21198721D01*
G04 #@! TO.C,C2*
X42707779Y-34546000D02*
X42382221Y-34546000D01*
X42707779Y-33526000D02*
X42382221Y-33526000D01*
G04 #@! TO.C,R2*
X28991779Y-36197000D02*
X28666221Y-36197000D01*
X28991779Y-35177000D02*
X28666221Y-35177000D01*
G04 #@! TO.C,R3*
X56513000Y-22697221D02*
X56513000Y-23022779D01*
X57533000Y-22697221D02*
X57533000Y-23022779D01*
G04 #@! TO.C,R4*
X55628000Y-22697221D02*
X55628000Y-23022779D01*
X54608000Y-22697221D02*
X54608000Y-23022779D01*
G04 #@! TO.C,R5*
X46700221Y-28192000D02*
X47025779Y-28192000D01*
X46700221Y-29212000D02*
X47025779Y-29212000D01*
G04 #@! TO.C,R6*
X47242000Y-26253221D02*
X47242000Y-26578779D01*
X48262000Y-26253221D02*
X48262000Y-26578779D01*
G04 #@! TO.C,R7*
X52830000Y-22697221D02*
X52830000Y-23022779D01*
X53850000Y-22697221D02*
X53850000Y-23022779D01*
G04 #@! TO.C,U2*
X26793000Y-26031000D02*
X26793000Y-26451000D01*
X26793000Y-33151000D02*
X26793000Y-32731000D01*
X33913000Y-33151000D02*
X33913000Y-32731000D01*
X33913000Y-26031000D02*
X33493000Y-26031000D01*
X26793000Y-33151000D02*
X27213000Y-33151000D01*
X26793000Y-26031000D02*
X27213000Y-26031000D01*
X33913000Y-26451000D02*
X35293000Y-26451000D01*
X33913000Y-26031000D02*
X33913000Y-26451000D01*
X33913000Y-33151000D02*
X33493000Y-33151000D01*
G04 #@! TO.C,U3*
X48986000Y-26574000D02*
X48986000Y-24814000D01*
X52056000Y-24814000D02*
X52056000Y-27244000D01*
G04 #@! TO.C,Y1*
X39900000Y-26383000D02*
X39900000Y-32133000D01*
X39900000Y-32133000D02*
X36300000Y-32133000D01*
X36300000Y-32133000D02*
X36300000Y-26383000D01*
G04 #@! TO.C,R8*
X48224221Y-41023000D02*
X48549779Y-41023000D01*
X48224221Y-40003000D02*
X48549779Y-40003000D01*
G04 #@! TO.C,C7*
X22731000Y-26380221D02*
X22731000Y-26705779D01*
X23751000Y-26380221D02*
X23751000Y-26705779D01*
G04 #@! TO.C,C8*
X56513000Y-26324779D02*
X56513000Y-25999221D01*
X57533000Y-26324779D02*
X57533000Y-25999221D01*
G04 #@! TO.C,C9*
X55628000Y-26324779D02*
X55628000Y-25999221D01*
X54608000Y-26324779D02*
X54608000Y-25999221D01*
G04 #@! TO.C,C10*
X46611000Y-26578779D02*
X46611000Y-26253221D01*
X45591000Y-26578779D02*
X45591000Y-26253221D01*
G04 #@! TO.C,R10*
X21969000Y-35016221D02*
X21969000Y-35341779D01*
X22989000Y-35016221D02*
X22989000Y-35341779D01*
G04 #@! TO.C,R11*
X23493000Y-35016221D02*
X23493000Y-35341779D01*
X24513000Y-35016221D02*
X24513000Y-35341779D01*
G04 #@! TO.C,R12*
X26164000Y-35016221D02*
X26164000Y-35341779D01*
X25144000Y-35016221D02*
X25144000Y-35341779D01*
G04 #@! TO.C,J2*
X56821000Y-32891000D02*
X58221000Y-32891000D01*
X56821000Y-31341000D02*
X58221000Y-31341000D01*
X50621000Y-31791000D02*
X50621000Y-42316000D01*
X56821000Y-31341000D02*
X56821000Y-30216000D01*
X56821000Y-35291000D02*
X56821000Y-32891000D01*
X56821000Y-38291000D02*
X56821000Y-36941000D01*
X56821000Y-42316000D02*
X56821000Y-39941000D01*
X50621000Y-30216000D02*
X56821000Y-30216000D01*
X56821000Y-42316000D02*
X56221000Y-42316000D01*
X51221000Y-42316000D02*
X50621000Y-42316000D01*
X56221000Y-44316000D02*
X51221000Y-44316000D01*
X56221000Y-42316000D02*
X56221000Y-44316000D01*
X51221000Y-42316000D02*
X51221000Y-44316000D01*
G04 #@! TO.C,J7*
X22098000Y-37914000D02*
X22478000Y-37914000D01*
X22098000Y-41964000D02*
X22098000Y-42224000D01*
X22098000Y-37914000D02*
X22098000Y-39684000D01*
X29718000Y-37914000D02*
X29338000Y-37914000D01*
X29718000Y-39684000D02*
X29718000Y-37914000D01*
X29718000Y-42224000D02*
X29718000Y-41964000D01*
G04 #@! TO.C,U4*
X49743000Y-35168000D02*
X49743000Y-36968000D01*
X46523000Y-36968000D02*
X46523000Y-34518000D01*
G04 #@! TO.C,J4*
X45479000Y-36185000D02*
X45479000Y-45545000D01*
X45479000Y-45545000D02*
X32499000Y-45545000D01*
X32499000Y-45545000D02*
X32499000Y-36185000D01*
X45479000Y-36185000D02*
X43849000Y-36185000D01*
X32499000Y-36185000D02*
X34129000Y-36185000D01*
X41749000Y-36185000D02*
X40039000Y-36185000D01*
X37939000Y-36185000D02*
X36229000Y-36185000D01*
X45479000Y-42265000D02*
X32499000Y-42265000D01*
X42499000Y-34865000D02*
X42799000Y-35465000D01*
X42799000Y-35465000D02*
X43099000Y-34865000D01*
X43099000Y-34865000D02*
X42499000Y-34865000D01*
G04 #@! TO.C,J3*
X24836000Y-21453000D02*
X24836000Y-21903000D01*
X24836000Y-21903000D02*
X25786000Y-21903000D01*
X25786000Y-21903000D02*
X25786000Y-23393000D01*
X31806000Y-21453000D02*
X31806000Y-21903000D01*
X31806000Y-21903000D02*
X30856000Y-21903000D01*
X24836000Y-17933000D02*
X24836000Y-17483000D01*
X24836000Y-17483000D02*
X31806000Y-17483000D01*
X31806000Y-17483000D02*
X31806000Y-17933000D01*
G04 #@! TO.C,R13*
X40096221Y-21084000D02*
X40421779Y-21084000D01*
X40096221Y-20064000D02*
X40421779Y-20064000D01*
G04 #@! TD*
G04 #@! TO.C,C4*
D10*
X43854666Y-29043142D02*
X43902285Y-29090761D01*
X44045142Y-29138380D01*
X44140380Y-29138380D01*
X44283238Y-29090761D01*
X44378476Y-28995523D01*
X44426095Y-28900285D01*
X44473714Y-28709809D01*
X44473714Y-28566952D01*
X44426095Y-28376476D01*
X44378476Y-28281238D01*
X44283238Y-28186000D01*
X44140380Y-28138380D01*
X44045142Y-28138380D01*
X43902285Y-28186000D01*
X43854666Y-28233619D01*
X42997523Y-28471714D02*
X42997523Y-29138380D01*
X43235619Y-28090761D02*
X43473714Y-28805047D01*
X42854666Y-28805047D01*
G04 #@! TO.C,R9*
X35758380Y-23455333D02*
X35282190Y-23122000D01*
X35758380Y-22883904D02*
X34758380Y-22883904D01*
X34758380Y-23264857D01*
X34806000Y-23360095D01*
X34853619Y-23407714D01*
X34948857Y-23455333D01*
X35091714Y-23455333D01*
X35186952Y-23407714D01*
X35234571Y-23360095D01*
X35282190Y-23264857D01*
X35282190Y-22883904D01*
X35758380Y-23931523D02*
X35758380Y-24122000D01*
X35710761Y-24217238D01*
X35663142Y-24264857D01*
X35520285Y-24360095D01*
X35329809Y-24407714D01*
X34948857Y-24407714D01*
X34853619Y-24360095D01*
X34806000Y-24312476D01*
X34758380Y-24217238D01*
X34758380Y-24026761D01*
X34806000Y-23931523D01*
X34853619Y-23883904D01*
X34948857Y-23836285D01*
X35186952Y-23836285D01*
X35282190Y-23883904D01*
X35329809Y-23931523D01*
X35377428Y-24026761D01*
X35377428Y-24217238D01*
X35329809Y-24312476D01*
X35282190Y-24360095D01*
X35186952Y-24407714D01*
G04 #@! TO.C,C3*
X43854666Y-30680142D02*
X43902285Y-30727761D01*
X44045142Y-30775380D01*
X44140380Y-30775380D01*
X44283238Y-30727761D01*
X44378476Y-30632523D01*
X44426095Y-30537285D01*
X44473714Y-30346809D01*
X44473714Y-30203952D01*
X44426095Y-30013476D01*
X44378476Y-29918238D01*
X44283238Y-29823000D01*
X44140380Y-29775380D01*
X44045142Y-29775380D01*
X43902285Y-29823000D01*
X43854666Y-29870619D01*
X43521333Y-29775380D02*
X42902285Y-29775380D01*
X43235619Y-30156333D01*
X43092761Y-30156333D01*
X42997523Y-30203952D01*
X42949904Y-30251571D01*
X42902285Y-30346809D01*
X42902285Y-30584904D01*
X42949904Y-30680142D01*
X42997523Y-30727761D01*
X43092761Y-30775380D01*
X43378476Y-30775380D01*
X43473714Y-30727761D01*
X43521333Y-30680142D01*
G04 #@! TO.C,R1*
X37536380Y-23455333D02*
X37060190Y-23122000D01*
X37536380Y-22883904D02*
X36536380Y-22883904D01*
X36536380Y-23264857D01*
X36584000Y-23360095D01*
X36631619Y-23407714D01*
X36726857Y-23455333D01*
X36869714Y-23455333D01*
X36964952Y-23407714D01*
X37012571Y-23360095D01*
X37060190Y-23264857D01*
X37060190Y-22883904D01*
X37536380Y-24407714D02*
X37536380Y-23836285D01*
X37536380Y-24122000D02*
X36536380Y-24122000D01*
X36679238Y-24026761D01*
X36774476Y-23931523D01*
X36822095Y-23836285D01*
G04 #@! TO.C,C2*
X42838666Y-33123142D02*
X42886285Y-33170761D01*
X43029142Y-33218380D01*
X43124380Y-33218380D01*
X43267238Y-33170761D01*
X43362476Y-33075523D01*
X43410095Y-32980285D01*
X43457714Y-32789809D01*
X43457714Y-32646952D01*
X43410095Y-32456476D01*
X43362476Y-32361238D01*
X43267238Y-32266000D01*
X43124380Y-32218380D01*
X43029142Y-32218380D01*
X42886285Y-32266000D01*
X42838666Y-32313619D01*
X42457714Y-32313619D02*
X42410095Y-32266000D01*
X42314857Y-32218380D01*
X42076761Y-32218380D01*
X41981523Y-32266000D01*
X41933904Y-32313619D01*
X41886285Y-32408857D01*
X41886285Y-32504095D01*
X41933904Y-32646952D01*
X42505333Y-33218380D01*
X41886285Y-33218380D01*
G04 #@! TO.C,R2*
X31408666Y-36266380D02*
X31742000Y-35790190D01*
X31980095Y-36266380D02*
X31980095Y-35266380D01*
X31599142Y-35266380D01*
X31503904Y-35314000D01*
X31456285Y-35361619D01*
X31408666Y-35456857D01*
X31408666Y-35599714D01*
X31456285Y-35694952D01*
X31503904Y-35742571D01*
X31599142Y-35790190D01*
X31980095Y-35790190D01*
X31027714Y-35361619D02*
X30980095Y-35314000D01*
X30884857Y-35266380D01*
X30646761Y-35266380D01*
X30551523Y-35314000D01*
X30503904Y-35361619D01*
X30456285Y-35456857D01*
X30456285Y-35552095D01*
X30503904Y-35694952D01*
X31075333Y-36266380D01*
X30456285Y-36266380D01*
G04 #@! TO.C,R3*
X58618380Y-22693333D02*
X58142190Y-22360000D01*
X58618380Y-22121904D02*
X57618380Y-22121904D01*
X57618380Y-22502857D01*
X57666000Y-22598095D01*
X57713619Y-22645714D01*
X57808857Y-22693333D01*
X57951714Y-22693333D01*
X58046952Y-22645714D01*
X58094571Y-22598095D01*
X58142190Y-22502857D01*
X58142190Y-22121904D01*
X57618380Y-23026666D02*
X57618380Y-23645714D01*
X57999333Y-23312380D01*
X57999333Y-23455238D01*
X58046952Y-23550476D01*
X58094571Y-23598095D01*
X58189809Y-23645714D01*
X58427904Y-23645714D01*
X58523142Y-23598095D01*
X58570761Y-23550476D01*
X58618380Y-23455238D01*
X58618380Y-23169523D01*
X58570761Y-23074285D01*
X58523142Y-23026666D01*
G04 #@! TO.C,R4*
X55538666Y-21534380D02*
X55872000Y-21058190D01*
X56110095Y-21534380D02*
X56110095Y-20534380D01*
X55729142Y-20534380D01*
X55633904Y-20582000D01*
X55586285Y-20629619D01*
X55538666Y-20724857D01*
X55538666Y-20867714D01*
X55586285Y-20962952D01*
X55633904Y-21010571D01*
X55729142Y-21058190D01*
X56110095Y-21058190D01*
X54681523Y-20867714D02*
X54681523Y-21534380D01*
X54919619Y-20486761D02*
X55157714Y-21201047D01*
X54538666Y-21201047D01*
G04 #@! TO.C,R5*
X46902666Y-30424380D02*
X47236000Y-29948190D01*
X47474095Y-30424380D02*
X47474095Y-29424380D01*
X47093142Y-29424380D01*
X46997904Y-29472000D01*
X46950285Y-29519619D01*
X46902666Y-29614857D01*
X46902666Y-29757714D01*
X46950285Y-29852952D01*
X46997904Y-29900571D01*
X47093142Y-29948190D01*
X47474095Y-29948190D01*
X45997904Y-29424380D02*
X46474095Y-29424380D01*
X46521714Y-29900571D01*
X46474095Y-29852952D01*
X46378857Y-29805333D01*
X46140761Y-29805333D01*
X46045523Y-29852952D01*
X45997904Y-29900571D01*
X45950285Y-29995809D01*
X45950285Y-30233904D01*
X45997904Y-30329142D01*
X46045523Y-30376761D01*
X46140761Y-30424380D01*
X46378857Y-30424380D01*
X46474095Y-30376761D01*
X46521714Y-30329142D01*
G04 #@! TO.C,R6*
X48204380Y-23582333D02*
X47728190Y-23249000D01*
X48204380Y-23010904D02*
X47204380Y-23010904D01*
X47204380Y-23391857D01*
X47252000Y-23487095D01*
X47299619Y-23534714D01*
X47394857Y-23582333D01*
X47537714Y-23582333D01*
X47632952Y-23534714D01*
X47680571Y-23487095D01*
X47728190Y-23391857D01*
X47728190Y-23010904D01*
X47204380Y-24439476D02*
X47204380Y-24249000D01*
X47252000Y-24153761D01*
X47299619Y-24106142D01*
X47442476Y-24010904D01*
X47632952Y-23963285D01*
X48013904Y-23963285D01*
X48109142Y-24010904D01*
X48156761Y-24058523D01*
X48204380Y-24153761D01*
X48204380Y-24344238D01*
X48156761Y-24439476D01*
X48109142Y-24487095D01*
X48013904Y-24534714D01*
X47775809Y-24534714D01*
X47680571Y-24487095D01*
X47632952Y-24439476D01*
X47585333Y-24344238D01*
X47585333Y-24153761D01*
X47632952Y-24058523D01*
X47680571Y-24010904D01*
X47775809Y-23963285D01*
G04 #@! TO.C,R7*
X52522380Y-21931333D02*
X52046190Y-21598000D01*
X52522380Y-21359904D02*
X51522380Y-21359904D01*
X51522380Y-21740857D01*
X51570000Y-21836095D01*
X51617619Y-21883714D01*
X51712857Y-21931333D01*
X51855714Y-21931333D01*
X51950952Y-21883714D01*
X51998571Y-21836095D01*
X52046190Y-21740857D01*
X52046190Y-21359904D01*
X51522380Y-22264666D02*
X51522380Y-22931333D01*
X52522380Y-22502761D01*
G04 #@! TO.C,U2*
X32615904Y-30728380D02*
X32615904Y-31537904D01*
X32568285Y-31633142D01*
X32520666Y-31680761D01*
X32425428Y-31728380D01*
X32234952Y-31728380D01*
X32139714Y-31680761D01*
X32092095Y-31633142D01*
X32044476Y-31537904D01*
X32044476Y-30728380D01*
X31615904Y-30823619D02*
X31568285Y-30776000D01*
X31473047Y-30728380D01*
X31234952Y-30728380D01*
X31139714Y-30776000D01*
X31092095Y-30823619D01*
X31044476Y-30918857D01*
X31044476Y-31014095D01*
X31092095Y-31156952D01*
X31663523Y-31728380D01*
X31044476Y-31728380D01*
G04 #@! TO.C,U3*
X51307904Y-27900380D02*
X51307904Y-28709904D01*
X51260285Y-28805142D01*
X51212666Y-28852761D01*
X51117428Y-28900380D01*
X50926952Y-28900380D01*
X50831714Y-28852761D01*
X50784095Y-28805142D01*
X50736476Y-28709904D01*
X50736476Y-27900380D01*
X50355523Y-27900380D02*
X49736476Y-27900380D01*
X50069809Y-28281333D01*
X49926952Y-28281333D01*
X49831714Y-28328952D01*
X49784095Y-28376571D01*
X49736476Y-28471809D01*
X49736476Y-28709904D01*
X49784095Y-28805142D01*
X49831714Y-28852761D01*
X49926952Y-28900380D01*
X50212666Y-28900380D01*
X50307904Y-28852761D01*
X50355523Y-28805142D01*
G04 #@! TO.C,Y1*
X38576190Y-33250190D02*
X38576190Y-33726380D01*
X38909523Y-32726380D02*
X38576190Y-33250190D01*
X38242857Y-32726380D01*
X37385714Y-33726380D02*
X37957142Y-33726380D01*
X37671428Y-33726380D02*
X37671428Y-32726380D01*
X37766666Y-32869238D01*
X37861904Y-32964476D01*
X37957142Y-33012095D01*
G04 #@! TO.C,R8*
X48426666Y-39504880D02*
X48760000Y-39028690D01*
X48998095Y-39504880D02*
X48998095Y-38504880D01*
X48617142Y-38504880D01*
X48521904Y-38552500D01*
X48474285Y-38600119D01*
X48426666Y-38695357D01*
X48426666Y-38838214D01*
X48474285Y-38933452D01*
X48521904Y-38981071D01*
X48617142Y-39028690D01*
X48998095Y-39028690D01*
X47855238Y-38933452D02*
X47950476Y-38885833D01*
X47998095Y-38838214D01*
X48045714Y-38742976D01*
X48045714Y-38695357D01*
X47998095Y-38600119D01*
X47950476Y-38552500D01*
X47855238Y-38504880D01*
X47664761Y-38504880D01*
X47569523Y-38552500D01*
X47521904Y-38600119D01*
X47474285Y-38695357D01*
X47474285Y-38742976D01*
X47521904Y-38838214D01*
X47569523Y-38885833D01*
X47664761Y-38933452D01*
X47855238Y-38933452D01*
X47950476Y-38981071D01*
X47998095Y-39028690D01*
X48045714Y-39123928D01*
X48045714Y-39314404D01*
X47998095Y-39409642D01*
X47950476Y-39457261D01*
X47855238Y-39504880D01*
X47664761Y-39504880D01*
X47569523Y-39457261D01*
X47521904Y-39409642D01*
X47474285Y-39314404D01*
X47474285Y-39123928D01*
X47521904Y-39028690D01*
X47569523Y-38981071D01*
X47664761Y-38933452D01*
G04 #@! TO.C,C7*
X23534666Y-24995142D02*
X23582285Y-25042761D01*
X23725142Y-25090380D01*
X23820380Y-25090380D01*
X23963238Y-25042761D01*
X24058476Y-24947523D01*
X24106095Y-24852285D01*
X24153714Y-24661809D01*
X24153714Y-24518952D01*
X24106095Y-24328476D01*
X24058476Y-24233238D01*
X23963238Y-24138000D01*
X23820380Y-24090380D01*
X23725142Y-24090380D01*
X23582285Y-24138000D01*
X23534666Y-24185619D01*
X23201333Y-24090380D02*
X22534666Y-24090380D01*
X22963238Y-25090380D01*
G04 #@! TO.C,C8*
X57507142Y-28535333D02*
X57554761Y-28487714D01*
X57602380Y-28344857D01*
X57602380Y-28249619D01*
X57554761Y-28106761D01*
X57459523Y-28011523D01*
X57364285Y-27963904D01*
X57173809Y-27916285D01*
X57030952Y-27916285D01*
X56840476Y-27963904D01*
X56745238Y-28011523D01*
X56650000Y-28106761D01*
X56602380Y-28249619D01*
X56602380Y-28344857D01*
X56650000Y-28487714D01*
X56697619Y-28535333D01*
X57030952Y-29106761D02*
X56983333Y-29011523D01*
X56935714Y-28963904D01*
X56840476Y-28916285D01*
X56792857Y-28916285D01*
X56697619Y-28963904D01*
X56650000Y-29011523D01*
X56602380Y-29106761D01*
X56602380Y-29297238D01*
X56650000Y-29392476D01*
X56697619Y-29440095D01*
X56792857Y-29487714D01*
X56840476Y-29487714D01*
X56935714Y-29440095D01*
X56983333Y-29392476D01*
X57030952Y-29297238D01*
X57030952Y-29106761D01*
X57078571Y-29011523D01*
X57126190Y-28963904D01*
X57221428Y-28916285D01*
X57411904Y-28916285D01*
X57507142Y-28963904D01*
X57554761Y-29011523D01*
X57602380Y-29106761D01*
X57602380Y-29297238D01*
X57554761Y-29392476D01*
X57507142Y-29440095D01*
X57411904Y-29487714D01*
X57221428Y-29487714D01*
X57126190Y-29440095D01*
X57078571Y-29392476D01*
X57030952Y-29297238D01*
G04 #@! TO.C,C9*
X54205142Y-25995333D02*
X54252761Y-25947714D01*
X54300380Y-25804857D01*
X54300380Y-25709619D01*
X54252761Y-25566761D01*
X54157523Y-25471523D01*
X54062285Y-25423904D01*
X53871809Y-25376285D01*
X53728952Y-25376285D01*
X53538476Y-25423904D01*
X53443238Y-25471523D01*
X53348000Y-25566761D01*
X53300380Y-25709619D01*
X53300380Y-25804857D01*
X53348000Y-25947714D01*
X53395619Y-25995333D01*
X54300380Y-26471523D02*
X54300380Y-26662000D01*
X54252761Y-26757238D01*
X54205142Y-26804857D01*
X54062285Y-26900095D01*
X53871809Y-26947714D01*
X53490857Y-26947714D01*
X53395619Y-26900095D01*
X53348000Y-26852476D01*
X53300380Y-26757238D01*
X53300380Y-26566761D01*
X53348000Y-26471523D01*
X53395619Y-26423904D01*
X53490857Y-26376285D01*
X53728952Y-26376285D01*
X53824190Y-26423904D01*
X53871809Y-26471523D01*
X53919428Y-26566761D01*
X53919428Y-26757238D01*
X53871809Y-26852476D01*
X53824190Y-26900095D01*
X53728952Y-26947714D01*
G04 #@! TO.C,C10*
X46394642Y-22915642D02*
X46442261Y-22868023D01*
X46489880Y-22725166D01*
X46489880Y-22629928D01*
X46442261Y-22487071D01*
X46347023Y-22391833D01*
X46251785Y-22344214D01*
X46061309Y-22296595D01*
X45918452Y-22296595D01*
X45727976Y-22344214D01*
X45632738Y-22391833D01*
X45537500Y-22487071D01*
X45489880Y-22629928D01*
X45489880Y-22725166D01*
X45537500Y-22868023D01*
X45585119Y-22915642D01*
X46489880Y-23868023D02*
X46489880Y-23296595D01*
X46489880Y-23582309D02*
X45489880Y-23582309D01*
X45632738Y-23487071D01*
X45727976Y-23391833D01*
X45775595Y-23296595D01*
X45489880Y-24487071D02*
X45489880Y-24582309D01*
X45537500Y-24677547D01*
X45585119Y-24725166D01*
X45680357Y-24772785D01*
X45870833Y-24820404D01*
X46108928Y-24820404D01*
X46299404Y-24772785D01*
X46394642Y-24725166D01*
X46442261Y-24677547D01*
X46489880Y-24582309D01*
X46489880Y-24487071D01*
X46442261Y-24391833D01*
X46394642Y-24344214D01*
X46299404Y-24296595D01*
X46108928Y-24248976D01*
X45870833Y-24248976D01*
X45680357Y-24296595D01*
X45585119Y-24344214D01*
X45537500Y-24391833D01*
X45489880Y-24487071D01*
G04 #@! TO.C,R10*
X22931380Y-31488142D02*
X22455190Y-31154809D01*
X22931380Y-30916714D02*
X21931380Y-30916714D01*
X21931380Y-31297666D01*
X21979000Y-31392904D01*
X22026619Y-31440523D01*
X22121857Y-31488142D01*
X22264714Y-31488142D01*
X22359952Y-31440523D01*
X22407571Y-31392904D01*
X22455190Y-31297666D01*
X22455190Y-30916714D01*
X22931380Y-32440523D02*
X22931380Y-31869095D01*
X22931380Y-32154809D02*
X21931380Y-32154809D01*
X22074238Y-32059571D01*
X22169476Y-31964333D01*
X22217095Y-31869095D01*
X21931380Y-33059571D02*
X21931380Y-33154809D01*
X21979000Y-33250047D01*
X22026619Y-33297666D01*
X22121857Y-33345285D01*
X22312333Y-33392904D01*
X22550428Y-33392904D01*
X22740904Y-33345285D01*
X22836142Y-33297666D01*
X22883761Y-33250047D01*
X22931380Y-33154809D01*
X22931380Y-33059571D01*
X22883761Y-32964333D01*
X22836142Y-32916714D01*
X22740904Y-32869095D01*
X22550428Y-32821476D01*
X22312333Y-32821476D01*
X22121857Y-32869095D01*
X22026619Y-32916714D01*
X21979000Y-32964333D01*
X21931380Y-33059571D01*
G04 #@! TO.C,R11*
X24455380Y-31488142D02*
X23979190Y-31154809D01*
X24455380Y-30916714D02*
X23455380Y-30916714D01*
X23455380Y-31297666D01*
X23503000Y-31392904D01*
X23550619Y-31440523D01*
X23645857Y-31488142D01*
X23788714Y-31488142D01*
X23883952Y-31440523D01*
X23931571Y-31392904D01*
X23979190Y-31297666D01*
X23979190Y-30916714D01*
X24455380Y-32440523D02*
X24455380Y-31869095D01*
X24455380Y-32154809D02*
X23455380Y-32154809D01*
X23598238Y-32059571D01*
X23693476Y-31964333D01*
X23741095Y-31869095D01*
X24455380Y-33392904D02*
X24455380Y-32821476D01*
X24455380Y-33107190D02*
X23455380Y-33107190D01*
X23598238Y-33011952D01*
X23693476Y-32916714D01*
X23741095Y-32821476D01*
G04 #@! TO.C,R12*
X27376380Y-34663142D02*
X26900190Y-34329809D01*
X27376380Y-34091714D02*
X26376380Y-34091714D01*
X26376380Y-34472666D01*
X26424000Y-34567904D01*
X26471619Y-34615523D01*
X26566857Y-34663142D01*
X26709714Y-34663142D01*
X26804952Y-34615523D01*
X26852571Y-34567904D01*
X26900190Y-34472666D01*
X26900190Y-34091714D01*
X27376380Y-35615523D02*
X27376380Y-35044095D01*
X27376380Y-35329809D02*
X26376380Y-35329809D01*
X26519238Y-35234571D01*
X26614476Y-35139333D01*
X26662095Y-35044095D01*
X26471619Y-35996476D02*
X26424000Y-36044095D01*
X26376380Y-36139333D01*
X26376380Y-36377428D01*
X26424000Y-36472666D01*
X26471619Y-36520285D01*
X26566857Y-36567904D01*
X26662095Y-36567904D01*
X26804952Y-36520285D01*
X27376380Y-35948857D01*
X27376380Y-36567904D01*
G04 #@! TO.C,J2*
X53236880Y-36829666D02*
X53951166Y-36829666D01*
X54094023Y-36782047D01*
X54189261Y-36686809D01*
X54236880Y-36543952D01*
X54236880Y-36448714D01*
X53332119Y-37258238D02*
X53284500Y-37305857D01*
X53236880Y-37401095D01*
X53236880Y-37639190D01*
X53284500Y-37734428D01*
X53332119Y-37782047D01*
X53427357Y-37829666D01*
X53522595Y-37829666D01*
X53665452Y-37782047D01*
X54236880Y-37210619D01*
X54236880Y-37829666D01*
G04 #@! TO.C,J7*
X26241333Y-35776380D02*
X26241333Y-36490666D01*
X26288952Y-36633523D01*
X26384190Y-36728761D01*
X26527047Y-36776380D01*
X26622285Y-36776380D01*
X25860380Y-35776380D02*
X25193714Y-35776380D01*
X25622285Y-36776380D01*
G04 #@! TO.C,U4*
X49021904Y-32472380D02*
X49021904Y-33281904D01*
X48974285Y-33377142D01*
X48926666Y-33424761D01*
X48831428Y-33472380D01*
X48640952Y-33472380D01*
X48545714Y-33424761D01*
X48498095Y-33377142D01*
X48450476Y-33281904D01*
X48450476Y-32472380D01*
X47545714Y-32805714D02*
X47545714Y-33472380D01*
X47783809Y-32424761D02*
X48021904Y-33139047D01*
X47402857Y-33139047D01*
G04 #@! TO.C,J4*
X39322333Y-40397380D02*
X39322333Y-41111666D01*
X39369952Y-41254523D01*
X39465190Y-41349761D01*
X39608047Y-41397380D01*
X39703285Y-41397380D01*
X38417571Y-40730714D02*
X38417571Y-41397380D01*
X38655666Y-40349761D02*
X38893761Y-41064047D01*
X38274714Y-41064047D01*
G04 #@! TO.C,J3*
X24717333Y-22312380D02*
X24717333Y-23026666D01*
X24764952Y-23169523D01*
X24860190Y-23264761D01*
X25003047Y-23312380D01*
X25098285Y-23312380D01*
X24336380Y-22312380D02*
X23717333Y-22312380D01*
X24050666Y-22693333D01*
X23907809Y-22693333D01*
X23812571Y-22740952D01*
X23764952Y-22788571D01*
X23717333Y-22883809D01*
X23717333Y-23121904D01*
X23764952Y-23217142D01*
X23812571Y-23264761D01*
X23907809Y-23312380D01*
X24193523Y-23312380D01*
X24288761Y-23264761D01*
X24336380Y-23217142D01*
G04 #@! TO.C,R13*
X40901857Y-19756380D02*
X41235190Y-19280190D01*
X41473285Y-19756380D02*
X41473285Y-18756380D01*
X41092333Y-18756380D01*
X40997095Y-18804000D01*
X40949476Y-18851619D01*
X40901857Y-18946857D01*
X40901857Y-19089714D01*
X40949476Y-19184952D01*
X40997095Y-19232571D01*
X41092333Y-19280190D01*
X41473285Y-19280190D01*
X39949476Y-19756380D02*
X40520904Y-19756380D01*
X40235190Y-19756380D02*
X40235190Y-18756380D01*
X40330428Y-18899238D01*
X40425666Y-18994476D01*
X40520904Y-19042095D01*
X39616142Y-18756380D02*
X38997095Y-18756380D01*
X39330428Y-19137333D01*
X39187571Y-19137333D01*
X39092333Y-19184952D01*
X39044714Y-19232571D01*
X38997095Y-19327809D01*
X38997095Y-19565904D01*
X39044714Y-19661142D01*
X39092333Y-19708761D01*
X39187571Y-19756380D01*
X39473285Y-19756380D01*
X39568523Y-19708761D01*
X39616142Y-19661142D01*
G04 #@! TD*
M02*
