G04 #@! TF.GenerationSoftware,KiCad,Pcbnew,(5.0.0)*
G04 #@! TF.CreationDate,2019-01-26T11:16:20+03:00*
G04 #@! TF.ProjectId,stm32mc,73746D33326D632E6B696361645F7063,rev?*
G04 #@! TF.SameCoordinates,Original*
G04 #@! TF.FileFunction,Paste,Top*
G04 #@! TF.FilePolarity,Positive*
%FSLAX46Y46*%
G04 Gerber Fmt 4.6, Leading zero omitted, Abs format (unit mm)*
G04 Created by KiCad (PCBNEW (5.0.0)) date 01/26/19 11:16:20*
%MOMM*%
%LPD*%
G01*
G04 APERTURE LIST*
%ADD10C,0.150000*%
%ADD11O,1.200000X2.000000*%
%ADD12O,2.000000X1.200000*%
%ADD13C,0.100000*%
%ADD14C,1.250000*%
%ADD15C,0.875000*%
%ADD16R,2.000000X3.800000*%
%ADD17R,2.000000X1.500000*%
G04 APERTURE END LIST*
D10*
X58531000Y-19050000D02*
G75*
G03X58531000Y-19050000I-1000000J0D01*
G01*
X32512000Y-40386000D02*
G75*
G03X32512000Y-40386000I-1000000J0D01*
G01*
X59055000Y-42291000D02*
X59055000Y-17526000D01*
X59024000Y-17507000D02*
X21082000Y-17526000D01*
X21082000Y-42291000D02*
X59055000Y-42291000D01*
X21082000Y-17526000D02*
X21082000Y-42291000D01*
D11*
G04 #@! TO.C,D1*
X22278000Y-32408000D03*
X23778000Y-32408000D03*
X37278000Y-32408000D03*
X38778000Y-32408000D03*
X40278000Y-32408000D03*
D12*
X42128000Y-20658000D03*
D11*
X40278000Y-19408000D03*
X38778000Y-19408000D03*
X37278000Y-19408000D03*
X23778000Y-19408000D03*
X22278000Y-19408000D03*
G04 #@! TD*
D13*
G04 #@! TO.C,C1*
G36*
X47835504Y-30615204D02*
X47859773Y-30618804D01*
X47883571Y-30624765D01*
X47906671Y-30633030D01*
X47928849Y-30643520D01*
X47949893Y-30656133D01*
X47969598Y-30670747D01*
X47987777Y-30687223D01*
X48004253Y-30705402D01*
X48018867Y-30725107D01*
X48031480Y-30746151D01*
X48041970Y-30768329D01*
X48050235Y-30791429D01*
X48056196Y-30815227D01*
X48059796Y-30839496D01*
X48061000Y-30864000D01*
X48061000Y-31614000D01*
X48059796Y-31638504D01*
X48056196Y-31662773D01*
X48050235Y-31686571D01*
X48041970Y-31709671D01*
X48031480Y-31731849D01*
X48018867Y-31752893D01*
X48004253Y-31772598D01*
X47987777Y-31790777D01*
X47969598Y-31807253D01*
X47949893Y-31821867D01*
X47928849Y-31834480D01*
X47906671Y-31844970D01*
X47883571Y-31853235D01*
X47859773Y-31859196D01*
X47835504Y-31862796D01*
X47811000Y-31864000D01*
X45661000Y-31864000D01*
X45636496Y-31862796D01*
X45612227Y-31859196D01*
X45588429Y-31853235D01*
X45565329Y-31844970D01*
X45543151Y-31834480D01*
X45522107Y-31821867D01*
X45502402Y-31807253D01*
X45484223Y-31790777D01*
X45467747Y-31772598D01*
X45453133Y-31752893D01*
X45440520Y-31731849D01*
X45430030Y-31709671D01*
X45421765Y-31686571D01*
X45415804Y-31662773D01*
X45412204Y-31638504D01*
X45411000Y-31614000D01*
X45411000Y-30864000D01*
X45412204Y-30839496D01*
X45415804Y-30815227D01*
X45421765Y-30791429D01*
X45430030Y-30768329D01*
X45440520Y-30746151D01*
X45453133Y-30725107D01*
X45467747Y-30705402D01*
X45484223Y-30687223D01*
X45502402Y-30670747D01*
X45522107Y-30656133D01*
X45543151Y-30643520D01*
X45565329Y-30633030D01*
X45588429Y-30624765D01*
X45612227Y-30618804D01*
X45636496Y-30615204D01*
X45661000Y-30614000D01*
X47811000Y-30614000D01*
X47835504Y-30615204D01*
X47835504Y-30615204D01*
G37*
D14*
X46736000Y-31239000D03*
D13*
G36*
X47835504Y-33415204D02*
X47859773Y-33418804D01*
X47883571Y-33424765D01*
X47906671Y-33433030D01*
X47928849Y-33443520D01*
X47949893Y-33456133D01*
X47969598Y-33470747D01*
X47987777Y-33487223D01*
X48004253Y-33505402D01*
X48018867Y-33525107D01*
X48031480Y-33546151D01*
X48041970Y-33568329D01*
X48050235Y-33591429D01*
X48056196Y-33615227D01*
X48059796Y-33639496D01*
X48061000Y-33664000D01*
X48061000Y-34414000D01*
X48059796Y-34438504D01*
X48056196Y-34462773D01*
X48050235Y-34486571D01*
X48041970Y-34509671D01*
X48031480Y-34531849D01*
X48018867Y-34552893D01*
X48004253Y-34572598D01*
X47987777Y-34590777D01*
X47969598Y-34607253D01*
X47949893Y-34621867D01*
X47928849Y-34634480D01*
X47906671Y-34644970D01*
X47883571Y-34653235D01*
X47859773Y-34659196D01*
X47835504Y-34662796D01*
X47811000Y-34664000D01*
X45661000Y-34664000D01*
X45636496Y-34662796D01*
X45612227Y-34659196D01*
X45588429Y-34653235D01*
X45565329Y-34644970D01*
X45543151Y-34634480D01*
X45522107Y-34621867D01*
X45502402Y-34607253D01*
X45484223Y-34590777D01*
X45467747Y-34572598D01*
X45453133Y-34552893D01*
X45440520Y-34531849D01*
X45430030Y-34509671D01*
X45421765Y-34486571D01*
X45415804Y-34462773D01*
X45412204Y-34438504D01*
X45411000Y-34414000D01*
X45411000Y-33664000D01*
X45412204Y-33639496D01*
X45415804Y-33615227D01*
X45421765Y-33591429D01*
X45430030Y-33568329D01*
X45440520Y-33546151D01*
X45453133Y-33525107D01*
X45467747Y-33505402D01*
X45484223Y-33487223D01*
X45502402Y-33470747D01*
X45522107Y-33456133D01*
X45543151Y-33443520D01*
X45565329Y-33433030D01*
X45588429Y-33424765D01*
X45612227Y-33418804D01*
X45636496Y-33415204D01*
X45661000Y-33414000D01*
X47811000Y-33414000D01*
X47835504Y-33415204D01*
X47835504Y-33415204D01*
G37*
D14*
X46736000Y-34039000D03*
G04 #@! TD*
D13*
G04 #@! TO.C,C5*
G36*
X43965691Y-27529053D02*
X43986926Y-27532203D01*
X44007750Y-27537419D01*
X44027962Y-27544651D01*
X44047368Y-27553830D01*
X44065781Y-27564866D01*
X44083024Y-27577654D01*
X44098930Y-27592070D01*
X44113346Y-27607976D01*
X44126134Y-27625219D01*
X44137170Y-27643632D01*
X44146349Y-27663038D01*
X44153581Y-27683250D01*
X44158797Y-27704074D01*
X44161947Y-27725309D01*
X44163000Y-27746750D01*
X44163000Y-28184250D01*
X44161947Y-28205691D01*
X44158797Y-28226926D01*
X44153581Y-28247750D01*
X44146349Y-28267962D01*
X44137170Y-28287368D01*
X44126134Y-28305781D01*
X44113346Y-28323024D01*
X44098930Y-28338930D01*
X44083024Y-28353346D01*
X44065781Y-28366134D01*
X44047368Y-28377170D01*
X44027962Y-28386349D01*
X44007750Y-28393581D01*
X43986926Y-28398797D01*
X43965691Y-28401947D01*
X43944250Y-28403000D01*
X43431750Y-28403000D01*
X43410309Y-28401947D01*
X43389074Y-28398797D01*
X43368250Y-28393581D01*
X43348038Y-28386349D01*
X43328632Y-28377170D01*
X43310219Y-28366134D01*
X43292976Y-28353346D01*
X43277070Y-28338930D01*
X43262654Y-28323024D01*
X43249866Y-28305781D01*
X43238830Y-28287368D01*
X43229651Y-28267962D01*
X43222419Y-28247750D01*
X43217203Y-28226926D01*
X43214053Y-28205691D01*
X43213000Y-28184250D01*
X43213000Y-27746750D01*
X43214053Y-27725309D01*
X43217203Y-27704074D01*
X43222419Y-27683250D01*
X43229651Y-27663038D01*
X43238830Y-27643632D01*
X43249866Y-27625219D01*
X43262654Y-27607976D01*
X43277070Y-27592070D01*
X43292976Y-27577654D01*
X43310219Y-27564866D01*
X43328632Y-27553830D01*
X43348038Y-27544651D01*
X43368250Y-27537419D01*
X43389074Y-27532203D01*
X43410309Y-27529053D01*
X43431750Y-27528000D01*
X43944250Y-27528000D01*
X43965691Y-27529053D01*
X43965691Y-27529053D01*
G37*
D15*
X43688000Y-27965500D03*
D13*
G36*
X43965691Y-25954053D02*
X43986926Y-25957203D01*
X44007750Y-25962419D01*
X44027962Y-25969651D01*
X44047368Y-25978830D01*
X44065781Y-25989866D01*
X44083024Y-26002654D01*
X44098930Y-26017070D01*
X44113346Y-26032976D01*
X44126134Y-26050219D01*
X44137170Y-26068632D01*
X44146349Y-26088038D01*
X44153581Y-26108250D01*
X44158797Y-26129074D01*
X44161947Y-26150309D01*
X44163000Y-26171750D01*
X44163000Y-26609250D01*
X44161947Y-26630691D01*
X44158797Y-26651926D01*
X44153581Y-26672750D01*
X44146349Y-26692962D01*
X44137170Y-26712368D01*
X44126134Y-26730781D01*
X44113346Y-26748024D01*
X44098930Y-26763930D01*
X44083024Y-26778346D01*
X44065781Y-26791134D01*
X44047368Y-26802170D01*
X44027962Y-26811349D01*
X44007750Y-26818581D01*
X43986926Y-26823797D01*
X43965691Y-26826947D01*
X43944250Y-26828000D01*
X43431750Y-26828000D01*
X43410309Y-26826947D01*
X43389074Y-26823797D01*
X43368250Y-26818581D01*
X43348038Y-26811349D01*
X43328632Y-26802170D01*
X43310219Y-26791134D01*
X43292976Y-26778346D01*
X43277070Y-26763930D01*
X43262654Y-26748024D01*
X43249866Y-26730781D01*
X43238830Y-26712368D01*
X43229651Y-26692962D01*
X43222419Y-26672750D01*
X43217203Y-26651926D01*
X43214053Y-26630691D01*
X43213000Y-26609250D01*
X43213000Y-26171750D01*
X43214053Y-26150309D01*
X43217203Y-26129074D01*
X43222419Y-26108250D01*
X43229651Y-26088038D01*
X43238830Y-26068632D01*
X43249866Y-26050219D01*
X43262654Y-26032976D01*
X43277070Y-26017070D01*
X43292976Y-26002654D01*
X43310219Y-25989866D01*
X43328632Y-25978830D01*
X43348038Y-25969651D01*
X43368250Y-25962419D01*
X43389074Y-25957203D01*
X43410309Y-25954053D01*
X43431750Y-25953000D01*
X43944250Y-25953000D01*
X43965691Y-25954053D01*
X43965691Y-25954053D01*
G37*
D15*
X43688000Y-26390500D03*
G04 #@! TD*
D13*
G04 #@! TO.C,C6*
G36*
X47581504Y-27954204D02*
X47605773Y-27957804D01*
X47629571Y-27963765D01*
X47652671Y-27972030D01*
X47674849Y-27982520D01*
X47695893Y-27995133D01*
X47715598Y-28009747D01*
X47733777Y-28026223D01*
X47750253Y-28044402D01*
X47764867Y-28064107D01*
X47777480Y-28085151D01*
X47787970Y-28107329D01*
X47796235Y-28130429D01*
X47802196Y-28154227D01*
X47805796Y-28178496D01*
X47807000Y-28203000D01*
X47807000Y-28953000D01*
X47805796Y-28977504D01*
X47802196Y-29001773D01*
X47796235Y-29025571D01*
X47787970Y-29048671D01*
X47777480Y-29070849D01*
X47764867Y-29091893D01*
X47750253Y-29111598D01*
X47733777Y-29129777D01*
X47715598Y-29146253D01*
X47695893Y-29160867D01*
X47674849Y-29173480D01*
X47652671Y-29183970D01*
X47629571Y-29192235D01*
X47605773Y-29198196D01*
X47581504Y-29201796D01*
X47557000Y-29203000D01*
X45407000Y-29203000D01*
X45382496Y-29201796D01*
X45358227Y-29198196D01*
X45334429Y-29192235D01*
X45311329Y-29183970D01*
X45289151Y-29173480D01*
X45268107Y-29160867D01*
X45248402Y-29146253D01*
X45230223Y-29129777D01*
X45213747Y-29111598D01*
X45199133Y-29091893D01*
X45186520Y-29070849D01*
X45176030Y-29048671D01*
X45167765Y-29025571D01*
X45161804Y-29001773D01*
X45158204Y-28977504D01*
X45157000Y-28953000D01*
X45157000Y-28203000D01*
X45158204Y-28178496D01*
X45161804Y-28154227D01*
X45167765Y-28130429D01*
X45176030Y-28107329D01*
X45186520Y-28085151D01*
X45199133Y-28064107D01*
X45213747Y-28044402D01*
X45230223Y-28026223D01*
X45248402Y-28009747D01*
X45268107Y-27995133D01*
X45289151Y-27982520D01*
X45311329Y-27972030D01*
X45334429Y-27963765D01*
X45358227Y-27957804D01*
X45382496Y-27954204D01*
X45407000Y-27953000D01*
X47557000Y-27953000D01*
X47581504Y-27954204D01*
X47581504Y-27954204D01*
G37*
D14*
X46482000Y-28578000D03*
D13*
G36*
X47581504Y-25154204D02*
X47605773Y-25157804D01*
X47629571Y-25163765D01*
X47652671Y-25172030D01*
X47674849Y-25182520D01*
X47695893Y-25195133D01*
X47715598Y-25209747D01*
X47733777Y-25226223D01*
X47750253Y-25244402D01*
X47764867Y-25264107D01*
X47777480Y-25285151D01*
X47787970Y-25307329D01*
X47796235Y-25330429D01*
X47802196Y-25354227D01*
X47805796Y-25378496D01*
X47807000Y-25403000D01*
X47807000Y-26153000D01*
X47805796Y-26177504D01*
X47802196Y-26201773D01*
X47796235Y-26225571D01*
X47787970Y-26248671D01*
X47777480Y-26270849D01*
X47764867Y-26291893D01*
X47750253Y-26311598D01*
X47733777Y-26329777D01*
X47715598Y-26346253D01*
X47695893Y-26360867D01*
X47674849Y-26373480D01*
X47652671Y-26383970D01*
X47629571Y-26392235D01*
X47605773Y-26398196D01*
X47581504Y-26401796D01*
X47557000Y-26403000D01*
X45407000Y-26403000D01*
X45382496Y-26401796D01*
X45358227Y-26398196D01*
X45334429Y-26392235D01*
X45311329Y-26383970D01*
X45289151Y-26373480D01*
X45268107Y-26360867D01*
X45248402Y-26346253D01*
X45230223Y-26329777D01*
X45213747Y-26311598D01*
X45199133Y-26291893D01*
X45186520Y-26270849D01*
X45176030Y-26248671D01*
X45167765Y-26225571D01*
X45161804Y-26201773D01*
X45158204Y-26177504D01*
X45157000Y-26153000D01*
X45157000Y-25403000D01*
X45158204Y-25378496D01*
X45161804Y-25354227D01*
X45167765Y-25330429D01*
X45176030Y-25307329D01*
X45186520Y-25285151D01*
X45199133Y-25264107D01*
X45213747Y-25244402D01*
X45230223Y-25226223D01*
X45248402Y-25209747D01*
X45268107Y-25195133D01*
X45289151Y-25182520D01*
X45311329Y-25172030D01*
X45334429Y-25163765D01*
X45358227Y-25157804D01*
X45382496Y-25154204D01*
X45407000Y-25153000D01*
X47557000Y-25153000D01*
X47581504Y-25154204D01*
X47581504Y-25154204D01*
G37*
D14*
X46482000Y-25778000D03*
G04 #@! TD*
D16*
G04 #@! TO.C,U1*
X57125000Y-28702000D03*
D17*
X50825000Y-28702000D03*
X50825000Y-31002000D03*
X50825000Y-26402000D03*
G04 #@! TD*
D13*
G04 #@! TO.C,R16*
G36*
X22883691Y-34717053D02*
X22904926Y-34720203D01*
X22925750Y-34725419D01*
X22945962Y-34732651D01*
X22965368Y-34741830D01*
X22983781Y-34752866D01*
X23001024Y-34765654D01*
X23016930Y-34780070D01*
X23031346Y-34795976D01*
X23044134Y-34813219D01*
X23055170Y-34831632D01*
X23064349Y-34851038D01*
X23071581Y-34871250D01*
X23076797Y-34892074D01*
X23079947Y-34913309D01*
X23081000Y-34934750D01*
X23081000Y-35372250D01*
X23079947Y-35393691D01*
X23076797Y-35414926D01*
X23071581Y-35435750D01*
X23064349Y-35455962D01*
X23055170Y-35475368D01*
X23044134Y-35493781D01*
X23031346Y-35511024D01*
X23016930Y-35526930D01*
X23001024Y-35541346D01*
X22983781Y-35554134D01*
X22965368Y-35565170D01*
X22945962Y-35574349D01*
X22925750Y-35581581D01*
X22904926Y-35586797D01*
X22883691Y-35589947D01*
X22862250Y-35591000D01*
X22349750Y-35591000D01*
X22328309Y-35589947D01*
X22307074Y-35586797D01*
X22286250Y-35581581D01*
X22266038Y-35574349D01*
X22246632Y-35565170D01*
X22228219Y-35554134D01*
X22210976Y-35541346D01*
X22195070Y-35526930D01*
X22180654Y-35511024D01*
X22167866Y-35493781D01*
X22156830Y-35475368D01*
X22147651Y-35455962D01*
X22140419Y-35435750D01*
X22135203Y-35414926D01*
X22132053Y-35393691D01*
X22131000Y-35372250D01*
X22131000Y-34934750D01*
X22132053Y-34913309D01*
X22135203Y-34892074D01*
X22140419Y-34871250D01*
X22147651Y-34851038D01*
X22156830Y-34831632D01*
X22167866Y-34813219D01*
X22180654Y-34795976D01*
X22195070Y-34780070D01*
X22210976Y-34765654D01*
X22228219Y-34752866D01*
X22246632Y-34741830D01*
X22266038Y-34732651D01*
X22286250Y-34725419D01*
X22307074Y-34720203D01*
X22328309Y-34717053D01*
X22349750Y-34716000D01*
X22862250Y-34716000D01*
X22883691Y-34717053D01*
X22883691Y-34717053D01*
G37*
D15*
X22606000Y-35153500D03*
D13*
G36*
X22883691Y-36292053D02*
X22904926Y-36295203D01*
X22925750Y-36300419D01*
X22945962Y-36307651D01*
X22965368Y-36316830D01*
X22983781Y-36327866D01*
X23001024Y-36340654D01*
X23016930Y-36355070D01*
X23031346Y-36370976D01*
X23044134Y-36388219D01*
X23055170Y-36406632D01*
X23064349Y-36426038D01*
X23071581Y-36446250D01*
X23076797Y-36467074D01*
X23079947Y-36488309D01*
X23081000Y-36509750D01*
X23081000Y-36947250D01*
X23079947Y-36968691D01*
X23076797Y-36989926D01*
X23071581Y-37010750D01*
X23064349Y-37030962D01*
X23055170Y-37050368D01*
X23044134Y-37068781D01*
X23031346Y-37086024D01*
X23016930Y-37101930D01*
X23001024Y-37116346D01*
X22983781Y-37129134D01*
X22965368Y-37140170D01*
X22945962Y-37149349D01*
X22925750Y-37156581D01*
X22904926Y-37161797D01*
X22883691Y-37164947D01*
X22862250Y-37166000D01*
X22349750Y-37166000D01*
X22328309Y-37164947D01*
X22307074Y-37161797D01*
X22286250Y-37156581D01*
X22266038Y-37149349D01*
X22246632Y-37140170D01*
X22228219Y-37129134D01*
X22210976Y-37116346D01*
X22195070Y-37101930D01*
X22180654Y-37086024D01*
X22167866Y-37068781D01*
X22156830Y-37050368D01*
X22147651Y-37030962D01*
X22140419Y-37010750D01*
X22135203Y-36989926D01*
X22132053Y-36968691D01*
X22131000Y-36947250D01*
X22131000Y-36509750D01*
X22132053Y-36488309D01*
X22135203Y-36467074D01*
X22140419Y-36446250D01*
X22147651Y-36426038D01*
X22156830Y-36406632D01*
X22167866Y-36388219D01*
X22180654Y-36370976D01*
X22195070Y-36355070D01*
X22210976Y-36340654D01*
X22228219Y-36327866D01*
X22246632Y-36316830D01*
X22266038Y-36307651D01*
X22286250Y-36300419D01*
X22307074Y-36295203D01*
X22328309Y-36292053D01*
X22349750Y-36291000D01*
X22862250Y-36291000D01*
X22883691Y-36292053D01*
X22883691Y-36292053D01*
G37*
D15*
X22606000Y-36728500D03*
G04 #@! TD*
D13*
G04 #@! TO.C,VD1*
G36*
X22883691Y-39721053D02*
X22904926Y-39724203D01*
X22925750Y-39729419D01*
X22945962Y-39736651D01*
X22965368Y-39745830D01*
X22983781Y-39756866D01*
X23001024Y-39769654D01*
X23016930Y-39784070D01*
X23031346Y-39799976D01*
X23044134Y-39817219D01*
X23055170Y-39835632D01*
X23064349Y-39855038D01*
X23071581Y-39875250D01*
X23076797Y-39896074D01*
X23079947Y-39917309D01*
X23081000Y-39938750D01*
X23081000Y-40376250D01*
X23079947Y-40397691D01*
X23076797Y-40418926D01*
X23071581Y-40439750D01*
X23064349Y-40459962D01*
X23055170Y-40479368D01*
X23044134Y-40497781D01*
X23031346Y-40515024D01*
X23016930Y-40530930D01*
X23001024Y-40545346D01*
X22983781Y-40558134D01*
X22965368Y-40569170D01*
X22945962Y-40578349D01*
X22925750Y-40585581D01*
X22904926Y-40590797D01*
X22883691Y-40593947D01*
X22862250Y-40595000D01*
X22349750Y-40595000D01*
X22328309Y-40593947D01*
X22307074Y-40590797D01*
X22286250Y-40585581D01*
X22266038Y-40578349D01*
X22246632Y-40569170D01*
X22228219Y-40558134D01*
X22210976Y-40545346D01*
X22195070Y-40530930D01*
X22180654Y-40515024D01*
X22167866Y-40497781D01*
X22156830Y-40479368D01*
X22147651Y-40459962D01*
X22140419Y-40439750D01*
X22135203Y-40418926D01*
X22132053Y-40397691D01*
X22131000Y-40376250D01*
X22131000Y-39938750D01*
X22132053Y-39917309D01*
X22135203Y-39896074D01*
X22140419Y-39875250D01*
X22147651Y-39855038D01*
X22156830Y-39835632D01*
X22167866Y-39817219D01*
X22180654Y-39799976D01*
X22195070Y-39784070D01*
X22210976Y-39769654D01*
X22228219Y-39756866D01*
X22246632Y-39745830D01*
X22266038Y-39736651D01*
X22286250Y-39729419D01*
X22307074Y-39724203D01*
X22328309Y-39721053D01*
X22349750Y-39720000D01*
X22862250Y-39720000D01*
X22883691Y-39721053D01*
X22883691Y-39721053D01*
G37*
D15*
X22606000Y-40157500D03*
D13*
G36*
X22883691Y-38146053D02*
X22904926Y-38149203D01*
X22925750Y-38154419D01*
X22945962Y-38161651D01*
X22965368Y-38170830D01*
X22983781Y-38181866D01*
X23001024Y-38194654D01*
X23016930Y-38209070D01*
X23031346Y-38224976D01*
X23044134Y-38242219D01*
X23055170Y-38260632D01*
X23064349Y-38280038D01*
X23071581Y-38300250D01*
X23076797Y-38321074D01*
X23079947Y-38342309D01*
X23081000Y-38363750D01*
X23081000Y-38801250D01*
X23079947Y-38822691D01*
X23076797Y-38843926D01*
X23071581Y-38864750D01*
X23064349Y-38884962D01*
X23055170Y-38904368D01*
X23044134Y-38922781D01*
X23031346Y-38940024D01*
X23016930Y-38955930D01*
X23001024Y-38970346D01*
X22983781Y-38983134D01*
X22965368Y-38994170D01*
X22945962Y-39003349D01*
X22925750Y-39010581D01*
X22904926Y-39015797D01*
X22883691Y-39018947D01*
X22862250Y-39020000D01*
X22349750Y-39020000D01*
X22328309Y-39018947D01*
X22307074Y-39015797D01*
X22286250Y-39010581D01*
X22266038Y-39003349D01*
X22246632Y-38994170D01*
X22228219Y-38983134D01*
X22210976Y-38970346D01*
X22195070Y-38955930D01*
X22180654Y-38940024D01*
X22167866Y-38922781D01*
X22156830Y-38904368D01*
X22147651Y-38884962D01*
X22140419Y-38864750D01*
X22135203Y-38843926D01*
X22132053Y-38822691D01*
X22131000Y-38801250D01*
X22131000Y-38363750D01*
X22132053Y-38342309D01*
X22135203Y-38321074D01*
X22140419Y-38300250D01*
X22147651Y-38280038D01*
X22156830Y-38260632D01*
X22167866Y-38242219D01*
X22180654Y-38224976D01*
X22195070Y-38209070D01*
X22210976Y-38194654D01*
X22228219Y-38181866D01*
X22246632Y-38170830D01*
X22266038Y-38161651D01*
X22286250Y-38154419D01*
X22307074Y-38149203D01*
X22328309Y-38146053D01*
X22349750Y-38145000D01*
X22862250Y-38145000D01*
X22883691Y-38146053D01*
X22883691Y-38146053D01*
G37*
D15*
X22606000Y-38582500D03*
G04 #@! TD*
D13*
G04 #@! TO.C,C11*
G36*
X47128691Y-21370053D02*
X47149926Y-21373203D01*
X47170750Y-21378419D01*
X47190962Y-21385651D01*
X47210368Y-21394830D01*
X47228781Y-21405866D01*
X47246024Y-21418654D01*
X47261930Y-21433070D01*
X47276346Y-21448976D01*
X47289134Y-21466219D01*
X47300170Y-21484632D01*
X47309349Y-21504038D01*
X47316581Y-21524250D01*
X47321797Y-21545074D01*
X47324947Y-21566309D01*
X47326000Y-21587750D01*
X47326000Y-22100250D01*
X47324947Y-22121691D01*
X47321797Y-22142926D01*
X47316581Y-22163750D01*
X47309349Y-22183962D01*
X47300170Y-22203368D01*
X47289134Y-22221781D01*
X47276346Y-22239024D01*
X47261930Y-22254930D01*
X47246024Y-22269346D01*
X47228781Y-22282134D01*
X47210368Y-22293170D01*
X47190962Y-22302349D01*
X47170750Y-22309581D01*
X47149926Y-22314797D01*
X47128691Y-22317947D01*
X47107250Y-22319000D01*
X46669750Y-22319000D01*
X46648309Y-22317947D01*
X46627074Y-22314797D01*
X46606250Y-22309581D01*
X46586038Y-22302349D01*
X46566632Y-22293170D01*
X46548219Y-22282134D01*
X46530976Y-22269346D01*
X46515070Y-22254930D01*
X46500654Y-22239024D01*
X46487866Y-22221781D01*
X46476830Y-22203368D01*
X46467651Y-22183962D01*
X46460419Y-22163750D01*
X46455203Y-22142926D01*
X46452053Y-22121691D01*
X46451000Y-22100250D01*
X46451000Y-21587750D01*
X46452053Y-21566309D01*
X46455203Y-21545074D01*
X46460419Y-21524250D01*
X46467651Y-21504038D01*
X46476830Y-21484632D01*
X46487866Y-21466219D01*
X46500654Y-21448976D01*
X46515070Y-21433070D01*
X46530976Y-21418654D01*
X46548219Y-21405866D01*
X46566632Y-21394830D01*
X46586038Y-21385651D01*
X46606250Y-21378419D01*
X46627074Y-21373203D01*
X46648309Y-21370053D01*
X46669750Y-21369000D01*
X47107250Y-21369000D01*
X47128691Y-21370053D01*
X47128691Y-21370053D01*
G37*
D15*
X46888500Y-21844000D03*
D13*
G36*
X45553691Y-21370053D02*
X45574926Y-21373203D01*
X45595750Y-21378419D01*
X45615962Y-21385651D01*
X45635368Y-21394830D01*
X45653781Y-21405866D01*
X45671024Y-21418654D01*
X45686930Y-21433070D01*
X45701346Y-21448976D01*
X45714134Y-21466219D01*
X45725170Y-21484632D01*
X45734349Y-21504038D01*
X45741581Y-21524250D01*
X45746797Y-21545074D01*
X45749947Y-21566309D01*
X45751000Y-21587750D01*
X45751000Y-22100250D01*
X45749947Y-22121691D01*
X45746797Y-22142926D01*
X45741581Y-22163750D01*
X45734349Y-22183962D01*
X45725170Y-22203368D01*
X45714134Y-22221781D01*
X45701346Y-22239024D01*
X45686930Y-22254930D01*
X45671024Y-22269346D01*
X45653781Y-22282134D01*
X45635368Y-22293170D01*
X45615962Y-22302349D01*
X45595750Y-22309581D01*
X45574926Y-22314797D01*
X45553691Y-22317947D01*
X45532250Y-22319000D01*
X45094750Y-22319000D01*
X45073309Y-22317947D01*
X45052074Y-22314797D01*
X45031250Y-22309581D01*
X45011038Y-22302349D01*
X44991632Y-22293170D01*
X44973219Y-22282134D01*
X44955976Y-22269346D01*
X44940070Y-22254930D01*
X44925654Y-22239024D01*
X44912866Y-22221781D01*
X44901830Y-22203368D01*
X44892651Y-22183962D01*
X44885419Y-22163750D01*
X44880203Y-22142926D01*
X44877053Y-22121691D01*
X44876000Y-22100250D01*
X44876000Y-21587750D01*
X44877053Y-21566309D01*
X44880203Y-21545074D01*
X44885419Y-21524250D01*
X44892651Y-21504038D01*
X44901830Y-21484632D01*
X44912866Y-21466219D01*
X44925654Y-21448976D01*
X44940070Y-21433070D01*
X44955976Y-21418654D01*
X44973219Y-21405866D01*
X44991632Y-21394830D01*
X45011038Y-21385651D01*
X45031250Y-21378419D01*
X45052074Y-21373203D01*
X45073309Y-21370053D01*
X45094750Y-21369000D01*
X45532250Y-21369000D01*
X45553691Y-21370053D01*
X45553691Y-21370053D01*
G37*
D15*
X45313500Y-21844000D03*
G04 #@! TD*
M02*
