G04 #@! TF.GenerationSoftware,KiCad,Pcbnew,(5.0.0)*
G04 #@! TF.CreationDate,2019-01-26T11:16:20+03:00*
G04 #@! TF.ProjectId,stm32mc,73746D33326D632E6B696361645F7063,rev?*
G04 #@! TF.SameCoordinates,Original*
G04 #@! TF.FileFunction,Legend,Top*
G04 #@! TF.FilePolarity,Positive*
%FSLAX46Y46*%
G04 Gerber Fmt 4.6, Leading zero omitted, Abs format (unit mm)*
G04 Created by KiCad (PCBNEW (5.0.0)) date 01/26/19 11:16:20*
%MOMM*%
%LPD*%
G01*
G04 APERTURE LIST*
%ADD10C,0.150000*%
%ADD11C,0.120000*%
G04 APERTURE END LIST*
D10*
X58531000Y-19050000D02*
G75*
G03X58531000Y-19050000I-1000000J0D01*
G01*
X32512000Y-40386000D02*
G75*
G03X32512000Y-40386000I-1000000J0D01*
G01*
X59055000Y-42291000D02*
X59055000Y-17526000D01*
X59024000Y-17507000D02*
X21082000Y-17526000D01*
X21082000Y-42291000D02*
X59055000Y-42291000D01*
X21082000Y-17526000D02*
X21082000Y-42291000D01*
G04 #@! TO.C,D1*
X14778000Y-31408000D02*
X14778000Y-32908000D01*
X14778000Y-32908000D02*
X17028000Y-32908000D01*
X17028000Y-18908000D02*
X14778000Y-18908000D01*
X42528000Y-19908000D02*
X42528000Y-18908000D01*
X42528000Y-18908000D02*
X41528000Y-18908000D01*
X42528000Y-31908000D02*
X42528000Y-32908000D01*
X42528000Y-32908000D02*
X41528000Y-32908000D01*
X14778000Y-18908000D02*
X14778000Y-20408000D01*
D11*
G04 #@! TO.C,C1*
X48096000Y-33241064D02*
X48096000Y-32036936D01*
X45376000Y-33241064D02*
X45376000Y-32036936D01*
G04 #@! TO.C,C5*
X43178000Y-27340779D02*
X43178000Y-27015221D01*
X44198000Y-27340779D02*
X44198000Y-27015221D01*
G04 #@! TO.C,C6*
X45122000Y-27780064D02*
X45122000Y-26575936D01*
X47842000Y-27780064D02*
X47842000Y-26575936D01*
G04 #@! TO.C,U1*
X55885000Y-32112000D02*
X55885000Y-30852000D01*
X55885000Y-25292000D02*
X55885000Y-26552000D01*
X52125000Y-32112000D02*
X55885000Y-32112000D01*
X49875000Y-25292000D02*
X55885000Y-25292000D01*
G04 #@! TO.C,R16*
X23116000Y-35778221D02*
X23116000Y-36103779D01*
X22096000Y-35778221D02*
X22096000Y-36103779D01*
G04 #@! TO.C,VD1*
X21871000Y-38570000D02*
X21871000Y-40855000D01*
X21871000Y-40855000D02*
X23341000Y-40855000D01*
X23341000Y-40855000D02*
X23341000Y-38570000D01*
G04 #@! TO.C,C11*
X46263779Y-22354000D02*
X45938221Y-22354000D01*
X46263779Y-21334000D02*
X45938221Y-21334000D01*
G04 #@! TO.C,J6*
X43501000Y-18037500D02*
X43501000Y-20697500D01*
X53721000Y-18037500D02*
X43501000Y-18037500D01*
X53721000Y-20697500D02*
X43501000Y-20697500D01*
X53721000Y-18037500D02*
X53721000Y-20697500D01*
X54991000Y-18037500D02*
X56321000Y-18037500D01*
X56321000Y-18037500D02*
X56321000Y-19367500D01*
G04 #@! TD*
G04 #@! TO.C,D1*
D10*
X23058380Y-26392095D02*
X22058380Y-26392095D01*
X22058380Y-26154000D01*
X22106000Y-26011142D01*
X22201238Y-25915904D01*
X22296476Y-25868285D01*
X22486952Y-25820666D01*
X22629809Y-25820666D01*
X22820285Y-25868285D01*
X22915523Y-25915904D01*
X23010761Y-26011142D01*
X23058380Y-26154000D01*
X23058380Y-26392095D01*
X23058380Y-24868285D02*
X23058380Y-25439714D01*
X23058380Y-25154000D02*
X22058380Y-25154000D01*
X22201238Y-25249238D01*
X22296476Y-25344476D01*
X22344095Y-25439714D01*
G04 #@! TO.C,C1*
X44593142Y-32555666D02*
X44640761Y-32603285D01*
X44688380Y-32746142D01*
X44688380Y-32841380D01*
X44640761Y-32984238D01*
X44545523Y-33079476D01*
X44450285Y-33127095D01*
X44259809Y-33174714D01*
X44116952Y-33174714D01*
X43926476Y-33127095D01*
X43831238Y-33079476D01*
X43736000Y-32984238D01*
X43688380Y-32841380D01*
X43688380Y-32746142D01*
X43736000Y-32603285D01*
X43783619Y-32555666D01*
X44688380Y-31603285D02*
X44688380Y-32174714D01*
X44688380Y-31889000D02*
X43688380Y-31889000D01*
X43831238Y-31984238D01*
X43926476Y-32079476D01*
X43974095Y-32174714D01*
G04 #@! TO.C,C5*
X42521142Y-27281166D02*
X42568761Y-27328785D01*
X42616380Y-27471642D01*
X42616380Y-27566880D01*
X42568761Y-27709738D01*
X42473523Y-27804976D01*
X42378285Y-27852595D01*
X42187809Y-27900214D01*
X42044952Y-27900214D01*
X41854476Y-27852595D01*
X41759238Y-27804976D01*
X41664000Y-27709738D01*
X41616380Y-27566880D01*
X41616380Y-27471642D01*
X41664000Y-27328785D01*
X41711619Y-27281166D01*
X41616380Y-26376404D02*
X41616380Y-26852595D01*
X42092571Y-26900214D01*
X42044952Y-26852595D01*
X41997333Y-26757357D01*
X41997333Y-26519261D01*
X42044952Y-26424023D01*
X42092571Y-26376404D01*
X42187809Y-26328785D01*
X42425904Y-26328785D01*
X42521142Y-26376404D01*
X42568761Y-26424023D01*
X42616380Y-26519261D01*
X42616380Y-26757357D01*
X42568761Y-26852595D01*
X42521142Y-26900214D01*
G04 #@! TO.C,C6*
X49218142Y-27268666D02*
X49265761Y-27316285D01*
X49313380Y-27459142D01*
X49313380Y-27554380D01*
X49265761Y-27697238D01*
X49170523Y-27792476D01*
X49075285Y-27840095D01*
X48884809Y-27887714D01*
X48741952Y-27887714D01*
X48551476Y-27840095D01*
X48456238Y-27792476D01*
X48361000Y-27697238D01*
X48313380Y-27554380D01*
X48313380Y-27459142D01*
X48361000Y-27316285D01*
X48408619Y-27268666D01*
X48313380Y-26411523D02*
X48313380Y-26602000D01*
X48361000Y-26697238D01*
X48408619Y-26744857D01*
X48551476Y-26840095D01*
X48741952Y-26887714D01*
X49122904Y-26887714D01*
X49218142Y-26840095D01*
X49265761Y-26792476D01*
X49313380Y-26697238D01*
X49313380Y-26506761D01*
X49265761Y-26411523D01*
X49218142Y-26363904D01*
X49122904Y-26316285D01*
X48884809Y-26316285D01*
X48789571Y-26363904D01*
X48741952Y-26411523D01*
X48694333Y-26506761D01*
X48694333Y-26697238D01*
X48741952Y-26792476D01*
X48789571Y-26840095D01*
X48884809Y-26887714D01*
G04 #@! TO.C,U1*
X53213095Y-23869380D02*
X53213095Y-24678904D01*
X53260714Y-24774142D01*
X53308333Y-24821761D01*
X53403571Y-24869380D01*
X53594047Y-24869380D01*
X53689285Y-24821761D01*
X53736904Y-24774142D01*
X53784523Y-24678904D01*
X53784523Y-23869380D01*
X54784523Y-24869380D02*
X54213095Y-24869380D01*
X54498809Y-24869380D02*
X54498809Y-23869380D01*
X54403571Y-24012238D01*
X54308333Y-24107476D01*
X54213095Y-24155095D01*
G04 #@! TO.C,R16*
X24668380Y-36583857D02*
X24192190Y-36917190D01*
X24668380Y-37155285D02*
X23668380Y-37155285D01*
X23668380Y-36774333D01*
X23716000Y-36679095D01*
X23763619Y-36631476D01*
X23858857Y-36583857D01*
X24001714Y-36583857D01*
X24096952Y-36631476D01*
X24144571Y-36679095D01*
X24192190Y-36774333D01*
X24192190Y-37155285D01*
X24668380Y-35631476D02*
X24668380Y-36202904D01*
X24668380Y-35917190D02*
X23668380Y-35917190D01*
X23811238Y-36012428D01*
X23906476Y-36107666D01*
X23954095Y-36202904D01*
X23668380Y-34774333D02*
X23668380Y-34964809D01*
X23716000Y-35060047D01*
X23763619Y-35107666D01*
X23906476Y-35202904D01*
X24096952Y-35250523D01*
X24477904Y-35250523D01*
X24573142Y-35202904D01*
X24620761Y-35155285D01*
X24668380Y-35060047D01*
X24668380Y-34869571D01*
X24620761Y-34774333D01*
X24573142Y-34726714D01*
X24477904Y-34679095D01*
X24239809Y-34679095D01*
X24144571Y-34726714D01*
X24096952Y-34774333D01*
X24049333Y-34869571D01*
X24049333Y-35060047D01*
X24096952Y-35155285D01*
X24144571Y-35202904D01*
X24239809Y-35250523D01*
G04 #@! TO.C,VD1*
X23922380Y-40441523D02*
X24922380Y-40108190D01*
X23922380Y-39774857D01*
X24922380Y-39441523D02*
X23922380Y-39441523D01*
X23922380Y-39203428D01*
X23970000Y-39060571D01*
X24065238Y-38965333D01*
X24160476Y-38917714D01*
X24350952Y-38870095D01*
X24493809Y-38870095D01*
X24684285Y-38917714D01*
X24779523Y-38965333D01*
X24874761Y-39060571D01*
X24922380Y-39203428D01*
X24922380Y-39441523D01*
X24922380Y-37917714D02*
X24922380Y-38489142D01*
X24922380Y-38203428D02*
X23922380Y-38203428D01*
X24065238Y-38298666D01*
X24160476Y-38393904D01*
X24208095Y-38489142D01*
G04 #@! TO.C,C11*
X45458142Y-23631142D02*
X45410523Y-23678761D01*
X45267666Y-23726380D01*
X45172428Y-23726380D01*
X45029571Y-23678761D01*
X44934333Y-23583523D01*
X44886714Y-23488285D01*
X44839095Y-23297809D01*
X44839095Y-23154952D01*
X44886714Y-22964476D01*
X44934333Y-22869238D01*
X45029571Y-22774000D01*
X45172428Y-22726380D01*
X45267666Y-22726380D01*
X45410523Y-22774000D01*
X45458142Y-22821619D01*
X46410523Y-23726380D02*
X45839095Y-23726380D01*
X46124809Y-23726380D02*
X46124809Y-22726380D01*
X46029571Y-22869238D01*
X45934333Y-22964476D01*
X45839095Y-23012095D01*
X47362904Y-23726380D02*
X46791476Y-23726380D01*
X47077190Y-23726380D02*
X47077190Y-22726380D01*
X46981952Y-22869238D01*
X46886714Y-22964476D01*
X46791476Y-23012095D01*
G04 #@! TO.C,J6*
X52498666Y-21232880D02*
X52498666Y-21947166D01*
X52451047Y-22090023D01*
X52355809Y-22185261D01*
X52212952Y-22232880D01*
X52117714Y-22232880D01*
X53403428Y-21232880D02*
X53212952Y-21232880D01*
X53117714Y-21280500D01*
X53070095Y-21328119D01*
X52974857Y-21470976D01*
X52927238Y-21661452D01*
X52927238Y-22042404D01*
X52974857Y-22137642D01*
X53022476Y-22185261D01*
X53117714Y-22232880D01*
X53308190Y-22232880D01*
X53403428Y-22185261D01*
X53451047Y-22137642D01*
X53498666Y-22042404D01*
X53498666Y-21804309D01*
X53451047Y-21709071D01*
X53403428Y-21661452D01*
X53308190Y-21613833D01*
X53117714Y-21613833D01*
X53022476Y-21661452D01*
X52974857Y-21709071D01*
X52927238Y-21804309D01*
G04 #@! TD*
M02*
