G04 #@! TF.GenerationSoftware,KiCad,Pcbnew,(5.0.0)*
G04 #@! TF.CreationDate,2019-01-26T11:16:20+03:00*
G04 #@! TF.ProjectId,stm32mc,73746D33326D632E6B696361645F7063,rev?*
G04 #@! TF.SameCoordinates,Original*
G04 #@! TF.FileFunction,Other,User*
%FSLAX46Y46*%
G04 Gerber Fmt 4.6, Leading zero omitted, Abs format (unit mm)*
G04 Created by KiCad (PCBNEW (5.0.0)) date 01/26/19 11:16:20*
%MOMM*%
%LPD*%
G01*
G04 APERTURE LIST*
%ADD10C,0.150000*%
%ADD11C,0.050000*%
G04 APERTURE END LIST*
D10*
X58531000Y-19050000D02*
G75*
G03X58531000Y-19050000I-1000000J0D01*
G01*
X32512000Y-40386000D02*
G75*
G03X32512000Y-40386000I-1000000J0D01*
G01*
X59055000Y-42291000D02*
X59055000Y-17526000D01*
X59024000Y-17507000D02*
X21082000Y-17526000D01*
X21082000Y-42291000D02*
X59055000Y-42291000D01*
X21082000Y-17526000D02*
X21082000Y-42291000D01*
D11*
G04 #@! TO.C,D1*
X43528000Y-33658000D02*
X43528000Y-18158000D01*
X43528000Y-18158000D02*
X14528000Y-18158000D01*
X14528000Y-18158000D02*
X14528000Y-33658000D01*
X14528000Y-33658000D02*
X43528000Y-33658000D01*
G04 #@! TO.C,C1*
X48316000Y-30359000D02*
X48316000Y-34919000D01*
X45156000Y-30359000D02*
X48316000Y-30359000D01*
X45156000Y-34919000D02*
X45156000Y-30359000D01*
X48316000Y-34919000D02*
X45156000Y-34919000D01*
G04 #@! TO.C,C5*
X44418000Y-28658000D02*
X42958000Y-28658000D01*
X42958000Y-28658000D02*
X42958000Y-25698000D01*
X42958000Y-25698000D02*
X44418000Y-25698000D01*
X44418000Y-25698000D02*
X44418000Y-28658000D01*
G04 #@! TO.C,C6*
X48062000Y-29458000D02*
X44902000Y-29458000D01*
X44902000Y-29458000D02*
X44902000Y-24898000D01*
X44902000Y-24898000D02*
X48062000Y-24898000D01*
X48062000Y-24898000D02*
X48062000Y-29458000D01*
G04 #@! TO.C,U1*
X58375000Y-25102000D02*
X49575000Y-25102000D01*
X58375000Y-32302000D02*
X58375000Y-25102000D01*
X49575000Y-32302000D02*
X58375000Y-32302000D01*
X49575000Y-25102000D02*
X49575000Y-32302000D01*
G04 #@! TO.C,R16*
X21876000Y-34461000D02*
X23336000Y-34461000D01*
X23336000Y-34461000D02*
X23336000Y-37421000D01*
X23336000Y-37421000D02*
X21876000Y-37421000D01*
X21876000Y-37421000D02*
X21876000Y-34461000D01*
G04 #@! TO.C,VD1*
X23336000Y-40850000D02*
X21876000Y-40850000D01*
X21876000Y-40850000D02*
X21876000Y-37890000D01*
X21876000Y-37890000D02*
X23336000Y-37890000D01*
X23336000Y-37890000D02*
X23336000Y-40850000D01*
G04 #@! TO.C,C11*
X47581000Y-21114000D02*
X47581000Y-22574000D01*
X47581000Y-22574000D02*
X44621000Y-22574000D01*
X44621000Y-22574000D02*
X44621000Y-21114000D01*
X44621000Y-21114000D02*
X47581000Y-21114000D01*
G04 #@! TO.C,J6*
X56791000Y-17567500D02*
X43041000Y-17567500D01*
X43041000Y-17567500D02*
X43041000Y-21167500D01*
X43041000Y-21167500D02*
X56791000Y-21167500D01*
X56791000Y-21167500D02*
X56791000Y-17567500D01*
G04 #@! TD*
M02*
