G04 #@! TF.GenerationSoftware,KiCad,Pcbnew,(5.0.0)*
G04 #@! TF.CreationDate,2019-01-26T11:16:20+03:00*
G04 #@! TF.ProjectId,stm32mc,73746D33326D632E6B696361645F7063,rev?*
G04 #@! TF.SameCoordinates,Original*
G04 #@! TF.FileFunction,Other,User*
%FSLAX46Y46*%
G04 Gerber Fmt 4.6, Leading zero omitted, Abs format (unit mm)*
G04 Created by KiCad (PCBNEW (5.0.0)) date 01/26/19 11:16:20*
%MOMM*%
%LPD*%
G01*
G04 APERTURE LIST*
%ADD10C,0.150000*%
%ADD11C,0.050000*%
G04 APERTURE END LIST*
D10*
X58531000Y-19050000D02*
G75*
G03X58531000Y-19050000I-1000000J0D01*
G01*
X32512000Y-40386000D02*
G75*
G03X32512000Y-40386000I-1000000J0D01*
G01*
X59055000Y-42291000D02*
X59055000Y-17526000D01*
X59024000Y-17507000D02*
X21082000Y-17526000D01*
X21082000Y-42291000D02*
X59055000Y-42291000D01*
X21082000Y-17526000D02*
X21082000Y-42291000D01*
D11*
G04 #@! TO.C,C4*
X42755000Y-29432000D02*
X42755000Y-27972000D01*
X42755000Y-27972000D02*
X39795000Y-27972000D01*
X39795000Y-27972000D02*
X39795000Y-29432000D01*
X39795000Y-29432000D02*
X42755000Y-29432000D01*
G04 #@! TO.C,R9*
X36036000Y-19856000D02*
X34576000Y-19856000D01*
X34576000Y-19856000D02*
X34576000Y-22816000D01*
X34576000Y-22816000D02*
X36036000Y-22816000D01*
X36036000Y-22816000D02*
X36036000Y-19856000D01*
G04 #@! TO.C,C3*
X39769500Y-31083000D02*
X42729500Y-31083000D01*
X39769500Y-29623000D02*
X39769500Y-31083000D01*
X42729500Y-29623000D02*
X39769500Y-29623000D01*
X42729500Y-31083000D02*
X42729500Y-29623000D01*
G04 #@! TO.C,R1*
X36354000Y-22841500D02*
X37814000Y-22841500D01*
X37814000Y-22841500D02*
X37814000Y-19881500D01*
X37814000Y-19881500D02*
X36354000Y-19881500D01*
X36354000Y-19881500D02*
X36354000Y-22841500D01*
G04 #@! TO.C,C2*
X41065000Y-34766000D02*
X44025000Y-34766000D01*
X41065000Y-33306000D02*
X41065000Y-34766000D01*
X44025000Y-33306000D02*
X41065000Y-33306000D01*
X44025000Y-34766000D02*
X44025000Y-33306000D01*
G04 #@! TO.C,R2*
X27349000Y-36417000D02*
X30309000Y-36417000D01*
X27349000Y-34957000D02*
X27349000Y-36417000D01*
X30309000Y-34957000D02*
X27349000Y-34957000D01*
X30309000Y-36417000D02*
X30309000Y-34957000D01*
G04 #@! TO.C,R3*
X57753000Y-21380000D02*
X56293000Y-21380000D01*
X56293000Y-21380000D02*
X56293000Y-24340000D01*
X56293000Y-24340000D02*
X57753000Y-24340000D01*
X57753000Y-24340000D02*
X57753000Y-21380000D01*
G04 #@! TO.C,R4*
X55848000Y-24340000D02*
X55848000Y-21380000D01*
X54388000Y-24340000D02*
X55848000Y-24340000D01*
X54388000Y-21380000D02*
X54388000Y-24340000D01*
X55848000Y-21380000D02*
X54388000Y-21380000D01*
G04 #@! TO.C,R5*
X48343000Y-27972000D02*
X45383000Y-27972000D01*
X48343000Y-29432000D02*
X48343000Y-27972000D01*
X45383000Y-29432000D02*
X48343000Y-29432000D01*
X45383000Y-27972000D02*
X45383000Y-29432000D01*
G04 #@! TO.C,R6*
X48482000Y-24936000D02*
X47022000Y-24936000D01*
X47022000Y-24936000D02*
X47022000Y-27896000D01*
X47022000Y-27896000D02*
X48482000Y-27896000D01*
X48482000Y-27896000D02*
X48482000Y-24936000D01*
G04 #@! TO.C,R7*
X54070000Y-21380000D02*
X52610000Y-21380000D01*
X52610000Y-21380000D02*
X52610000Y-24340000D01*
X52610000Y-24340000D02*
X54070000Y-24340000D01*
X54070000Y-24340000D02*
X54070000Y-21380000D01*
G04 #@! TO.C,U2*
X27223000Y-33341000D02*
X26603000Y-33341000D01*
X26603000Y-32721000D02*
X26603000Y-33341000D01*
X27223000Y-34841000D02*
X27223000Y-33341000D01*
X35603000Y-26461000D02*
X35603000Y-32721000D01*
X25103000Y-26461000D02*
X25103000Y-32721000D01*
X33483000Y-24341000D02*
X27223000Y-24341000D01*
X33483000Y-34841000D02*
X27223000Y-34841000D01*
X26603000Y-32721000D02*
X25103000Y-32721000D01*
X26603000Y-26461000D02*
X25103000Y-26461000D01*
X27223000Y-25841000D02*
X27223000Y-24341000D01*
X33483000Y-25841000D02*
X33483000Y-24341000D01*
X34103000Y-26461000D02*
X35603000Y-26461000D01*
X34103000Y-32721000D02*
X35603000Y-32721000D01*
X33483000Y-33341000D02*
X33483000Y-34841000D01*
X27223000Y-25841000D02*
X26603000Y-25841000D01*
X26603000Y-26461000D02*
X26603000Y-25841000D01*
X34103000Y-32721000D02*
X34103000Y-33341000D01*
X33483000Y-33341000D02*
X34103000Y-33341000D01*
X34103000Y-26461000D02*
X34103000Y-25841000D01*
X33483000Y-25841000D02*
X34103000Y-25841000D01*
G04 #@! TO.C,U3*
X52246000Y-27864000D02*
X52246000Y-23524000D01*
X52246000Y-27864000D02*
X48846000Y-27864000D01*
X48846000Y-23524000D02*
X52246000Y-23524000D01*
X48846000Y-23524000D02*
X48846000Y-27864000D01*
G04 #@! TO.C,Y1*
X40000000Y-32183000D02*
X36200000Y-32183000D01*
X36200000Y-32183000D02*
X36200000Y-25983000D01*
X36200000Y-25983000D02*
X40000000Y-25983000D01*
X40000000Y-25983000D02*
X40000000Y-32183000D01*
G04 #@! TO.C,R8*
X46907000Y-39783000D02*
X46907000Y-41243000D01*
X46907000Y-41243000D02*
X49867000Y-41243000D01*
X49867000Y-41243000D02*
X49867000Y-39783000D01*
X49867000Y-39783000D02*
X46907000Y-39783000D01*
G04 #@! TO.C,C7*
X23971000Y-25063000D02*
X22511000Y-25063000D01*
X22511000Y-25063000D02*
X22511000Y-28023000D01*
X22511000Y-28023000D02*
X23971000Y-28023000D01*
X23971000Y-28023000D02*
X23971000Y-25063000D01*
G04 #@! TO.C,C8*
X56293000Y-24682000D02*
X56293000Y-27642000D01*
X57753000Y-24682000D02*
X56293000Y-24682000D01*
X57753000Y-27642000D02*
X57753000Y-24682000D01*
X56293000Y-27642000D02*
X57753000Y-27642000D01*
G04 #@! TO.C,C9*
X54388000Y-27642000D02*
X55848000Y-27642000D01*
X55848000Y-27642000D02*
X55848000Y-24682000D01*
X55848000Y-24682000D02*
X54388000Y-24682000D01*
X54388000Y-24682000D02*
X54388000Y-27642000D01*
G04 #@! TO.C,C10*
X45371000Y-27896000D02*
X46831000Y-27896000D01*
X46831000Y-27896000D02*
X46831000Y-24936000D01*
X46831000Y-24936000D02*
X45371000Y-24936000D01*
X45371000Y-24936000D02*
X45371000Y-27896000D01*
G04 #@! TO.C,R10*
X23209000Y-33699000D02*
X21749000Y-33699000D01*
X21749000Y-33699000D02*
X21749000Y-36659000D01*
X21749000Y-36659000D02*
X23209000Y-36659000D01*
X23209000Y-36659000D02*
X23209000Y-33699000D01*
G04 #@! TO.C,R11*
X24733000Y-33699000D02*
X23273000Y-33699000D01*
X23273000Y-33699000D02*
X23273000Y-36659000D01*
X23273000Y-36659000D02*
X24733000Y-36659000D01*
X24733000Y-36659000D02*
X24733000Y-33699000D01*
G04 #@! TO.C,R12*
X26384000Y-36659000D02*
X26384000Y-33699000D01*
X24924000Y-36659000D02*
X26384000Y-36659000D01*
X24924000Y-33699000D02*
X24924000Y-36659000D01*
X26384000Y-33699000D02*
X24924000Y-33699000D01*
G04 #@! TO.C,J2*
X48721000Y-29871000D02*
X58721000Y-29871000D01*
X48721000Y-44671000D02*
X58721000Y-44671000D01*
X48721000Y-44671000D02*
X48721000Y-29871000D01*
X58721000Y-44671000D02*
X58721000Y-29871000D01*
G04 #@! TO.C,J7*
X21308000Y-43524000D02*
X30508000Y-43524000D01*
X21308000Y-36924000D02*
X21308000Y-43524000D01*
X30508000Y-36924000D02*
X21308000Y-36924000D01*
X30508000Y-43524000D02*
X30508000Y-36924000D01*
G04 #@! TO.C,U4*
X46333000Y-33688000D02*
X46333000Y-38448000D01*
X46333000Y-33688000D02*
X49933000Y-33688000D01*
X49933000Y-38448000D02*
X46333000Y-38448000D01*
X49933000Y-38448000D02*
X49933000Y-33688000D01*
G04 #@! TO.C,J4*
X45979000Y-35165000D02*
X45979000Y-45965000D01*
X45979000Y-45965000D02*
X32079000Y-45965000D01*
X32079000Y-45965000D02*
X32079000Y-35165000D01*
X32079000Y-35165000D02*
X45979000Y-35165000D01*
G04 #@! TO.C,J3*
X22341000Y-23893000D02*
X22341000Y-17093000D01*
X22341000Y-17093000D02*
X34301000Y-17093000D01*
X34301000Y-17093000D02*
X34301000Y-23893000D01*
X34301000Y-23893000D02*
X22341000Y-23893000D01*
G04 #@! TO.C,R13*
X38779000Y-19844000D02*
X38779000Y-21304000D01*
X38779000Y-21304000D02*
X41739000Y-21304000D01*
X41739000Y-21304000D02*
X41739000Y-19844000D01*
X41739000Y-19844000D02*
X38779000Y-19844000D01*
G04 #@! TD*
M02*
