G04 #@! TF.GenerationSoftware,KiCad,Pcbnew,(5.0.0)*
G04 #@! TF.CreationDate,2019-01-26T11:16:20+03:00*
G04 #@! TF.ProjectId,stm32mc,73746D33326D632E6B696361645F7063,rev?*
G04 #@! TF.SameCoordinates,Original*
G04 #@! TF.FileFunction,Drawing*
%FSLAX46Y46*%
G04 Gerber Fmt 4.6, Leading zero omitted, Abs format (unit mm)*
G04 Created by KiCad (PCBNEW (5.0.0)) date 01/26/19 11:16:20*
%MOMM*%
%LPD*%
G01*
G04 APERTURE LIST*
%ADD10C,0.150000*%
%ADD11C,0.040000*%
G04 APERTURE END LIST*
D10*
X58531000Y-19050000D02*
G75*
G03X58531000Y-19050000I-1000000J0D01*
G01*
X32512000Y-40386000D02*
G75*
G03X32512000Y-40386000I-1000000J0D01*
G01*
X59055000Y-42291000D02*
X59055000Y-17526000D01*
X59024000Y-17507000D02*
X21082000Y-17526000D01*
X21082000Y-42291000D02*
X59055000Y-42291000D01*
X21082000Y-17526000D02*
X21082000Y-42291000D01*
G04 #@! TO.C,J7*
D11*
X24536571Y-42474952D02*
X24536571Y-42074952D01*
X24688952Y-42074952D01*
X24727047Y-42094000D01*
X24746095Y-42113047D01*
X24765142Y-42151142D01*
X24765142Y-42208285D01*
X24746095Y-42246380D01*
X24727047Y-42265428D01*
X24688952Y-42284476D01*
X24536571Y-42284476D01*
X25165142Y-42436857D02*
X25146095Y-42455904D01*
X25088952Y-42474952D01*
X25050857Y-42474952D01*
X24993714Y-42455904D01*
X24955619Y-42417809D01*
X24936571Y-42379714D01*
X24917523Y-42303523D01*
X24917523Y-42246380D01*
X24936571Y-42170190D01*
X24955619Y-42132095D01*
X24993714Y-42094000D01*
X25050857Y-42074952D01*
X25088952Y-42074952D01*
X25146095Y-42094000D01*
X25165142Y-42113047D01*
X25469904Y-42265428D02*
X25527047Y-42284476D01*
X25546095Y-42303523D01*
X25565142Y-42341619D01*
X25565142Y-42398761D01*
X25546095Y-42436857D01*
X25527047Y-42455904D01*
X25488952Y-42474952D01*
X25336571Y-42474952D01*
X25336571Y-42074952D01*
X25469904Y-42074952D01*
X25508000Y-42094000D01*
X25527047Y-42113047D01*
X25546095Y-42151142D01*
X25546095Y-42189238D01*
X25527047Y-42227333D01*
X25508000Y-42246380D01*
X25469904Y-42265428D01*
X25336571Y-42265428D01*
X26041333Y-42265428D02*
X26174666Y-42265428D01*
X26231809Y-42474952D02*
X26041333Y-42474952D01*
X26041333Y-42074952D01*
X26231809Y-42074952D01*
X26574666Y-42474952D02*
X26574666Y-42074952D01*
X26574666Y-42455904D02*
X26536571Y-42474952D01*
X26460380Y-42474952D01*
X26422285Y-42455904D01*
X26403238Y-42436857D01*
X26384190Y-42398761D01*
X26384190Y-42284476D01*
X26403238Y-42246380D01*
X26422285Y-42227333D01*
X26460380Y-42208285D01*
X26536571Y-42208285D01*
X26574666Y-42227333D01*
X26936571Y-42208285D02*
X26936571Y-42532095D01*
X26917523Y-42570190D01*
X26898476Y-42589238D01*
X26860380Y-42608285D01*
X26803238Y-42608285D01*
X26765142Y-42589238D01*
X26936571Y-42455904D02*
X26898476Y-42474952D01*
X26822285Y-42474952D01*
X26784190Y-42455904D01*
X26765142Y-42436857D01*
X26746095Y-42398761D01*
X26746095Y-42284476D01*
X26765142Y-42246380D01*
X26784190Y-42227333D01*
X26822285Y-42208285D01*
X26898476Y-42208285D01*
X26936571Y-42227333D01*
X27279428Y-42455904D02*
X27241333Y-42474952D01*
X27165142Y-42474952D01*
X27127047Y-42455904D01*
X27108000Y-42417809D01*
X27108000Y-42265428D01*
X27127047Y-42227333D01*
X27165142Y-42208285D01*
X27241333Y-42208285D01*
X27279428Y-42227333D01*
X27298476Y-42265428D01*
X27298476Y-42303523D01*
X27108000Y-42341619D01*
G04 #@! TD*
M02*
