G04 #@! TF.GenerationSoftware,KiCad,Pcbnew,(5.0.0)*
G04 #@! TF.CreationDate,2019-01-26T11:16:20+03:00*
G04 #@! TF.ProjectId,stm32mc,73746D33326D632E6B696361645F7063,rev?*
G04 #@! TF.SameCoordinates,Original*
G04 #@! TF.FileFunction,Other,Fab,Bot*
%FSLAX46Y46*%
G04 Gerber Fmt 4.6, Leading zero omitted, Abs format (unit mm)*
G04 Created by KiCad (PCBNEW (5.0.0)) date 01/26/19 11:16:20*
%MOMM*%
%LPD*%
G01*
G04 APERTURE LIST*
%ADD10C,0.150000*%
%ADD11C,0.100000*%
%ADD12C,0.120000*%
%ADD13C,0.060000*%
%ADD14C,0.075000*%
G04 APERTURE END LIST*
D10*
X58531000Y-19050000D02*
G75*
G03X58531000Y-19050000I-1000000J0D01*
G01*
X32512000Y-40386000D02*
G75*
G03X32512000Y-40386000I-1000000J0D01*
G01*
X59055000Y-42291000D02*
X59055000Y-17526000D01*
X59024000Y-17507000D02*
X21082000Y-17526000D01*
X21082000Y-42291000D02*
X59055000Y-42291000D01*
X21082000Y-17526000D02*
X21082000Y-42291000D01*
D11*
G04 #@! TO.C,C4*
X42075000Y-29102000D02*
X42075000Y-28302000D01*
X42075000Y-28302000D02*
X40475000Y-28302000D01*
X40475000Y-28302000D02*
X40475000Y-29102000D01*
X40475000Y-29102000D02*
X42075000Y-29102000D01*
G04 #@! TO.C,R9*
X35706000Y-20536000D02*
X34906000Y-20536000D01*
X34906000Y-20536000D02*
X34906000Y-22136000D01*
X34906000Y-22136000D02*
X35706000Y-22136000D01*
X35706000Y-22136000D02*
X35706000Y-20536000D01*
G04 #@! TO.C,C3*
X40449500Y-30753000D02*
X42049500Y-30753000D01*
X40449500Y-29953000D02*
X40449500Y-30753000D01*
X42049500Y-29953000D02*
X40449500Y-29953000D01*
X42049500Y-30753000D02*
X42049500Y-29953000D01*
G04 #@! TO.C,R1*
X36684000Y-22161500D02*
X37484000Y-22161500D01*
X37484000Y-22161500D02*
X37484000Y-20561500D01*
X37484000Y-20561500D02*
X36684000Y-20561500D01*
X36684000Y-20561500D02*
X36684000Y-22161500D01*
G04 #@! TO.C,C2*
X41745000Y-34436000D02*
X43345000Y-34436000D01*
X41745000Y-33636000D02*
X41745000Y-34436000D01*
X43345000Y-33636000D02*
X41745000Y-33636000D01*
X43345000Y-34436000D02*
X43345000Y-33636000D01*
G04 #@! TO.C,R2*
X28029000Y-36087000D02*
X29629000Y-36087000D01*
X28029000Y-35287000D02*
X28029000Y-36087000D01*
X29629000Y-35287000D02*
X28029000Y-35287000D01*
X29629000Y-36087000D02*
X29629000Y-35287000D01*
G04 #@! TO.C,R3*
X57423000Y-22060000D02*
X56623000Y-22060000D01*
X56623000Y-22060000D02*
X56623000Y-23660000D01*
X56623000Y-23660000D02*
X57423000Y-23660000D01*
X57423000Y-23660000D02*
X57423000Y-22060000D01*
G04 #@! TO.C,R4*
X55518000Y-23660000D02*
X55518000Y-22060000D01*
X54718000Y-23660000D02*
X55518000Y-23660000D01*
X54718000Y-22060000D02*
X54718000Y-23660000D01*
X55518000Y-22060000D02*
X54718000Y-22060000D01*
G04 #@! TO.C,R5*
X47663000Y-28302000D02*
X46063000Y-28302000D01*
X47663000Y-29102000D02*
X47663000Y-28302000D01*
X46063000Y-29102000D02*
X47663000Y-29102000D01*
X46063000Y-28302000D02*
X46063000Y-29102000D01*
G04 #@! TO.C,R6*
X48152000Y-25616000D02*
X47352000Y-25616000D01*
X47352000Y-25616000D02*
X47352000Y-27216000D01*
X47352000Y-27216000D02*
X48152000Y-27216000D01*
X48152000Y-27216000D02*
X48152000Y-25616000D01*
G04 #@! TO.C,R7*
X53740000Y-22060000D02*
X52940000Y-22060000D01*
X52940000Y-22060000D02*
X52940000Y-23660000D01*
X52940000Y-23660000D02*
X53740000Y-23660000D01*
X53740000Y-23660000D02*
X53740000Y-22060000D01*
G04 #@! TO.C,U2*
X32853000Y-26091000D02*
X26853000Y-26091000D01*
X26853000Y-26091000D02*
X26853000Y-33091000D01*
X26853000Y-33091000D02*
X33853000Y-33091000D01*
X33853000Y-33091000D02*
X33853000Y-27091000D01*
X33853000Y-27091000D02*
X32853000Y-26091000D01*
G04 #@! TO.C,U3*
X51546000Y-26574000D02*
X51996000Y-26124000D01*
X51996000Y-24814000D02*
X51996000Y-26124000D01*
X51546000Y-26574000D02*
X49096000Y-26574000D01*
X49096000Y-24814000D02*
X49096000Y-26574000D01*
X51996000Y-24814000D02*
X49096000Y-24814000D01*
G04 #@! TO.C,Y1*
X39700000Y-31383000D02*
X39700000Y-26783000D01*
X39700000Y-26783000D02*
X39500000Y-26583000D01*
X39500000Y-26583000D02*
X36700000Y-26583000D01*
X36700000Y-26583000D02*
X36500000Y-26783000D01*
X36500000Y-26783000D02*
X36500000Y-31383000D01*
X36500000Y-31383000D02*
X36700000Y-31583000D01*
X36700000Y-31583000D02*
X39500000Y-31583000D01*
X39500000Y-31583000D02*
X39700000Y-31383000D01*
X37500000Y-31583000D02*
X36500000Y-30583000D01*
G04 #@! TO.C,R8*
X47587000Y-40113000D02*
X47587000Y-40913000D01*
X47587000Y-40913000D02*
X49187000Y-40913000D01*
X49187000Y-40913000D02*
X49187000Y-40113000D01*
X49187000Y-40113000D02*
X47587000Y-40113000D01*
G04 #@! TO.C,C7*
X23641000Y-25743000D02*
X22841000Y-25743000D01*
X22841000Y-25743000D02*
X22841000Y-27343000D01*
X22841000Y-27343000D02*
X23641000Y-27343000D01*
X23641000Y-27343000D02*
X23641000Y-25743000D01*
G04 #@! TO.C,C8*
X56623000Y-25362000D02*
X56623000Y-26962000D01*
X57423000Y-25362000D02*
X56623000Y-25362000D01*
X57423000Y-26962000D02*
X57423000Y-25362000D01*
X56623000Y-26962000D02*
X57423000Y-26962000D01*
G04 #@! TO.C,C9*
X54718000Y-26962000D02*
X55518000Y-26962000D01*
X55518000Y-26962000D02*
X55518000Y-25362000D01*
X55518000Y-25362000D02*
X54718000Y-25362000D01*
X54718000Y-25362000D02*
X54718000Y-26962000D01*
G04 #@! TO.C,C10*
X45701000Y-27216000D02*
X46501000Y-27216000D01*
X46501000Y-27216000D02*
X46501000Y-25616000D01*
X46501000Y-25616000D02*
X45701000Y-25616000D01*
X45701000Y-25616000D02*
X45701000Y-27216000D01*
G04 #@! TO.C,R10*
X22879000Y-34379000D02*
X22079000Y-34379000D01*
X22079000Y-34379000D02*
X22079000Y-35979000D01*
X22079000Y-35979000D02*
X22879000Y-35979000D01*
X22879000Y-35979000D02*
X22879000Y-34379000D01*
G04 #@! TO.C,R11*
X24403000Y-34379000D02*
X23603000Y-34379000D01*
X23603000Y-34379000D02*
X23603000Y-35979000D01*
X23603000Y-35979000D02*
X24403000Y-35979000D01*
X24403000Y-35979000D02*
X24403000Y-34379000D01*
G04 #@! TO.C,R12*
X26054000Y-35979000D02*
X26054000Y-34379000D01*
X25254000Y-35979000D02*
X26054000Y-35979000D01*
X25254000Y-34379000D02*
X25254000Y-35979000D01*
X26054000Y-34379000D02*
X25254000Y-34379000D01*
G04 #@! TO.C,J2*
X50821000Y-30366000D02*
X50821000Y-42166000D01*
X50821000Y-42166000D02*
X51421000Y-42166000D01*
X51421000Y-42166000D02*
X51421000Y-44166000D01*
X51421000Y-44166000D02*
X56021000Y-44166000D01*
X56021000Y-44166000D02*
X56021000Y-42166000D01*
X56021000Y-42166000D02*
X56621000Y-42166000D01*
X56621000Y-42166000D02*
X56621000Y-30366000D01*
X56621000Y-30366000D02*
X50821000Y-30366000D01*
D12*
X56325951Y-32041000D02*
G75*
G03X56325951Y-32041000I-254951J0D01*
G01*
D11*
G04 #@! TO.C,J7*
X22158000Y-42974000D02*
X29658000Y-42974000D01*
X22158000Y-37974000D02*
X22158000Y-42974000D01*
X29658000Y-37974000D02*
X22158000Y-37974000D01*
X29658000Y-42974000D02*
X29658000Y-37974000D01*
X29158000Y-42274000D02*
X22658000Y-42274000D01*
G04 #@! TO.C,U4*
X47233000Y-35168000D02*
X46583000Y-35818000D01*
X46583000Y-36968000D02*
X46583000Y-35818000D01*
X47233000Y-35168000D02*
X49683000Y-35168000D01*
X49683000Y-36968000D02*
X49683000Y-35168000D01*
X46583000Y-36968000D02*
X49683000Y-36968000D01*
G04 #@! TO.C,J4*
X45399000Y-36265000D02*
X45399000Y-45465000D01*
X45399000Y-45465000D02*
X32579000Y-45465000D01*
X32579000Y-45465000D02*
X32579000Y-36265000D01*
X32579000Y-36265000D02*
X45399000Y-36265000D01*
X41999000Y-36265000D02*
X42799000Y-37465000D01*
X42799000Y-37465000D02*
X43599000Y-36265000D01*
G04 #@! TO.C,J3*
X24946000Y-21793000D02*
X31696000Y-21793000D01*
X24946000Y-17593000D02*
X31696000Y-17593000D01*
X24946000Y-21793000D02*
X24946000Y-17593000D01*
X31696000Y-21793000D02*
X31696000Y-17593000D01*
X24946000Y-20793000D02*
X23446000Y-20793000D01*
X23446000Y-20793000D02*
X23246000Y-20593000D01*
X23246000Y-20593000D02*
X23246000Y-18793000D01*
X23246000Y-18793000D02*
X23446000Y-18593000D01*
X23446000Y-18593000D02*
X23446000Y-17993000D01*
X23446000Y-17993000D02*
X24946000Y-17993000D01*
X31696000Y-20793000D02*
X33196000Y-20793000D01*
X33196000Y-20793000D02*
X33396000Y-20593000D01*
X33396000Y-20593000D02*
X33396000Y-18793000D01*
X33396000Y-18793000D02*
X33196000Y-18593000D01*
X33196000Y-18593000D02*
X33196000Y-17993000D01*
X33196000Y-17993000D02*
X31696000Y-17993000D01*
X25946000Y-21793000D02*
X26446000Y-21085893D01*
X26446000Y-21085893D02*
X26946000Y-21793000D01*
G04 #@! TO.C,R13*
X39459000Y-20174000D02*
X39459000Y-20974000D01*
X39459000Y-20974000D02*
X41059000Y-20974000D01*
X41059000Y-20974000D02*
X41059000Y-20174000D01*
X41059000Y-20174000D02*
X39459000Y-20174000D01*
G04 #@! TD*
G04 #@! TO.C,C4*
D10*
X46162357Y-28233619D02*
X46114738Y-28186000D01*
X46019500Y-28138380D01*
X45781404Y-28138380D01*
X45686166Y-28186000D01*
X45638547Y-28233619D01*
X45590928Y-28328857D01*
X45590928Y-28424095D01*
X45638547Y-28566952D01*
X46209976Y-29138380D01*
X45590928Y-29138380D01*
X45209976Y-28233619D02*
X45162357Y-28186000D01*
X45067119Y-28138380D01*
X44829023Y-28138380D01*
X44733785Y-28186000D01*
X44686166Y-28233619D01*
X44638547Y-28328857D01*
X44638547Y-28424095D01*
X44686166Y-28566952D01*
X45257595Y-29138380D01*
X44638547Y-29138380D01*
X44209976Y-28471714D02*
X44209976Y-29471714D01*
X44209976Y-28519333D02*
X44114738Y-28471714D01*
X43924261Y-28471714D01*
X43829023Y-28519333D01*
X43781404Y-28566952D01*
X43733785Y-28662190D01*
X43733785Y-28947904D01*
X43781404Y-29043142D01*
X43829023Y-29090761D01*
X43924261Y-29138380D01*
X44114738Y-29138380D01*
X44209976Y-29090761D01*
X42971880Y-28614571D02*
X43305214Y-28614571D01*
X43305214Y-29138380D02*
X43305214Y-28138380D01*
X42829023Y-28138380D01*
D13*
X41341666Y-28844857D02*
X41360714Y-28863904D01*
X41417857Y-28882952D01*
X41455952Y-28882952D01*
X41513095Y-28863904D01*
X41551190Y-28825809D01*
X41570238Y-28787714D01*
X41589285Y-28711523D01*
X41589285Y-28654380D01*
X41570238Y-28578190D01*
X41551190Y-28540095D01*
X41513095Y-28502000D01*
X41455952Y-28482952D01*
X41417857Y-28482952D01*
X41360714Y-28502000D01*
X41341666Y-28521047D01*
X40998809Y-28616285D02*
X40998809Y-28882952D01*
X41094047Y-28463904D02*
X41189285Y-28749619D01*
X40941666Y-28749619D01*
G04 #@! TO.C,R9*
D10*
X33722714Y-20650285D02*
X34389380Y-20650285D01*
X33341761Y-20412190D02*
X34056047Y-20174095D01*
X34056047Y-20793142D01*
X33389380Y-21078857D02*
X33389380Y-21745523D01*
X34389380Y-21316952D01*
X34389380Y-22126476D02*
X33389380Y-22126476D01*
X34389380Y-22697904D02*
X33817952Y-22269333D01*
X33389380Y-22697904D02*
X33960809Y-22126476D01*
D13*
X35486952Y-21269333D02*
X35296476Y-21136000D01*
X35486952Y-21040761D02*
X35086952Y-21040761D01*
X35086952Y-21193142D01*
X35106000Y-21231238D01*
X35125047Y-21250285D01*
X35163142Y-21269333D01*
X35220285Y-21269333D01*
X35258380Y-21250285D01*
X35277428Y-21231238D01*
X35296476Y-21193142D01*
X35296476Y-21040761D01*
X35486952Y-21459809D02*
X35486952Y-21536000D01*
X35467904Y-21574095D01*
X35448857Y-21593142D01*
X35391714Y-21631238D01*
X35315523Y-21650285D01*
X35163142Y-21650285D01*
X35125047Y-21631238D01*
X35106000Y-21612190D01*
X35086952Y-21574095D01*
X35086952Y-21497904D01*
X35106000Y-21459809D01*
X35125047Y-21440761D01*
X35163142Y-21421714D01*
X35258380Y-21421714D01*
X35296476Y-21440761D01*
X35315523Y-21459809D01*
X35334571Y-21497904D01*
X35334571Y-21574095D01*
X35315523Y-21612190D01*
X35296476Y-21631238D01*
X35258380Y-21650285D01*
G04 #@! TO.C,C3*
D10*
X46124357Y-29743619D02*
X46076738Y-29696000D01*
X45981500Y-29648380D01*
X45743404Y-29648380D01*
X45648166Y-29696000D01*
X45600547Y-29743619D01*
X45552928Y-29838857D01*
X45552928Y-29934095D01*
X45600547Y-30076952D01*
X46171976Y-30648380D01*
X45552928Y-30648380D01*
X45171976Y-29743619D02*
X45124357Y-29696000D01*
X45029119Y-29648380D01*
X44791023Y-29648380D01*
X44695785Y-29696000D01*
X44648166Y-29743619D01*
X44600547Y-29838857D01*
X44600547Y-29934095D01*
X44648166Y-30076952D01*
X45219595Y-30648380D01*
X44600547Y-30648380D01*
X44171976Y-29981714D02*
X44171976Y-30981714D01*
X44171976Y-30029333D02*
X44076738Y-29981714D01*
X43886261Y-29981714D01*
X43791023Y-30029333D01*
X43743404Y-30076952D01*
X43695785Y-30172190D01*
X43695785Y-30457904D01*
X43743404Y-30553142D01*
X43791023Y-30600761D01*
X43886261Y-30648380D01*
X44076738Y-30648380D01*
X44171976Y-30600761D01*
X42933880Y-30124571D02*
X43267214Y-30124571D01*
X43267214Y-30648380D02*
X43267214Y-29648380D01*
X42791023Y-29648380D01*
D13*
X41316166Y-30495857D02*
X41335214Y-30514904D01*
X41392357Y-30533952D01*
X41430452Y-30533952D01*
X41487595Y-30514904D01*
X41525690Y-30476809D01*
X41544738Y-30438714D01*
X41563785Y-30362523D01*
X41563785Y-30305380D01*
X41544738Y-30229190D01*
X41525690Y-30191095D01*
X41487595Y-30153000D01*
X41430452Y-30133952D01*
X41392357Y-30133952D01*
X41335214Y-30153000D01*
X41316166Y-30172047D01*
X41182833Y-30133952D02*
X40935214Y-30133952D01*
X41068547Y-30286333D01*
X41011404Y-30286333D01*
X40973309Y-30305380D01*
X40954261Y-30324428D01*
X40935214Y-30362523D01*
X40935214Y-30457761D01*
X40954261Y-30495857D01*
X40973309Y-30514904D01*
X41011404Y-30533952D01*
X41125690Y-30533952D01*
X41163785Y-30514904D01*
X41182833Y-30495857D01*
G04 #@! TO.C,R1*
D10*
X38507714Y-20575785D02*
X39174380Y-20575785D01*
X38126761Y-20337690D02*
X38841047Y-20099595D01*
X38841047Y-20718642D01*
X38174380Y-21004357D02*
X38174380Y-21671023D01*
X39174380Y-21242452D01*
X39174380Y-22051976D02*
X38174380Y-22051976D01*
X39174380Y-22623404D02*
X38602952Y-22194833D01*
X38174380Y-22623404D02*
X38745809Y-22051976D01*
D13*
X37264952Y-21167833D02*
X37074476Y-21034500D01*
X37264952Y-20939261D02*
X36864952Y-20939261D01*
X36864952Y-21091642D01*
X36884000Y-21129738D01*
X36903047Y-21148785D01*
X36941142Y-21167833D01*
X36998285Y-21167833D01*
X37036380Y-21148785D01*
X37055428Y-21129738D01*
X37074476Y-21091642D01*
X37074476Y-20939261D01*
X37264952Y-21548785D02*
X37264952Y-21320214D01*
X37264952Y-21434500D02*
X36864952Y-21434500D01*
X36922095Y-21396404D01*
X36960190Y-21358309D01*
X36979238Y-21320214D01*
G04 #@! TO.C,C2*
D10*
X43554380Y-33002142D02*
X43554380Y-33097380D01*
X43602000Y-33192619D01*
X43649619Y-33240238D01*
X43744857Y-33287857D01*
X43935333Y-33335476D01*
X44173428Y-33335476D01*
X44363904Y-33287857D01*
X44459142Y-33240238D01*
X44506761Y-33192619D01*
X44554380Y-33097380D01*
X44554380Y-33002142D01*
X44506761Y-32906904D01*
X44459142Y-32859285D01*
X44363904Y-32811666D01*
X44173428Y-32764047D01*
X43935333Y-32764047D01*
X43744857Y-32811666D01*
X43649619Y-32859285D01*
X43602000Y-32906904D01*
X43554380Y-33002142D01*
X44459142Y-33764047D02*
X44506761Y-33811666D01*
X44554380Y-33764047D01*
X44506761Y-33716428D01*
X44459142Y-33764047D01*
X44554380Y-33764047D01*
X44554380Y-34764047D02*
X44554380Y-34192619D01*
X44554380Y-34478333D02*
X43554380Y-34478333D01*
X43697238Y-34383095D01*
X43792476Y-34287857D01*
X43840095Y-34192619D01*
X43887714Y-35621190D02*
X44554380Y-35621190D01*
X43887714Y-35192619D02*
X44411523Y-35192619D01*
X44506761Y-35240238D01*
X44554380Y-35335476D01*
X44554380Y-35478333D01*
X44506761Y-35573571D01*
X44459142Y-35621190D01*
X44030571Y-36430714D02*
X44030571Y-36097380D01*
X44554380Y-36097380D02*
X43554380Y-36097380D01*
X43554380Y-36573571D01*
D13*
X42517666Y-34152857D02*
X42536714Y-34171904D01*
X42593857Y-34190952D01*
X42631952Y-34190952D01*
X42689095Y-34171904D01*
X42727190Y-34133809D01*
X42746238Y-34095714D01*
X42765285Y-34019523D01*
X42765285Y-33962380D01*
X42746238Y-33886190D01*
X42727190Y-33848095D01*
X42689095Y-33810000D01*
X42631952Y-33790952D01*
X42593857Y-33790952D01*
X42536714Y-33810000D01*
X42517666Y-33829047D01*
X42365285Y-33829047D02*
X42346238Y-33810000D01*
X42308142Y-33790952D01*
X42212904Y-33790952D01*
X42174809Y-33810000D01*
X42155761Y-33829047D01*
X42136714Y-33867142D01*
X42136714Y-33905238D01*
X42155761Y-33962380D01*
X42384333Y-34190952D01*
X42136714Y-34190952D01*
G04 #@! TO.C,R2*
D10*
X26556714Y-34874285D02*
X27223380Y-34874285D01*
X26175761Y-34636190D02*
X26890047Y-34398095D01*
X26890047Y-35017142D01*
X26223380Y-35302857D02*
X26223380Y-35969523D01*
X27223380Y-35540952D01*
X27223380Y-36350476D02*
X26223380Y-36350476D01*
X27223380Y-36921904D02*
X26651952Y-36493333D01*
X26223380Y-36921904D02*
X26794809Y-36350476D01*
D13*
X28895666Y-35867952D02*
X29029000Y-35677476D01*
X29124238Y-35867952D02*
X29124238Y-35467952D01*
X28971857Y-35467952D01*
X28933761Y-35487000D01*
X28914714Y-35506047D01*
X28895666Y-35544142D01*
X28895666Y-35601285D01*
X28914714Y-35639380D01*
X28933761Y-35658428D01*
X28971857Y-35677476D01*
X29124238Y-35677476D01*
X28743285Y-35506047D02*
X28724238Y-35487000D01*
X28686142Y-35467952D01*
X28590904Y-35467952D01*
X28552809Y-35487000D01*
X28533761Y-35506047D01*
X28514714Y-35544142D01*
X28514714Y-35582238D01*
X28533761Y-35639380D01*
X28762333Y-35867952D01*
X28514714Y-35867952D01*
G04 #@! TO.C,R3*
D10*
X55967380Y-22540714D02*
X55967380Y-21969285D01*
X55967380Y-22255000D02*
X54967380Y-22255000D01*
X55110238Y-22159761D01*
X55205476Y-22064523D01*
X55253095Y-21969285D01*
X55967380Y-22969285D02*
X54967380Y-22969285D01*
X55967380Y-23540714D02*
X55395952Y-23112142D01*
X54967380Y-23540714D02*
X55538809Y-22969285D01*
D13*
X57203952Y-22793333D02*
X57013476Y-22660000D01*
X57203952Y-22564761D02*
X56803952Y-22564761D01*
X56803952Y-22717142D01*
X56823000Y-22755238D01*
X56842047Y-22774285D01*
X56880142Y-22793333D01*
X56937285Y-22793333D01*
X56975380Y-22774285D01*
X56994428Y-22755238D01*
X57013476Y-22717142D01*
X57013476Y-22564761D01*
X56803952Y-22926666D02*
X56803952Y-23174285D01*
X56956333Y-23040952D01*
X56956333Y-23098095D01*
X56975380Y-23136190D01*
X56994428Y-23155238D01*
X57032523Y-23174285D01*
X57127761Y-23174285D01*
X57165857Y-23155238D01*
X57184904Y-23136190D01*
X57203952Y-23098095D01*
X57203952Y-22983809D01*
X57184904Y-22945714D01*
X57165857Y-22926666D01*
G04 #@! TO.C,R4*
D10*
X57043285Y-23495380D02*
X57614714Y-23495380D01*
X57329000Y-23495380D02*
X57329000Y-22495380D01*
X57424238Y-22638238D01*
X57519476Y-22733476D01*
X57614714Y-22781095D01*
X56614714Y-23495380D02*
X56614714Y-22495380D01*
X56043285Y-23495380D02*
X56471857Y-22923952D01*
X56043285Y-22495380D02*
X56614714Y-23066809D01*
D13*
X55298952Y-22793333D02*
X55108476Y-22660000D01*
X55298952Y-22564761D02*
X54898952Y-22564761D01*
X54898952Y-22717142D01*
X54918000Y-22755238D01*
X54937047Y-22774285D01*
X54975142Y-22793333D01*
X55032285Y-22793333D01*
X55070380Y-22774285D01*
X55089428Y-22755238D01*
X55108476Y-22717142D01*
X55108476Y-22564761D01*
X55032285Y-23136190D02*
X55298952Y-23136190D01*
X54879904Y-23040952D02*
X55165619Y-22945714D01*
X55165619Y-23193333D01*
G04 #@! TO.C,R5*
D10*
X44506714Y-28027285D02*
X45173380Y-28027285D01*
X44125761Y-27789190D02*
X44840047Y-27551095D01*
X44840047Y-28170142D01*
X45173380Y-28551095D02*
X44173380Y-28551095D01*
X45173380Y-29122523D02*
X44601952Y-28693952D01*
X44173380Y-29122523D02*
X44744809Y-28551095D01*
X44173380Y-29455857D02*
X44173380Y-30122523D01*
X45173380Y-29693952D01*
D13*
X46929666Y-28882952D02*
X47063000Y-28692476D01*
X47158238Y-28882952D02*
X47158238Y-28482952D01*
X47005857Y-28482952D01*
X46967761Y-28502000D01*
X46948714Y-28521047D01*
X46929666Y-28559142D01*
X46929666Y-28616285D01*
X46948714Y-28654380D01*
X46967761Y-28673428D01*
X47005857Y-28692476D01*
X47158238Y-28692476D01*
X46567761Y-28482952D02*
X46758238Y-28482952D01*
X46777285Y-28673428D01*
X46758238Y-28654380D01*
X46720142Y-28635333D01*
X46624904Y-28635333D01*
X46586809Y-28654380D01*
X46567761Y-28673428D01*
X46548714Y-28711523D01*
X46548714Y-28806761D01*
X46567761Y-28844857D01*
X46586809Y-28863904D01*
X46624904Y-28882952D01*
X46720142Y-28882952D01*
X46758238Y-28863904D01*
X46777285Y-28844857D01*
G04 #@! TO.C,R6*
D10*
X48658714Y-28343714D02*
X48658714Y-29010380D01*
X48896809Y-27962761D02*
X49134904Y-28677047D01*
X48515857Y-28677047D01*
X48134904Y-29010380D02*
X48134904Y-28010380D01*
X47563476Y-29010380D02*
X47992047Y-28438952D01*
X47563476Y-28010380D02*
X48134904Y-28581809D01*
X47230142Y-28010380D02*
X46563476Y-28010380D01*
X46992047Y-29010380D01*
D13*
X47932952Y-26247833D02*
X47742476Y-26114500D01*
X47932952Y-26019261D02*
X47532952Y-26019261D01*
X47532952Y-26171642D01*
X47552000Y-26209738D01*
X47571047Y-26228785D01*
X47609142Y-26247833D01*
X47666285Y-26247833D01*
X47704380Y-26228785D01*
X47723428Y-26209738D01*
X47742476Y-26171642D01*
X47742476Y-26019261D01*
X47532952Y-26590690D02*
X47532952Y-26514500D01*
X47552000Y-26476404D01*
X47571047Y-26457357D01*
X47628190Y-26419261D01*
X47704380Y-26400214D01*
X47856761Y-26400214D01*
X47894857Y-26419261D01*
X47913904Y-26438309D01*
X47932952Y-26476404D01*
X47932952Y-26552595D01*
X47913904Y-26590690D01*
X47894857Y-26609738D01*
X47856761Y-26628785D01*
X47761523Y-26628785D01*
X47723428Y-26609738D01*
X47704380Y-26590690D01*
X47685333Y-26552595D01*
X47685333Y-26476404D01*
X47704380Y-26438309D01*
X47723428Y-26419261D01*
X47761523Y-26400214D01*
G04 #@! TO.C,R7*
D10*
X51417714Y-22074285D02*
X52084380Y-22074285D01*
X51036761Y-21836190D02*
X51751047Y-21598095D01*
X51751047Y-22217142D01*
X52084380Y-22598095D02*
X51084380Y-22598095D01*
X52084380Y-23169523D02*
X51512952Y-22740952D01*
X51084380Y-23169523D02*
X51655809Y-22598095D01*
X51084380Y-23502857D02*
X51084380Y-24169523D01*
X52084380Y-23740952D01*
D13*
X53520952Y-22856833D02*
X53330476Y-22723500D01*
X53520952Y-22628261D02*
X53120952Y-22628261D01*
X53120952Y-22780642D01*
X53140000Y-22818738D01*
X53159047Y-22837785D01*
X53197142Y-22856833D01*
X53254285Y-22856833D01*
X53292380Y-22837785D01*
X53311428Y-22818738D01*
X53330476Y-22780642D01*
X53330476Y-22628261D01*
X53120952Y-22990166D02*
X53120952Y-23256833D01*
X53520952Y-23085404D01*
G04 #@! TO.C,U2*
D10*
X36689523Y-24988761D02*
X36546666Y-25036380D01*
X36308571Y-25036380D01*
X36213333Y-24988761D01*
X36165714Y-24941142D01*
X36118095Y-24845904D01*
X36118095Y-24750666D01*
X36165714Y-24655428D01*
X36213333Y-24607809D01*
X36308571Y-24560190D01*
X36499047Y-24512571D01*
X36594285Y-24464952D01*
X36641904Y-24417333D01*
X36689523Y-24322095D01*
X36689523Y-24226857D01*
X36641904Y-24131619D01*
X36594285Y-24084000D01*
X36499047Y-24036380D01*
X36260952Y-24036380D01*
X36118095Y-24084000D01*
X35832380Y-24036380D02*
X35260952Y-24036380D01*
X35546666Y-25036380D02*
X35546666Y-24036380D01*
X34927619Y-25036380D02*
X34927619Y-24036380D01*
X34594285Y-24750666D01*
X34260952Y-24036380D01*
X34260952Y-25036380D01*
X33880000Y-24036380D02*
X33260952Y-24036380D01*
X33594285Y-24417333D01*
X33451428Y-24417333D01*
X33356190Y-24464952D01*
X33308571Y-24512571D01*
X33260952Y-24607809D01*
X33260952Y-24845904D01*
X33308571Y-24941142D01*
X33356190Y-24988761D01*
X33451428Y-25036380D01*
X33737142Y-25036380D01*
X33832380Y-24988761D01*
X33880000Y-24941142D01*
X32880000Y-24131619D02*
X32832380Y-24084000D01*
X32737142Y-24036380D01*
X32499047Y-24036380D01*
X32403809Y-24084000D01*
X32356190Y-24131619D01*
X32308571Y-24226857D01*
X32308571Y-24322095D01*
X32356190Y-24464952D01*
X32927619Y-25036380D01*
X32308571Y-25036380D01*
X31546666Y-24512571D02*
X31880000Y-24512571D01*
X31880000Y-25036380D02*
X31880000Y-24036380D01*
X31403809Y-24036380D01*
X30499047Y-25036380D02*
X31070476Y-25036380D01*
X30784761Y-25036380D02*
X30784761Y-24036380D01*
X30880000Y-24179238D01*
X30975238Y-24274476D01*
X31070476Y-24322095D01*
X29880000Y-24036380D02*
X29784761Y-24036380D01*
X29689523Y-24084000D01*
X29641904Y-24131619D01*
X29594285Y-24226857D01*
X29546666Y-24417333D01*
X29546666Y-24655428D01*
X29594285Y-24845904D01*
X29641904Y-24941142D01*
X29689523Y-24988761D01*
X29784761Y-25036380D01*
X29880000Y-25036380D01*
X29975238Y-24988761D01*
X30022857Y-24941142D01*
X30070476Y-24845904D01*
X30118095Y-24655428D01*
X30118095Y-24417333D01*
X30070476Y-24226857D01*
X30022857Y-24131619D01*
X29975238Y-24084000D01*
X29880000Y-24036380D01*
X29213333Y-24036380D02*
X28594285Y-24036380D01*
X28927619Y-24417333D01*
X28784761Y-24417333D01*
X28689523Y-24464952D01*
X28641904Y-24512571D01*
X28594285Y-24607809D01*
X28594285Y-24845904D01*
X28641904Y-24941142D01*
X28689523Y-24988761D01*
X28784761Y-25036380D01*
X29070476Y-25036380D01*
X29165714Y-24988761D01*
X29213333Y-24941142D01*
X27594285Y-24941142D02*
X27641904Y-24988761D01*
X27784761Y-25036380D01*
X27880000Y-25036380D01*
X28022857Y-24988761D01*
X28118095Y-24893523D01*
X28165714Y-24798285D01*
X28213333Y-24607809D01*
X28213333Y-24464952D01*
X28165714Y-24274476D01*
X28118095Y-24179238D01*
X28022857Y-24084000D01*
X27880000Y-24036380D01*
X27784761Y-24036380D01*
X27641904Y-24084000D01*
X27594285Y-24131619D01*
X27022857Y-24464952D02*
X27118095Y-24417333D01*
X27165714Y-24369714D01*
X27213333Y-24274476D01*
X27213333Y-24226857D01*
X27165714Y-24131619D01*
X27118095Y-24084000D01*
X27022857Y-24036380D01*
X26832380Y-24036380D01*
X26737142Y-24084000D01*
X26689523Y-24131619D01*
X26641904Y-24226857D01*
X26641904Y-24274476D01*
X26689523Y-24369714D01*
X26737142Y-24417333D01*
X26832380Y-24464952D01*
X27022857Y-24464952D01*
X27118095Y-24512571D01*
X27165714Y-24560190D01*
X27213333Y-24655428D01*
X27213333Y-24845904D01*
X27165714Y-24941142D01*
X27118095Y-24988761D01*
X27022857Y-25036380D01*
X26832380Y-25036380D01*
X26737142Y-24988761D01*
X26689523Y-24941142D01*
X26641904Y-24845904D01*
X26641904Y-24655428D01*
X26689523Y-24560190D01*
X26737142Y-24512571D01*
X26832380Y-24464952D01*
X26356190Y-24036380D02*
X25784761Y-24036380D01*
X26070476Y-25036380D02*
X26070476Y-24036380D01*
X25546666Y-25036380D02*
X25022857Y-24369714D01*
X25546666Y-24369714D02*
X25022857Y-25036380D01*
X31114904Y-29043380D02*
X31114904Y-29852904D01*
X31067285Y-29948142D01*
X31019666Y-29995761D01*
X30924428Y-30043380D01*
X30733952Y-30043380D01*
X30638714Y-29995761D01*
X30591095Y-29948142D01*
X30543476Y-29852904D01*
X30543476Y-29043380D01*
X30114904Y-29138619D02*
X30067285Y-29091000D01*
X29972047Y-29043380D01*
X29733952Y-29043380D01*
X29638714Y-29091000D01*
X29591095Y-29138619D01*
X29543476Y-29233857D01*
X29543476Y-29329095D01*
X29591095Y-29471952D01*
X30162523Y-30043380D01*
X29543476Y-30043380D01*
G04 #@! TO.C,U3*
X48045666Y-22686988D02*
X48045666Y-23163179D01*
X48331380Y-22591750D02*
X47331380Y-22925084D01*
X48331380Y-23258417D01*
X48331380Y-23591750D02*
X47331380Y-23591750D01*
X47331380Y-23829846D01*
X47379000Y-23972703D01*
X47474238Y-24067941D01*
X47569476Y-24115560D01*
X47759952Y-24163179D01*
X47902809Y-24163179D01*
X48093285Y-24115560D01*
X48188523Y-24067941D01*
X48283761Y-23972703D01*
X48331380Y-23829846D01*
X48331380Y-23591750D01*
X47759952Y-24734607D02*
X47712333Y-24639369D01*
X47664714Y-24591750D01*
X47569476Y-24544131D01*
X47521857Y-24544131D01*
X47426619Y-24591750D01*
X47379000Y-24639369D01*
X47331380Y-24734607D01*
X47331380Y-24925084D01*
X47379000Y-25020322D01*
X47426619Y-25067941D01*
X47521857Y-25115560D01*
X47569476Y-25115560D01*
X47664714Y-25067941D01*
X47712333Y-25020322D01*
X47759952Y-24925084D01*
X47759952Y-24734607D01*
X47807571Y-24639369D01*
X47855190Y-24591750D01*
X47950428Y-24544131D01*
X48140904Y-24544131D01*
X48236142Y-24591750D01*
X48283761Y-24639369D01*
X48331380Y-24734607D01*
X48331380Y-24925084D01*
X48283761Y-25020322D01*
X48236142Y-25067941D01*
X48140904Y-25115560D01*
X47950428Y-25115560D01*
X47855190Y-25067941D01*
X47807571Y-25020322D01*
X47759952Y-24925084D01*
X47331380Y-25972703D02*
X47331380Y-25782226D01*
X47379000Y-25686988D01*
X47426619Y-25639369D01*
X47569476Y-25544131D01*
X47759952Y-25496512D01*
X48140904Y-25496512D01*
X48236142Y-25544131D01*
X48283761Y-25591750D01*
X48331380Y-25686988D01*
X48331380Y-25877465D01*
X48283761Y-25972703D01*
X48236142Y-26020322D01*
X48140904Y-26067941D01*
X47902809Y-26067941D01*
X47807571Y-26020322D01*
X47759952Y-25972703D01*
X47712333Y-25877465D01*
X47712333Y-25686988D01*
X47759952Y-25591750D01*
X47807571Y-25544131D01*
X47902809Y-25496512D01*
X47331380Y-26686988D02*
X47331380Y-26782226D01*
X47379000Y-26877465D01*
X47426619Y-26925084D01*
X47521857Y-26972703D01*
X47712333Y-27020322D01*
X47950428Y-27020322D01*
X48140904Y-26972703D01*
X48236142Y-26925084D01*
X48283761Y-26877465D01*
X48331380Y-26782226D01*
X48331380Y-26686988D01*
X48283761Y-26591750D01*
X48236142Y-26544131D01*
X48140904Y-26496512D01*
X47950428Y-26448893D01*
X47712333Y-26448893D01*
X47521857Y-26496512D01*
X47426619Y-26544131D01*
X47379000Y-26591750D01*
X47331380Y-26686988D01*
X47331380Y-27353655D02*
X47331380Y-27972703D01*
X47712333Y-27639369D01*
X47712333Y-27782226D01*
X47759952Y-27877465D01*
X47807571Y-27925084D01*
X47902809Y-27972703D01*
X48140904Y-27972703D01*
X48236142Y-27925084D01*
X48283761Y-27877465D01*
X48331380Y-27782226D01*
X48331380Y-27496512D01*
X48283761Y-27401274D01*
X48236142Y-27353655D01*
D14*
X50272190Y-25313047D02*
X50676952Y-25313047D01*
X50724571Y-25336857D01*
X50748380Y-25360666D01*
X50772190Y-25408285D01*
X50772190Y-25503523D01*
X50748380Y-25551142D01*
X50724571Y-25574952D01*
X50676952Y-25598761D01*
X50272190Y-25598761D01*
X50272190Y-25789238D02*
X50272190Y-26098761D01*
X50462666Y-25932095D01*
X50462666Y-26003523D01*
X50486476Y-26051142D01*
X50510285Y-26074952D01*
X50557904Y-26098761D01*
X50676952Y-26098761D01*
X50724571Y-26074952D01*
X50748380Y-26051142D01*
X50772190Y-26003523D01*
X50772190Y-25860666D01*
X50748380Y-25813047D01*
X50724571Y-25789238D01*
G04 #@! TO.C,Y1*
D10*
X39805714Y-33242142D02*
X39853333Y-33289761D01*
X39996190Y-33337380D01*
X40091428Y-33337380D01*
X40234285Y-33289761D01*
X40329523Y-33194523D01*
X40377142Y-33099285D01*
X40424761Y-32908809D01*
X40424761Y-32765952D01*
X40377142Y-32575476D01*
X40329523Y-32480238D01*
X40234285Y-32385000D01*
X40091428Y-32337380D01*
X39996190Y-32337380D01*
X39853333Y-32385000D01*
X39805714Y-32432619D01*
X39377142Y-33337380D02*
X39377142Y-32670714D01*
X39377142Y-32861190D02*
X39329523Y-32765952D01*
X39281904Y-32718333D01*
X39186666Y-32670714D01*
X39091428Y-32670714D01*
X38853333Y-32670714D02*
X38615238Y-33337380D01*
X38377142Y-32670714D02*
X38615238Y-33337380D01*
X38710476Y-33575476D01*
X38758095Y-33623095D01*
X38853333Y-33670714D01*
X38043809Y-33289761D02*
X37948571Y-33337380D01*
X37758095Y-33337380D01*
X37662857Y-33289761D01*
X37615238Y-33194523D01*
X37615238Y-33146904D01*
X37662857Y-33051666D01*
X37758095Y-33004047D01*
X37900952Y-33004047D01*
X37996190Y-32956428D01*
X38043809Y-32861190D01*
X38043809Y-32813571D01*
X37996190Y-32718333D01*
X37900952Y-32670714D01*
X37758095Y-32670714D01*
X37662857Y-32718333D01*
X37329523Y-32670714D02*
X36948571Y-32670714D01*
X37186666Y-32337380D02*
X37186666Y-33194523D01*
X37139047Y-33289761D01*
X37043809Y-33337380D01*
X36948571Y-33337380D01*
X36186666Y-33337380D02*
X36186666Y-32813571D01*
X36234285Y-32718333D01*
X36329523Y-32670714D01*
X36520000Y-32670714D01*
X36615238Y-32718333D01*
X36186666Y-33289761D02*
X36281904Y-33337380D01*
X36520000Y-33337380D01*
X36615238Y-33289761D01*
X36662857Y-33194523D01*
X36662857Y-33099285D01*
X36615238Y-33004047D01*
X36520000Y-32956428D01*
X36281904Y-32956428D01*
X36186666Y-32908809D01*
X35567619Y-33337380D02*
X35662857Y-33289761D01*
X35710476Y-33194523D01*
X35710476Y-32337380D01*
X38623190Y-29051190D02*
X38623190Y-29527380D01*
X38956523Y-28527380D02*
X38623190Y-29051190D01*
X38289857Y-28527380D01*
X37432714Y-29527380D02*
X38004142Y-29527380D01*
X37718428Y-29527380D02*
X37718428Y-28527380D01*
X37813666Y-28670238D01*
X37908904Y-28765476D01*
X38004142Y-28813095D01*
G04 #@! TO.C,R8*
X47984619Y-41339095D02*
X47937000Y-41386714D01*
X47889380Y-41481952D01*
X47889380Y-41720047D01*
X47937000Y-41815285D01*
X47984619Y-41862904D01*
X48079857Y-41910523D01*
X48175095Y-41910523D01*
X48317952Y-41862904D01*
X48889380Y-41291476D01*
X48889380Y-41910523D01*
X47984619Y-42291476D02*
X47937000Y-42339095D01*
X47889380Y-42434333D01*
X47889380Y-42672428D01*
X47937000Y-42767666D01*
X47984619Y-42815285D01*
X48079857Y-42862904D01*
X48175095Y-42862904D01*
X48317952Y-42815285D01*
X48889380Y-42243857D01*
X48889380Y-42862904D01*
D13*
X48453666Y-40820952D02*
X48587000Y-40630476D01*
X48682238Y-40820952D02*
X48682238Y-40420952D01*
X48529857Y-40420952D01*
X48491761Y-40440000D01*
X48472714Y-40459047D01*
X48453666Y-40497142D01*
X48453666Y-40554285D01*
X48472714Y-40592380D01*
X48491761Y-40611428D01*
X48529857Y-40630476D01*
X48682238Y-40630476D01*
X48225095Y-40592380D02*
X48263190Y-40573333D01*
X48282238Y-40554285D01*
X48301285Y-40516190D01*
X48301285Y-40497142D01*
X48282238Y-40459047D01*
X48263190Y-40440000D01*
X48225095Y-40420952D01*
X48148904Y-40420952D01*
X48110809Y-40440000D01*
X48091761Y-40459047D01*
X48072714Y-40497142D01*
X48072714Y-40516190D01*
X48091761Y-40554285D01*
X48110809Y-40573333D01*
X48148904Y-40592380D01*
X48225095Y-40592380D01*
X48263190Y-40611428D01*
X48282238Y-40630476D01*
X48301285Y-40668571D01*
X48301285Y-40744761D01*
X48282238Y-40782857D01*
X48263190Y-40801904D01*
X48225095Y-40820952D01*
X48148904Y-40820952D01*
X48110809Y-40801904D01*
X48091761Y-40782857D01*
X48072714Y-40744761D01*
X48072714Y-40668571D01*
X48091761Y-40630476D01*
X48110809Y-40611428D01*
X48148904Y-40592380D01*
G04 #@! TO.C,C7*
D10*
X27698857Y-26063380D02*
X27603619Y-26063380D01*
X27508380Y-26111000D01*
X27460761Y-26158619D01*
X27413142Y-26253857D01*
X27365523Y-26444333D01*
X27365523Y-26682428D01*
X27413142Y-26872904D01*
X27460761Y-26968142D01*
X27508380Y-27015761D01*
X27603619Y-27063380D01*
X27698857Y-27063380D01*
X27794095Y-27015761D01*
X27841714Y-26968142D01*
X27889333Y-26872904D01*
X27936952Y-26682428D01*
X27936952Y-26444333D01*
X27889333Y-26253857D01*
X27841714Y-26158619D01*
X27794095Y-26111000D01*
X27698857Y-26063380D01*
X26936952Y-26968142D02*
X26889333Y-27015761D01*
X26936952Y-27063380D01*
X26984571Y-27015761D01*
X26936952Y-26968142D01*
X26936952Y-27063380D01*
X25936952Y-27063380D02*
X26508380Y-27063380D01*
X26222666Y-27063380D02*
X26222666Y-26063380D01*
X26317904Y-26206238D01*
X26413142Y-26301476D01*
X26508380Y-26349095D01*
X25079809Y-26396714D02*
X25079809Y-27063380D01*
X25508380Y-26396714D02*
X25508380Y-26920523D01*
X25460761Y-27015761D01*
X25365523Y-27063380D01*
X25222666Y-27063380D01*
X25127428Y-27015761D01*
X25079809Y-26968142D01*
X24270285Y-26539571D02*
X24603619Y-26539571D01*
X24603619Y-27063380D02*
X24603619Y-26063380D01*
X24127428Y-26063380D01*
D13*
X23383857Y-26476333D02*
X23402904Y-26457285D01*
X23421952Y-26400142D01*
X23421952Y-26362047D01*
X23402904Y-26304904D01*
X23364809Y-26266809D01*
X23326714Y-26247761D01*
X23250523Y-26228714D01*
X23193380Y-26228714D01*
X23117190Y-26247761D01*
X23079095Y-26266809D01*
X23041000Y-26304904D01*
X23021952Y-26362047D01*
X23021952Y-26400142D01*
X23041000Y-26457285D01*
X23060047Y-26476333D01*
X23021952Y-26609666D02*
X23021952Y-26876333D01*
X23421952Y-26704904D01*
G04 #@! TO.C,C8*
D10*
X55548238Y-26797380D02*
X56119666Y-26797380D01*
X55833952Y-26797380D02*
X55833952Y-25797380D01*
X55929190Y-25940238D01*
X56024428Y-26035476D01*
X56119666Y-26083095D01*
X54691095Y-26130714D02*
X54691095Y-26797380D01*
X55119666Y-26130714D02*
X55119666Y-26654523D01*
X55072047Y-26749761D01*
X54976809Y-26797380D01*
X54833952Y-26797380D01*
X54738714Y-26749761D01*
X54691095Y-26702142D01*
X53881571Y-26273571D02*
X54214904Y-26273571D01*
X54214904Y-26797380D02*
X54214904Y-25797380D01*
X53738714Y-25797380D01*
D13*
X57165857Y-26095333D02*
X57184904Y-26076285D01*
X57203952Y-26019142D01*
X57203952Y-25981047D01*
X57184904Y-25923904D01*
X57146809Y-25885809D01*
X57108714Y-25866761D01*
X57032523Y-25847714D01*
X56975380Y-25847714D01*
X56899190Y-25866761D01*
X56861095Y-25885809D01*
X56823000Y-25923904D01*
X56803952Y-25981047D01*
X56803952Y-26019142D01*
X56823000Y-26076285D01*
X56842047Y-26095333D01*
X56975380Y-26323904D02*
X56956333Y-26285809D01*
X56937285Y-26266761D01*
X56899190Y-26247714D01*
X56880142Y-26247714D01*
X56842047Y-26266761D01*
X56823000Y-26285809D01*
X56803952Y-26323904D01*
X56803952Y-26400095D01*
X56823000Y-26438190D01*
X56842047Y-26457238D01*
X56880142Y-26476285D01*
X56899190Y-26476285D01*
X56937285Y-26457238D01*
X56956333Y-26438190D01*
X56975380Y-26400095D01*
X56975380Y-26323904D01*
X56994428Y-26285809D01*
X57013476Y-26266761D01*
X57051571Y-26247714D01*
X57127761Y-26247714D01*
X57165857Y-26266761D01*
X57184904Y-26285809D01*
X57203952Y-26323904D01*
X57203952Y-26400095D01*
X57184904Y-26438190D01*
X57165857Y-26457238D01*
X57127761Y-26476285D01*
X57051571Y-26476285D01*
X57013476Y-26457238D01*
X56994428Y-26438190D01*
X56975380Y-26400095D01*
G04 #@! TO.C,C9*
D10*
X57063380Y-25715761D02*
X57063380Y-25144333D01*
X57063380Y-25430047D02*
X56063380Y-25430047D01*
X56206238Y-25334809D01*
X56301476Y-25239571D01*
X56349095Y-25144333D01*
X56396714Y-26572904D02*
X57063380Y-26572904D01*
X56396714Y-26144333D02*
X56920523Y-26144333D01*
X57015761Y-26191952D01*
X57063380Y-26287190D01*
X57063380Y-26430047D01*
X57015761Y-26525285D01*
X56968142Y-26572904D01*
X56539571Y-27382428D02*
X56539571Y-27049095D01*
X57063380Y-27049095D02*
X56063380Y-27049095D01*
X56063380Y-27525285D01*
D13*
X55260857Y-26095333D02*
X55279904Y-26076285D01*
X55298952Y-26019142D01*
X55298952Y-25981047D01*
X55279904Y-25923904D01*
X55241809Y-25885809D01*
X55203714Y-25866761D01*
X55127523Y-25847714D01*
X55070380Y-25847714D01*
X54994190Y-25866761D01*
X54956095Y-25885809D01*
X54918000Y-25923904D01*
X54898952Y-25981047D01*
X54898952Y-26019142D01*
X54918000Y-26076285D01*
X54937047Y-26095333D01*
X55298952Y-26285809D02*
X55298952Y-26362000D01*
X55279904Y-26400095D01*
X55260857Y-26419142D01*
X55203714Y-26457238D01*
X55127523Y-26476285D01*
X54975142Y-26476285D01*
X54937047Y-26457238D01*
X54918000Y-26438190D01*
X54898952Y-26400095D01*
X54898952Y-26323904D01*
X54918000Y-26285809D01*
X54937047Y-26266761D01*
X54975142Y-26247714D01*
X55070380Y-26247714D01*
X55108476Y-26266761D01*
X55127523Y-26285809D01*
X55146571Y-26323904D01*
X55146571Y-26400095D01*
X55127523Y-26438190D01*
X55108476Y-26457238D01*
X55070380Y-26476285D01*
G04 #@! TO.C,C10*
D10*
X46685238Y-24692380D02*
X47256666Y-24692380D01*
X46970952Y-24692380D02*
X46970952Y-23692380D01*
X47066190Y-23835238D01*
X47161428Y-23930476D01*
X47256666Y-23978095D01*
X45828095Y-24025714D02*
X45828095Y-24692380D01*
X46256666Y-24025714D02*
X46256666Y-24549523D01*
X46209047Y-24644761D01*
X46113809Y-24692380D01*
X45970952Y-24692380D01*
X45875714Y-24644761D01*
X45828095Y-24597142D01*
X45018571Y-24168571D02*
X45351904Y-24168571D01*
X45351904Y-24692380D02*
X45351904Y-23692380D01*
X44875714Y-23692380D01*
D13*
X46243857Y-26158857D02*
X46262904Y-26139809D01*
X46281952Y-26082666D01*
X46281952Y-26044571D01*
X46262904Y-25987428D01*
X46224809Y-25949333D01*
X46186714Y-25930285D01*
X46110523Y-25911238D01*
X46053380Y-25911238D01*
X45977190Y-25930285D01*
X45939095Y-25949333D01*
X45901000Y-25987428D01*
X45881952Y-26044571D01*
X45881952Y-26082666D01*
X45901000Y-26139809D01*
X45920047Y-26158857D01*
X46281952Y-26539809D02*
X46281952Y-26311238D01*
X46281952Y-26425523D02*
X45881952Y-26425523D01*
X45939095Y-26387428D01*
X45977190Y-26349333D01*
X45996238Y-26311238D01*
X45881952Y-26787428D02*
X45881952Y-26825523D01*
X45901000Y-26863619D01*
X45920047Y-26882666D01*
X45958142Y-26901714D01*
X46034333Y-26920761D01*
X46129571Y-26920761D01*
X46205761Y-26901714D01*
X46243857Y-26882666D01*
X46262904Y-26863619D01*
X46281952Y-26825523D01*
X46281952Y-26787428D01*
X46262904Y-26749333D01*
X46243857Y-26730285D01*
X46205761Y-26711238D01*
X46129571Y-26692190D01*
X46034333Y-26692190D01*
X45958142Y-26711238D01*
X45920047Y-26730285D01*
X45901000Y-26749333D01*
X45881952Y-26787428D01*
G04 #@! TO.C,R10*
D10*
X25369476Y-35541380D02*
X25940904Y-35541380D01*
X25655190Y-35541380D02*
X25655190Y-34541380D01*
X25750428Y-34684238D01*
X25845666Y-34779476D01*
X25940904Y-34827095D01*
X24940904Y-35541380D02*
X24940904Y-34541380D01*
X24369476Y-35541380D02*
X24798047Y-34969952D01*
X24369476Y-34541380D02*
X24940904Y-35112809D01*
X23464714Y-34541380D02*
X23940904Y-34541380D01*
X23988523Y-35017571D01*
X23940904Y-34969952D01*
X23845666Y-34922333D01*
X23607571Y-34922333D01*
X23512333Y-34969952D01*
X23464714Y-35017571D01*
X23417095Y-35112809D01*
X23417095Y-35350904D01*
X23464714Y-35446142D01*
X23512333Y-35493761D01*
X23607571Y-35541380D01*
X23845666Y-35541380D01*
X23940904Y-35493761D01*
X23988523Y-35446142D01*
D13*
X22786952Y-35150357D02*
X22596476Y-35017023D01*
X22786952Y-34921785D02*
X22386952Y-34921785D01*
X22386952Y-35074166D01*
X22406000Y-35112261D01*
X22425047Y-35131309D01*
X22463142Y-35150357D01*
X22520285Y-35150357D01*
X22558380Y-35131309D01*
X22577428Y-35112261D01*
X22596476Y-35074166D01*
X22596476Y-34921785D01*
X22786952Y-35531309D02*
X22786952Y-35302738D01*
X22786952Y-35417023D02*
X22386952Y-35417023D01*
X22444095Y-35378928D01*
X22482190Y-35340833D01*
X22501238Y-35302738D01*
X22386952Y-35778928D02*
X22386952Y-35817023D01*
X22406000Y-35855119D01*
X22425047Y-35874166D01*
X22463142Y-35893214D01*
X22539333Y-35912261D01*
X22634571Y-35912261D01*
X22710761Y-35893214D01*
X22748857Y-35874166D01*
X22767904Y-35855119D01*
X22786952Y-35817023D01*
X22786952Y-35778928D01*
X22767904Y-35740833D01*
X22748857Y-35721785D01*
X22710761Y-35702738D01*
X22634571Y-35683690D01*
X22539333Y-35683690D01*
X22463142Y-35702738D01*
X22425047Y-35721785D01*
X22406000Y-35740833D01*
X22386952Y-35778928D01*
G04 #@! TO.C,R11*
D10*
X23611619Y-32038095D02*
X23564000Y-32085714D01*
X23516380Y-32180952D01*
X23516380Y-32419047D01*
X23564000Y-32514285D01*
X23611619Y-32561904D01*
X23706857Y-32609523D01*
X23802095Y-32609523D01*
X23944952Y-32561904D01*
X24516380Y-31990476D01*
X24516380Y-32609523D01*
X23611619Y-32990476D02*
X23564000Y-33038095D01*
X23516380Y-33133333D01*
X23516380Y-33371428D01*
X23564000Y-33466666D01*
X23611619Y-33514285D01*
X23706857Y-33561904D01*
X23802095Y-33561904D01*
X23944952Y-33514285D01*
X24516380Y-32942857D01*
X24516380Y-33561904D01*
D13*
X24183952Y-34921857D02*
X23993476Y-34788523D01*
X24183952Y-34693285D02*
X23783952Y-34693285D01*
X23783952Y-34845666D01*
X23803000Y-34883761D01*
X23822047Y-34902809D01*
X23860142Y-34921857D01*
X23917285Y-34921857D01*
X23955380Y-34902809D01*
X23974428Y-34883761D01*
X23993476Y-34845666D01*
X23993476Y-34693285D01*
X24183952Y-35302809D02*
X24183952Y-35074238D01*
X24183952Y-35188523D02*
X23783952Y-35188523D01*
X23841095Y-35150428D01*
X23879190Y-35112333D01*
X23898238Y-35074238D01*
X24183952Y-35683761D02*
X24183952Y-35455190D01*
X24183952Y-35569476D02*
X23783952Y-35569476D01*
X23841095Y-35531380D01*
X23879190Y-35493285D01*
X23898238Y-35455190D01*
G04 #@! TO.C,R12*
D10*
X25163619Y-32000595D02*
X25116000Y-32048214D01*
X25068380Y-32143452D01*
X25068380Y-32381547D01*
X25116000Y-32476785D01*
X25163619Y-32524404D01*
X25258857Y-32572023D01*
X25354095Y-32572023D01*
X25496952Y-32524404D01*
X26068380Y-31952976D01*
X26068380Y-32572023D01*
X25163619Y-32952976D02*
X25116000Y-33000595D01*
X25068380Y-33095833D01*
X25068380Y-33333928D01*
X25116000Y-33429166D01*
X25163619Y-33476785D01*
X25258857Y-33524404D01*
X25354095Y-33524404D01*
X25496952Y-33476785D01*
X26068380Y-32905357D01*
X26068380Y-33524404D01*
D13*
X25834952Y-34921857D02*
X25644476Y-34788523D01*
X25834952Y-34693285D02*
X25434952Y-34693285D01*
X25434952Y-34845666D01*
X25454000Y-34883761D01*
X25473047Y-34902809D01*
X25511142Y-34921857D01*
X25568285Y-34921857D01*
X25606380Y-34902809D01*
X25625428Y-34883761D01*
X25644476Y-34845666D01*
X25644476Y-34693285D01*
X25834952Y-35302809D02*
X25834952Y-35074238D01*
X25834952Y-35188523D02*
X25434952Y-35188523D01*
X25492095Y-35150428D01*
X25530190Y-35112333D01*
X25549238Y-35074238D01*
X25473047Y-35455190D02*
X25454000Y-35474238D01*
X25434952Y-35512333D01*
X25434952Y-35607571D01*
X25454000Y-35645666D01*
X25473047Y-35664714D01*
X25511142Y-35683761D01*
X25549238Y-35683761D01*
X25606380Y-35664714D01*
X25834952Y-35436142D01*
X25834952Y-35683761D01*
G04 #@! TO.C,J2*
D10*
X50097380Y-34777571D02*
X50097380Y-34301380D01*
X49097380Y-34301380D01*
X50097380Y-35110904D02*
X49430714Y-35110904D01*
X49097380Y-35110904D02*
X49145000Y-35063285D01*
X49192619Y-35110904D01*
X49145000Y-35158523D01*
X49097380Y-35110904D01*
X49192619Y-35110904D01*
X49430714Y-35587095D02*
X50097380Y-35587095D01*
X49525952Y-35587095D02*
X49478333Y-35634714D01*
X49430714Y-35729952D01*
X49430714Y-35872809D01*
X49478333Y-35968047D01*
X49573571Y-36015666D01*
X50097380Y-36015666D01*
X50049761Y-36872809D02*
X50097380Y-36777571D01*
X50097380Y-36587095D01*
X50049761Y-36491857D01*
X49954523Y-36444238D01*
X49573571Y-36444238D01*
X49478333Y-36491857D01*
X49430714Y-36587095D01*
X49430714Y-36777571D01*
X49478333Y-36872809D01*
X49573571Y-36920428D01*
X49668809Y-36920428D01*
X49764047Y-36444238D01*
X50097380Y-37777571D02*
X49573571Y-37777571D01*
X49478333Y-37729952D01*
X49430714Y-37634714D01*
X49430714Y-37444238D01*
X49478333Y-37349000D01*
X50049761Y-37777571D02*
X50097380Y-37682333D01*
X50097380Y-37444238D01*
X50049761Y-37349000D01*
X49954523Y-37301380D01*
X49859285Y-37301380D01*
X49764047Y-37349000D01*
X49716428Y-37444238D01*
X49716428Y-37682333D01*
X49668809Y-37777571D01*
X50097380Y-38253761D02*
X49430714Y-38253761D01*
X49621190Y-38253761D02*
X49525952Y-38301380D01*
X49478333Y-38349000D01*
X49430714Y-38444238D01*
X49430714Y-38539476D01*
X53173380Y-36802666D02*
X53887666Y-36802666D01*
X54030523Y-36755047D01*
X54125761Y-36659809D01*
X54173380Y-36516952D01*
X54173380Y-36421714D01*
X53268619Y-37231238D02*
X53221000Y-37278857D01*
X53173380Y-37374095D01*
X53173380Y-37612190D01*
X53221000Y-37707428D01*
X53268619Y-37755047D01*
X53363857Y-37802666D01*
X53459095Y-37802666D01*
X53601952Y-37755047D01*
X54173380Y-37183619D01*
X54173380Y-37802666D01*
G04 #@! TO.C,J7*
X30355809Y-35757380D02*
X30355809Y-36566904D01*
X30308190Y-36662142D01*
X30260571Y-36709761D01*
X30165333Y-36757380D01*
X29974857Y-36757380D01*
X29879619Y-36709761D01*
X29832000Y-36662142D01*
X29784380Y-36566904D01*
X29784380Y-35757380D01*
X29355809Y-36709761D02*
X29212952Y-36757380D01*
X28974857Y-36757380D01*
X28879619Y-36709761D01*
X28832000Y-36662142D01*
X28784380Y-36566904D01*
X28784380Y-36471666D01*
X28832000Y-36376428D01*
X28879619Y-36328809D01*
X28974857Y-36281190D01*
X29165333Y-36233571D01*
X29260571Y-36185952D01*
X29308190Y-36138333D01*
X29355809Y-36043095D01*
X29355809Y-35947857D01*
X29308190Y-35852619D01*
X29260571Y-35805000D01*
X29165333Y-35757380D01*
X28927238Y-35757380D01*
X28784380Y-35805000D01*
X28022476Y-36233571D02*
X27879619Y-36281190D01*
X27832000Y-36328809D01*
X27784380Y-36424047D01*
X27784380Y-36566904D01*
X27832000Y-36662142D01*
X27879619Y-36709761D01*
X27974857Y-36757380D01*
X28355809Y-36757380D01*
X28355809Y-35757380D01*
X28022476Y-35757380D01*
X27927238Y-35805000D01*
X27879619Y-35852619D01*
X27832000Y-35947857D01*
X27832000Y-36043095D01*
X27879619Y-36138333D01*
X27927238Y-36185952D01*
X28022476Y-36233571D01*
X28355809Y-36233571D01*
X27593904Y-36852619D02*
X26832000Y-36852619D01*
X26260571Y-36233571D02*
X26117714Y-36281190D01*
X26070095Y-36328809D01*
X26022476Y-36424047D01*
X26022476Y-36566904D01*
X26070095Y-36662142D01*
X26117714Y-36709761D01*
X26212952Y-36757380D01*
X26593904Y-36757380D01*
X26593904Y-35757380D01*
X26260571Y-35757380D01*
X26165333Y-35805000D01*
X26117714Y-35852619D01*
X26070095Y-35947857D01*
X26070095Y-36043095D01*
X26117714Y-36138333D01*
X26165333Y-36185952D01*
X26260571Y-36233571D01*
X26593904Y-36233571D01*
X25832000Y-36852619D02*
X25070095Y-36852619D01*
X24832000Y-36757380D02*
X24832000Y-35757380D01*
X24498666Y-36471666D01*
X24165333Y-35757380D01*
X24165333Y-36757380D01*
X23689142Y-36757380D02*
X23689142Y-36090714D01*
X23689142Y-35757380D02*
X23736761Y-35805000D01*
X23689142Y-35852619D01*
X23641523Y-35805000D01*
X23689142Y-35757380D01*
X23689142Y-35852619D01*
X22784380Y-36709761D02*
X22879619Y-36757380D01*
X23070095Y-36757380D01*
X23165333Y-36709761D01*
X23212952Y-36662142D01*
X23260571Y-36566904D01*
X23260571Y-36281190D01*
X23212952Y-36185952D01*
X23165333Y-36138333D01*
X23070095Y-36090714D01*
X22879619Y-36090714D01*
X22784380Y-36138333D01*
X22355809Y-36757380D02*
X22355809Y-36090714D01*
X22355809Y-36281190D02*
X22308190Y-36185952D01*
X22260571Y-36138333D01*
X22165333Y-36090714D01*
X22070095Y-36090714D01*
X21593904Y-36757380D02*
X21689142Y-36709761D01*
X21736761Y-36662142D01*
X21784380Y-36566904D01*
X21784380Y-36281190D01*
X21736761Y-36185952D01*
X21689142Y-36138333D01*
X21593904Y-36090714D01*
X21451047Y-36090714D01*
X21355809Y-36138333D01*
X21308190Y-36185952D01*
X21260571Y-36281190D01*
X21260571Y-36566904D01*
X21308190Y-36662142D01*
X21355809Y-36709761D01*
X21451047Y-36757380D01*
X21593904Y-36757380D01*
X26241333Y-40276380D02*
X26241333Y-40990666D01*
X26288952Y-41133523D01*
X26384190Y-41228761D01*
X26527047Y-41276380D01*
X26622285Y-41276380D01*
X25860380Y-40276380D02*
X25193714Y-40276380D01*
X25622285Y-41276380D01*
G04 #@! TO.C,U4*
X47522380Y-37543380D02*
X47522380Y-38210047D01*
X48522380Y-37781476D01*
X47855714Y-39019571D02*
X48522380Y-39019571D01*
X47474761Y-38781476D02*
X48189047Y-38543380D01*
X48189047Y-39162428D01*
X48522380Y-40019571D02*
X48522380Y-39543380D01*
X47522380Y-39543380D01*
X47522380Y-40210047D02*
X48522380Y-40543380D01*
X47522380Y-40876714D01*
X48427142Y-41781476D02*
X48474761Y-41733857D01*
X48522380Y-41591000D01*
X48522380Y-41495761D01*
X48474761Y-41352904D01*
X48379523Y-41257666D01*
X48284285Y-41210047D01*
X48093809Y-41162428D01*
X47950952Y-41162428D01*
X47760476Y-41210047D01*
X47665238Y-41257666D01*
X47570000Y-41352904D01*
X47522380Y-41495761D01*
X47522380Y-41591000D01*
X47570000Y-41733857D01*
X47617619Y-41781476D01*
X48522380Y-42733857D02*
X48522380Y-42162428D01*
X48522380Y-42448142D02*
X47522380Y-42448142D01*
X47665238Y-42352904D01*
X47760476Y-42257666D01*
X47808095Y-42162428D01*
X47570000Y-43686238D02*
X47522380Y-43591000D01*
X47522380Y-43448142D01*
X47570000Y-43305285D01*
X47665238Y-43210047D01*
X47760476Y-43162428D01*
X47950952Y-43114809D01*
X48093809Y-43114809D01*
X48284285Y-43162428D01*
X48379523Y-43210047D01*
X48474761Y-43305285D01*
X48522380Y-43448142D01*
X48522380Y-43543380D01*
X48474761Y-43686238D01*
X48427142Y-43733857D01*
X48093809Y-43733857D01*
X48093809Y-43543380D01*
X48522380Y-44686238D02*
X48522380Y-44114809D01*
X48522380Y-44400523D02*
X47522380Y-44400523D01*
X47665238Y-44305285D01*
X47760476Y-44210047D01*
X47808095Y-44114809D01*
X47617619Y-45067190D02*
X47570000Y-45114809D01*
X47522380Y-45210047D01*
X47522380Y-45448142D01*
X47570000Y-45543380D01*
X47617619Y-45591000D01*
X47712857Y-45638619D01*
X47808095Y-45638619D01*
X47950952Y-45591000D01*
X48522380Y-45019571D01*
X48522380Y-45638619D01*
X47522380Y-46543380D02*
X47522380Y-46067190D01*
X47998571Y-46019571D01*
X47950952Y-46067190D01*
X47903333Y-46162428D01*
X47903333Y-46400523D01*
X47950952Y-46495761D01*
X47998571Y-46543380D01*
X48093809Y-46591000D01*
X48331904Y-46591000D01*
X48427142Y-46543380D01*
X48474761Y-46495761D01*
X48522380Y-46400523D01*
X48522380Y-46162428D01*
X48474761Y-46067190D01*
X48427142Y-46019571D01*
D14*
X47859190Y-35814047D02*
X48263952Y-35814047D01*
X48311571Y-35837857D01*
X48335380Y-35861666D01*
X48359190Y-35909285D01*
X48359190Y-36004523D01*
X48335380Y-36052142D01*
X48311571Y-36075952D01*
X48263952Y-36099761D01*
X47859190Y-36099761D01*
X48025857Y-36552142D02*
X48359190Y-36552142D01*
X47835380Y-36433095D02*
X48192523Y-36314047D01*
X48192523Y-36623571D01*
G04 #@! TO.C,J4*
D10*
X47442380Y-35333476D02*
X46442380Y-35333476D01*
X46442380Y-35714428D01*
X46490000Y-35809666D01*
X46537619Y-35857285D01*
X46632857Y-35904904D01*
X46775714Y-35904904D01*
X46870952Y-35857285D01*
X46918571Y-35809666D01*
X46966190Y-35714428D01*
X46966190Y-35333476D01*
X46442380Y-36523952D02*
X46442380Y-36714428D01*
X46490000Y-36809666D01*
X46585238Y-36904904D01*
X46775714Y-36952523D01*
X47109047Y-36952523D01*
X47299523Y-36904904D01*
X47394761Y-36809666D01*
X47442380Y-36714428D01*
X47442380Y-36523952D01*
X47394761Y-36428714D01*
X47299523Y-36333476D01*
X47109047Y-36285857D01*
X46775714Y-36285857D01*
X46585238Y-36333476D01*
X46490000Y-36428714D01*
X46442380Y-36523952D01*
X46442380Y-37285857D02*
X47442380Y-37523952D01*
X46728095Y-37714428D01*
X47442380Y-37904904D01*
X46442380Y-38143000D01*
X46918571Y-38523952D02*
X46918571Y-38857285D01*
X47442380Y-39000142D02*
X47442380Y-38523952D01*
X46442380Y-38523952D01*
X46442380Y-39000142D01*
X47442380Y-40000142D02*
X46966190Y-39666809D01*
X47442380Y-39428714D02*
X46442380Y-39428714D01*
X46442380Y-39809666D01*
X46490000Y-39904904D01*
X46537619Y-39952523D01*
X46632857Y-40000142D01*
X46775714Y-40000142D01*
X46870952Y-39952523D01*
X46918571Y-39904904D01*
X46966190Y-39809666D01*
X46966190Y-39428714D01*
X38441380Y-40131666D02*
X39155666Y-40131666D01*
X39298523Y-40084047D01*
X39393761Y-39988809D01*
X39441380Y-39845952D01*
X39441380Y-39750714D01*
X38774714Y-41036428D02*
X39441380Y-41036428D01*
X38393761Y-40798333D02*
X39108047Y-40560238D01*
X39108047Y-41179285D01*
G04 #@! TO.C,J3*
X29233690Y-20581880D02*
X29233690Y-19581880D01*
X28805119Y-20534261D02*
X28662261Y-20581880D01*
X28424166Y-20581880D01*
X28328928Y-20534261D01*
X28281309Y-20486642D01*
X28233690Y-20391404D01*
X28233690Y-20296166D01*
X28281309Y-20200928D01*
X28328928Y-20153309D01*
X28424166Y-20105690D01*
X28614642Y-20058071D01*
X28709880Y-20010452D01*
X28757500Y-19962833D01*
X28805119Y-19867595D01*
X28805119Y-19772357D01*
X28757500Y-19677119D01*
X28709880Y-19629500D01*
X28614642Y-19581880D01*
X28376547Y-19581880D01*
X28233690Y-19629500D01*
X27805119Y-20581880D02*
X27805119Y-19581880D01*
X27424166Y-19581880D01*
X27328928Y-19629500D01*
X27281309Y-19677119D01*
X27233690Y-19772357D01*
X27233690Y-19915214D01*
X27281309Y-20010452D01*
X27328928Y-20058071D01*
X27424166Y-20105690D01*
X27805119Y-20105690D01*
X28654333Y-17745380D02*
X28654333Y-18459666D01*
X28701952Y-18602523D01*
X28797190Y-18697761D01*
X28940047Y-18745380D01*
X29035285Y-18745380D01*
X28273380Y-17745380D02*
X27654333Y-17745380D01*
X27987666Y-18126333D01*
X27844809Y-18126333D01*
X27749571Y-18173952D01*
X27701952Y-18221571D01*
X27654333Y-18316809D01*
X27654333Y-18554904D01*
X27701952Y-18650142D01*
X27749571Y-18697761D01*
X27844809Y-18745380D01*
X28130523Y-18745380D01*
X28225761Y-18697761D01*
X28273380Y-18650142D01*
G04 #@! TO.C,R13*
X40306619Y-18596380D02*
X40211380Y-18596380D01*
X40116142Y-18644000D01*
X40068523Y-18691619D01*
X40020904Y-18786857D01*
X39973285Y-18977333D01*
X39973285Y-19215428D01*
X40020904Y-19405904D01*
X40068523Y-19501142D01*
X40116142Y-19548761D01*
X40211380Y-19596380D01*
X40306619Y-19596380D01*
X40401857Y-19548761D01*
X40449476Y-19501142D01*
X40497095Y-19405904D01*
X40544714Y-19215428D01*
X40544714Y-18977333D01*
X40497095Y-18786857D01*
X40449476Y-18691619D01*
X40401857Y-18644000D01*
X40306619Y-18596380D01*
D13*
X40516142Y-20754952D02*
X40649476Y-20564476D01*
X40744714Y-20754952D02*
X40744714Y-20354952D01*
X40592333Y-20354952D01*
X40554238Y-20374000D01*
X40535190Y-20393047D01*
X40516142Y-20431142D01*
X40516142Y-20488285D01*
X40535190Y-20526380D01*
X40554238Y-20545428D01*
X40592333Y-20564476D01*
X40744714Y-20564476D01*
X40135190Y-20754952D02*
X40363761Y-20754952D01*
X40249476Y-20754952D02*
X40249476Y-20354952D01*
X40287571Y-20412095D01*
X40325666Y-20450190D01*
X40363761Y-20469238D01*
X40001857Y-20354952D02*
X39754238Y-20354952D01*
X39887571Y-20507333D01*
X39830428Y-20507333D01*
X39792333Y-20526380D01*
X39773285Y-20545428D01*
X39754238Y-20583523D01*
X39754238Y-20678761D01*
X39773285Y-20716857D01*
X39792333Y-20735904D01*
X39830428Y-20754952D01*
X39944714Y-20754952D01*
X39982809Y-20735904D01*
X40001857Y-20716857D01*
G04 #@! TD*
M02*
