G04 #@! TF.GenerationSoftware,KiCad,Pcbnew,(5.0.0)*
G04 #@! TF.CreationDate,2019-01-26T11:16:20+03:00*
G04 #@! TF.ProjectId,stm32mc,73746D33326D632E6B696361645F7063,rev?*
G04 #@! TF.SameCoordinates,Original*
G04 #@! TF.FileFunction,Soldermask,Top*
G04 #@! TF.FilePolarity,Negative*
%FSLAX46Y46*%
G04 Gerber Fmt 4.6, Leading zero omitted, Abs format (unit mm)*
G04 Created by KiCad (PCBNEW (5.0.0)) date 01/26/19 11:16:20*
%MOMM*%
%LPD*%
G01*
G04 APERTURE LIST*
%ADD10C,0.150000*%
%ADD11C,0.100000*%
G04 APERTURE END LIST*
D10*
X58531000Y-19050000D02*
G75*
G03X58531000Y-19050000I-1000000J0D01*
G01*
X32512000Y-40386000D02*
G75*
G03X32512000Y-40386000I-1000000J0D01*
G01*
X59055000Y-42291000D02*
X59055000Y-17526000D01*
X59024000Y-17507000D02*
X21082000Y-17526000D01*
X21082000Y-42291000D02*
X59055000Y-42291000D01*
X21082000Y-17526000D02*
X21082000Y-42291000D01*
D11*
G36*
X53860452Y-39775127D02*
X53998105Y-39802508D01*
X54170994Y-39874121D01*
X54326590Y-39978087D01*
X54458913Y-40110410D01*
X54562879Y-40266006D01*
X54634492Y-40438895D01*
X54671000Y-40622433D01*
X54671000Y-40809567D01*
X54634492Y-40993105D01*
X54562879Y-41165994D01*
X54458913Y-41321590D01*
X54326590Y-41453913D01*
X54170994Y-41557879D01*
X53998105Y-41629492D01*
X53860452Y-41656873D01*
X53814568Y-41666000D01*
X53627432Y-41666000D01*
X53581548Y-41656873D01*
X53443895Y-41629492D01*
X53271006Y-41557879D01*
X53115410Y-41453913D01*
X52983087Y-41321590D01*
X52879121Y-41165994D01*
X52807508Y-40993105D01*
X52771000Y-40809567D01*
X52771000Y-40622433D01*
X52807508Y-40438895D01*
X52879121Y-40266006D01*
X52983087Y-40110410D01*
X53115410Y-39978087D01*
X53271006Y-39874121D01*
X53443895Y-39802508D01*
X53581548Y-39775127D01*
X53627432Y-39766000D01*
X53814568Y-39766000D01*
X53860452Y-39775127D01*
X53860452Y-39775127D01*
G37*
G36*
X23074622Y-39525517D02*
X23122585Y-39540066D01*
X23166775Y-39563686D01*
X23205518Y-39595482D01*
X23237314Y-39634225D01*
X23260934Y-39678415D01*
X23275483Y-39726378D01*
X23281000Y-39782391D01*
X23281000Y-40532609D01*
X23275483Y-40588622D01*
X23260934Y-40636585D01*
X23237314Y-40680775D01*
X23205518Y-40719518D01*
X23166775Y-40751314D01*
X23122585Y-40774934D01*
X23074622Y-40789483D01*
X23018609Y-40795000D01*
X22193391Y-40795000D01*
X22137378Y-40789483D01*
X22089415Y-40774934D01*
X22045225Y-40751314D01*
X22006482Y-40719518D01*
X21974686Y-40680775D01*
X21951066Y-40636585D01*
X21936517Y-40588622D01*
X21931000Y-40532609D01*
X21931000Y-39782391D01*
X21936517Y-39726378D01*
X21951066Y-39678415D01*
X21974686Y-39634225D01*
X22006482Y-39595482D01*
X22045225Y-39563686D01*
X22089415Y-39540066D01*
X22137378Y-39525517D01*
X22193391Y-39520000D01*
X23018609Y-39520000D01*
X23074622Y-39525517D01*
X23074622Y-39525517D01*
G37*
G36*
X39204639Y-35480916D02*
X39411986Y-35543815D01*
X39411988Y-35543816D01*
X39603084Y-35645958D01*
X39770581Y-35783419D01*
X39908042Y-35950916D01*
X39993643Y-36111066D01*
X40010185Y-36142014D01*
X40029360Y-36205225D01*
X40073084Y-36349362D01*
X40089000Y-36510964D01*
X40089000Y-38419036D01*
X40073084Y-38580638D01*
X40010184Y-38787988D01*
X39908042Y-38979084D01*
X39770581Y-39146581D01*
X39603084Y-39284042D01*
X39411987Y-39386184D01*
X39411985Y-39386185D01*
X39204638Y-39449084D01*
X38989000Y-39470322D01*
X38773361Y-39449084D01*
X38566014Y-39386185D01*
X38566012Y-39386184D01*
X38374916Y-39284042D01*
X38207419Y-39146581D01*
X38069958Y-38979084D01*
X37967816Y-38787987D01*
X37904917Y-38580639D01*
X37904916Y-38580638D01*
X37889000Y-38419037D01*
X37889000Y-36510963D01*
X37904917Y-36349361D01*
X37967816Y-36142014D01*
X37984358Y-36111066D01*
X38069959Y-35950916D01*
X38207420Y-35783419D01*
X38374917Y-35645958D01*
X38566013Y-35543816D01*
X38566015Y-35543815D01*
X38773362Y-35480916D01*
X38989000Y-35459678D01*
X39204639Y-35480916D01*
X39204639Y-35480916D01*
G37*
G36*
X35394639Y-35480916D02*
X35601986Y-35543815D01*
X35601988Y-35543816D01*
X35793084Y-35645958D01*
X35960581Y-35783419D01*
X36098042Y-35950916D01*
X36183643Y-36111066D01*
X36200185Y-36142014D01*
X36219360Y-36205225D01*
X36263084Y-36349362D01*
X36279000Y-36510964D01*
X36279000Y-38419036D01*
X36263084Y-38580638D01*
X36200184Y-38787988D01*
X36098042Y-38979084D01*
X35960581Y-39146581D01*
X35793084Y-39284042D01*
X35601987Y-39386184D01*
X35601985Y-39386185D01*
X35394638Y-39449084D01*
X35179000Y-39470322D01*
X34963361Y-39449084D01*
X34756014Y-39386185D01*
X34756012Y-39386184D01*
X34564916Y-39284042D01*
X34397419Y-39146581D01*
X34259958Y-38979084D01*
X34157816Y-38787987D01*
X34094917Y-38580639D01*
X34094916Y-38580638D01*
X34079000Y-38419037D01*
X34079000Y-36510963D01*
X34094917Y-36349361D01*
X34157816Y-36142014D01*
X34174358Y-36111066D01*
X34259959Y-35950916D01*
X34397420Y-35783419D01*
X34564917Y-35645958D01*
X34756013Y-35543816D01*
X34756015Y-35543815D01*
X34963362Y-35480916D01*
X35179000Y-35459678D01*
X35394639Y-35480916D01*
X35394639Y-35480916D01*
G37*
G36*
X43899000Y-39465000D02*
X41699000Y-39465000D01*
X41699000Y-35465000D01*
X43899000Y-35465000D01*
X43899000Y-39465000D01*
X43899000Y-39465000D01*
G37*
G36*
X23074622Y-37950517D02*
X23122585Y-37965066D01*
X23166775Y-37988686D01*
X23205518Y-38020482D01*
X23237314Y-38059225D01*
X23260934Y-38103415D01*
X23275483Y-38151378D01*
X23281000Y-38207391D01*
X23281000Y-38957609D01*
X23275483Y-39013622D01*
X23260934Y-39061585D01*
X23237314Y-39105775D01*
X23205518Y-39144518D01*
X23166775Y-39176314D01*
X23122585Y-39199934D01*
X23074622Y-39214483D01*
X23018609Y-39220000D01*
X22193391Y-39220000D01*
X22137378Y-39214483D01*
X22089415Y-39199934D01*
X22045225Y-39176314D01*
X22006482Y-39144518D01*
X21974686Y-39105775D01*
X21951066Y-39061585D01*
X21936517Y-39013622D01*
X21931000Y-38957609D01*
X21931000Y-38207391D01*
X21936517Y-38151378D01*
X21951066Y-38103415D01*
X21974686Y-38059225D01*
X22006482Y-38020482D01*
X22045225Y-37988686D01*
X22089415Y-37965066D01*
X22137378Y-37950517D01*
X22193391Y-37945000D01*
X23018609Y-37945000D01*
X23074622Y-37950517D01*
X23074622Y-37950517D01*
G37*
G36*
X23074622Y-36096517D02*
X23122585Y-36111066D01*
X23166775Y-36134686D01*
X23205518Y-36166482D01*
X23237314Y-36205225D01*
X23260934Y-36249415D01*
X23275483Y-36297378D01*
X23281000Y-36353391D01*
X23281000Y-37103609D01*
X23275483Y-37159622D01*
X23260934Y-37207585D01*
X23237314Y-37251775D01*
X23205518Y-37290518D01*
X23166775Y-37322314D01*
X23122585Y-37345934D01*
X23074622Y-37360483D01*
X23018609Y-37366000D01*
X22193391Y-37366000D01*
X22137378Y-37360483D01*
X22089415Y-37345934D01*
X22045225Y-37322314D01*
X22006482Y-37290518D01*
X21974686Y-37251775D01*
X21951066Y-37207585D01*
X21936517Y-37159622D01*
X21931000Y-37103609D01*
X21931000Y-36353391D01*
X21936517Y-36297378D01*
X21951066Y-36249415D01*
X21974686Y-36205225D01*
X22006482Y-36166482D01*
X22045225Y-36134686D01*
X22089415Y-36111066D01*
X22137378Y-36096517D01*
X22193391Y-36091000D01*
X23018609Y-36091000D01*
X23074622Y-36096517D01*
X23074622Y-36096517D01*
G37*
G36*
X23074622Y-34521517D02*
X23122585Y-34536066D01*
X23166775Y-34559686D01*
X23205518Y-34591482D01*
X23237314Y-34630225D01*
X23260934Y-34674415D01*
X23275483Y-34722378D01*
X23281000Y-34778391D01*
X23281000Y-35528609D01*
X23275483Y-35584622D01*
X23260934Y-35632585D01*
X23237314Y-35676775D01*
X23205518Y-35715518D01*
X23166775Y-35747314D01*
X23122585Y-35770934D01*
X23074622Y-35785483D01*
X23018609Y-35791000D01*
X22193391Y-35791000D01*
X22137378Y-35785483D01*
X22089415Y-35770934D01*
X22045225Y-35747314D01*
X22006482Y-35715518D01*
X21974686Y-35676775D01*
X21951066Y-35632585D01*
X21936517Y-35584622D01*
X21931000Y-35528609D01*
X21931000Y-34778391D01*
X21936517Y-34722378D01*
X21951066Y-34674415D01*
X21974686Y-34630225D01*
X22006482Y-34591482D01*
X22045225Y-34559686D01*
X22089415Y-34536066D01*
X22137378Y-34521517D01*
X22193391Y-34516000D01*
X23018609Y-34516000D01*
X23074622Y-34521517D01*
X23074622Y-34521517D01*
G37*
G36*
X48055628Y-33219493D02*
X48103354Y-33233970D01*
X48147336Y-33257479D01*
X48185885Y-33289115D01*
X48217521Y-33327664D01*
X48241030Y-33371646D01*
X48255507Y-33419372D01*
X48261000Y-33475141D01*
X48261000Y-34602859D01*
X48255507Y-34658628D01*
X48241030Y-34706354D01*
X48217521Y-34750336D01*
X48185885Y-34788885D01*
X48147336Y-34820521D01*
X48103354Y-34844030D01*
X48055628Y-34858507D01*
X47999859Y-34864000D01*
X45472141Y-34864000D01*
X45416372Y-34858507D01*
X45368646Y-34844030D01*
X45324664Y-34820521D01*
X45286115Y-34788885D01*
X45254479Y-34750336D01*
X45230970Y-34706354D01*
X45216493Y-34658628D01*
X45211000Y-34602859D01*
X45211000Y-33475141D01*
X45216493Y-33419372D01*
X45230970Y-33371646D01*
X45254479Y-33327664D01*
X45286115Y-33289115D01*
X45324664Y-33257479D01*
X45368646Y-33233970D01*
X45416372Y-33219493D01*
X45472141Y-33214000D01*
X47999859Y-33214000D01*
X48055628Y-33219493D01*
X48055628Y-33219493D01*
G37*
G36*
X53860451Y-32775127D02*
X53998105Y-32802508D01*
X54170994Y-32874121D01*
X54326590Y-32978087D01*
X54458913Y-33110410D01*
X54562879Y-33266006D01*
X54634492Y-33438895D01*
X54655399Y-33544000D01*
X54665827Y-33596424D01*
X54671000Y-33622433D01*
X54671000Y-33809567D01*
X54634492Y-33993105D01*
X54562879Y-34165994D01*
X54458913Y-34321590D01*
X54326590Y-34453913D01*
X54170994Y-34557879D01*
X53998105Y-34629492D01*
X53860451Y-34656873D01*
X53814568Y-34666000D01*
X53627432Y-34666000D01*
X53581549Y-34656873D01*
X53443895Y-34629492D01*
X53271006Y-34557879D01*
X53115410Y-34453913D01*
X52983087Y-34321590D01*
X52879121Y-34165994D01*
X52807508Y-33993105D01*
X52771000Y-33809567D01*
X52771000Y-33622433D01*
X52776174Y-33596424D01*
X52786601Y-33544000D01*
X52807508Y-33438895D01*
X52879121Y-33266006D01*
X52983087Y-33110410D01*
X53115410Y-32978087D01*
X53271006Y-32874121D01*
X53443895Y-32802508D01*
X53581549Y-32775127D01*
X53627432Y-32766000D01*
X53814568Y-32766000D01*
X53860451Y-32775127D01*
X53860451Y-32775127D01*
G37*
G36*
X40434826Y-31219576D02*
X40510227Y-31242449D01*
X40585628Y-31265321D01*
X40724604Y-31339606D01*
X40724606Y-31339607D01*
X40724605Y-31339607D01*
X40846422Y-31439578D01*
X40846423Y-31439580D01*
X40846425Y-31439581D01*
X40946392Y-31561392D01*
X41020679Y-31700371D01*
X41030880Y-31734000D01*
X41066424Y-31851173D01*
X41078000Y-31968707D01*
X41078000Y-32847293D01*
X41066424Y-32964827D01*
X41062401Y-32978089D01*
X41020679Y-33115629D01*
X40946392Y-33254608D01*
X40846422Y-33376422D01*
X40724608Y-33476392D01*
X40585629Y-33550679D01*
X40510227Y-33573552D01*
X40434827Y-33596424D01*
X40278000Y-33611870D01*
X40121174Y-33596424D01*
X40045774Y-33573552D01*
X39970372Y-33550679D01*
X39831393Y-33476392D01*
X39709579Y-33376422D01*
X39624627Y-33272908D01*
X39607300Y-33255581D01*
X39586926Y-33241967D01*
X39564287Y-33232589D01*
X39540253Y-33227809D01*
X39515749Y-33227809D01*
X39491716Y-33232589D01*
X39469076Y-33241967D01*
X39448702Y-33255581D01*
X39431375Y-33272907D01*
X39367009Y-33351336D01*
X39350342Y-33371646D01*
X39346420Y-33376424D01*
X39224608Y-33476392D01*
X39085629Y-33550679D01*
X39010227Y-33573552D01*
X38934827Y-33596424D01*
X38778000Y-33611870D01*
X38621174Y-33596424D01*
X38545774Y-33573552D01*
X38470372Y-33550679D01*
X38331393Y-33476392D01*
X38209579Y-33376422D01*
X38124627Y-33272908D01*
X38107300Y-33255581D01*
X38086926Y-33241967D01*
X38064287Y-33232589D01*
X38040253Y-33227809D01*
X38015749Y-33227809D01*
X37991716Y-33232589D01*
X37969076Y-33241967D01*
X37948702Y-33255581D01*
X37931375Y-33272907D01*
X37867009Y-33351336D01*
X37850342Y-33371646D01*
X37846420Y-33376424D01*
X37724608Y-33476392D01*
X37585629Y-33550679D01*
X37510227Y-33573552D01*
X37434827Y-33596424D01*
X37278000Y-33611870D01*
X37121174Y-33596424D01*
X37045774Y-33573552D01*
X36970372Y-33550679D01*
X36831393Y-33476392D01*
X36709579Y-33376422D01*
X36609609Y-33254608D01*
X36535322Y-33115629D01*
X36493600Y-32978089D01*
X36489577Y-32964827D01*
X36480643Y-32874122D01*
X36478000Y-32847294D01*
X36478000Y-31968706D01*
X36489576Y-31851175D01*
X36489577Y-31851173D01*
X36535321Y-31700373D01*
X36535321Y-31700372D01*
X36609606Y-31561396D01*
X36709576Y-31439581D01*
X36709578Y-31439578D01*
X36709580Y-31439577D01*
X36709581Y-31439575D01*
X36831392Y-31339608D01*
X36970371Y-31265321D01*
X37045772Y-31242449D01*
X37121173Y-31219576D01*
X37278000Y-31204130D01*
X37434826Y-31219576D01*
X37510227Y-31242449D01*
X37585628Y-31265321D01*
X37724604Y-31339606D01*
X37724606Y-31339607D01*
X37724605Y-31339607D01*
X37846422Y-31439578D01*
X37846423Y-31439580D01*
X37846425Y-31439581D01*
X37931374Y-31543092D01*
X37948701Y-31560419D01*
X37969075Y-31574033D01*
X37991714Y-31583411D01*
X38015748Y-31588191D01*
X38040252Y-31588191D01*
X38064285Y-31583411D01*
X38086925Y-31574033D01*
X38107299Y-31560419D01*
X38124626Y-31543092D01*
X38209578Y-31439578D01*
X38331392Y-31339608D01*
X38470371Y-31265321D01*
X38545772Y-31242449D01*
X38621173Y-31219576D01*
X38778000Y-31204130D01*
X38934826Y-31219576D01*
X39010227Y-31242449D01*
X39085628Y-31265321D01*
X39224604Y-31339606D01*
X39224606Y-31339607D01*
X39224605Y-31339607D01*
X39346422Y-31439578D01*
X39346423Y-31439580D01*
X39346425Y-31439581D01*
X39431374Y-31543092D01*
X39448701Y-31560419D01*
X39469075Y-31574033D01*
X39491714Y-31583411D01*
X39515748Y-31588191D01*
X39540252Y-31588191D01*
X39564285Y-31583411D01*
X39586925Y-31574033D01*
X39607299Y-31560419D01*
X39624626Y-31543092D01*
X39709578Y-31439578D01*
X39831392Y-31339608D01*
X39970371Y-31265321D01*
X40045772Y-31242449D01*
X40121173Y-31219576D01*
X40278000Y-31204130D01*
X40434826Y-31219576D01*
X40434826Y-31219576D01*
G37*
G36*
X23934826Y-31219576D02*
X24010227Y-31242449D01*
X24085628Y-31265321D01*
X24224604Y-31339606D01*
X24224606Y-31339607D01*
X24224605Y-31339607D01*
X24346422Y-31439578D01*
X24346423Y-31439580D01*
X24346425Y-31439581D01*
X24446392Y-31561392D01*
X24520679Y-31700371D01*
X24530880Y-31734000D01*
X24566424Y-31851173D01*
X24578000Y-31968707D01*
X24578000Y-32847293D01*
X24566424Y-32964827D01*
X24562401Y-32978089D01*
X24520679Y-33115629D01*
X24446392Y-33254608D01*
X24346422Y-33376422D01*
X24224608Y-33476392D01*
X24085629Y-33550679D01*
X24010227Y-33573552D01*
X23934827Y-33596424D01*
X23778000Y-33611870D01*
X23621174Y-33596424D01*
X23545774Y-33573552D01*
X23470372Y-33550679D01*
X23331393Y-33476392D01*
X23209579Y-33376422D01*
X23124627Y-33272908D01*
X23107300Y-33255581D01*
X23086926Y-33241967D01*
X23064287Y-33232589D01*
X23040253Y-33227809D01*
X23015749Y-33227809D01*
X22991716Y-33232589D01*
X22969076Y-33241967D01*
X22948702Y-33255581D01*
X22931375Y-33272907D01*
X22867009Y-33351336D01*
X22850342Y-33371646D01*
X22846420Y-33376424D01*
X22724608Y-33476392D01*
X22585629Y-33550679D01*
X22510227Y-33573552D01*
X22434827Y-33596424D01*
X22278000Y-33611870D01*
X22121174Y-33596424D01*
X22045774Y-33573552D01*
X21970372Y-33550679D01*
X21831393Y-33476392D01*
X21709579Y-33376422D01*
X21609609Y-33254608D01*
X21535322Y-33115629D01*
X21493600Y-32978089D01*
X21489577Y-32964827D01*
X21480643Y-32874122D01*
X21478000Y-32847294D01*
X21478000Y-31968706D01*
X21489576Y-31851175D01*
X21489577Y-31851173D01*
X21535321Y-31700373D01*
X21535321Y-31700372D01*
X21609606Y-31561396D01*
X21709576Y-31439581D01*
X21709578Y-31439578D01*
X21709580Y-31439577D01*
X21709581Y-31439575D01*
X21831392Y-31339608D01*
X21970371Y-31265321D01*
X22045772Y-31242449D01*
X22121173Y-31219576D01*
X22278000Y-31204130D01*
X22434826Y-31219576D01*
X22510227Y-31242449D01*
X22585628Y-31265321D01*
X22724604Y-31339606D01*
X22724606Y-31339607D01*
X22724605Y-31339607D01*
X22846422Y-31439578D01*
X22846423Y-31439580D01*
X22846425Y-31439581D01*
X22931374Y-31543092D01*
X22948701Y-31560419D01*
X22969075Y-31574033D01*
X22991714Y-31583411D01*
X23015748Y-31588191D01*
X23040252Y-31588191D01*
X23064285Y-31583411D01*
X23086925Y-31574033D01*
X23107299Y-31560419D01*
X23124626Y-31543092D01*
X23209578Y-31439578D01*
X23331392Y-31339608D01*
X23470371Y-31265321D01*
X23545772Y-31242449D01*
X23621173Y-31219576D01*
X23778000Y-31204130D01*
X23934826Y-31219576D01*
X23934826Y-31219576D01*
G37*
G36*
X48055628Y-30419493D02*
X48103354Y-30433970D01*
X48147336Y-30457479D01*
X48185885Y-30489115D01*
X48217521Y-30527664D01*
X48241030Y-30571646D01*
X48255507Y-30619372D01*
X48261000Y-30675141D01*
X48261000Y-31802859D01*
X48255507Y-31858628D01*
X48241030Y-31906354D01*
X48217521Y-31950336D01*
X48185885Y-31988885D01*
X48147336Y-32020521D01*
X48103354Y-32044030D01*
X48055628Y-32058507D01*
X47999859Y-32064000D01*
X45472141Y-32064000D01*
X45416372Y-32058507D01*
X45368646Y-32044030D01*
X45324664Y-32020521D01*
X45286115Y-31988885D01*
X45254479Y-31950336D01*
X45230970Y-31906354D01*
X45216493Y-31858628D01*
X45211000Y-31802859D01*
X45211000Y-30675141D01*
X45216493Y-30619372D01*
X45230970Y-30571646D01*
X45254479Y-30527664D01*
X45286115Y-30489115D01*
X45324664Y-30457479D01*
X45368646Y-30433970D01*
X45416372Y-30419493D01*
X45472141Y-30414000D01*
X47999859Y-30414000D01*
X48055628Y-30419493D01*
X48055628Y-30419493D01*
G37*
G36*
X52025000Y-31952000D02*
X49625000Y-31952000D01*
X49625000Y-30052000D01*
X52025000Y-30052000D01*
X52025000Y-31952000D01*
X52025000Y-31952000D01*
G37*
G36*
X58325000Y-30802000D02*
X55925000Y-30802000D01*
X55925000Y-26602000D01*
X58325000Y-26602000D01*
X58325000Y-30802000D01*
X58325000Y-30802000D01*
G37*
G36*
X52025000Y-29652000D02*
X49625000Y-29652000D01*
X49625000Y-27752000D01*
X52025000Y-27752000D01*
X52025000Y-29652000D01*
X52025000Y-29652000D01*
G37*
G36*
X47801628Y-27758493D02*
X47849354Y-27772970D01*
X47893336Y-27796479D01*
X47931885Y-27828115D01*
X47963521Y-27866664D01*
X47987030Y-27910646D01*
X48001507Y-27958372D01*
X48007000Y-28014141D01*
X48007000Y-29141859D01*
X48001507Y-29197628D01*
X47987030Y-29245354D01*
X47963521Y-29289336D01*
X47931885Y-29327885D01*
X47893336Y-29359521D01*
X47849354Y-29383030D01*
X47801628Y-29397507D01*
X47745859Y-29403000D01*
X45218141Y-29403000D01*
X45162372Y-29397507D01*
X45114646Y-29383030D01*
X45070664Y-29359521D01*
X45032115Y-29327885D01*
X45000479Y-29289336D01*
X44976970Y-29245354D01*
X44962493Y-29197628D01*
X44957000Y-29141859D01*
X44957000Y-28014141D01*
X44962493Y-27958372D01*
X44976970Y-27910646D01*
X45000479Y-27866664D01*
X45032115Y-27828115D01*
X45070664Y-27796479D01*
X45114646Y-27772970D01*
X45162372Y-27758493D01*
X45218141Y-27753000D01*
X47745859Y-27753000D01*
X47801628Y-27758493D01*
X47801628Y-27758493D01*
G37*
G36*
X44156622Y-27333517D02*
X44204585Y-27348066D01*
X44248775Y-27371686D01*
X44287518Y-27403482D01*
X44319314Y-27442225D01*
X44342934Y-27486415D01*
X44357483Y-27534378D01*
X44363000Y-27590391D01*
X44363000Y-28340609D01*
X44357483Y-28396622D01*
X44342934Y-28444585D01*
X44319314Y-28488775D01*
X44287518Y-28527518D01*
X44248775Y-28559314D01*
X44204585Y-28582934D01*
X44156622Y-28597483D01*
X44100609Y-28603000D01*
X43275391Y-28603000D01*
X43219378Y-28597483D01*
X43171415Y-28582934D01*
X43127225Y-28559314D01*
X43088482Y-28527518D01*
X43056686Y-28488775D01*
X43033066Y-28444585D01*
X43018517Y-28396622D01*
X43013000Y-28340609D01*
X43013000Y-27590391D01*
X43018517Y-27534378D01*
X43033066Y-27486415D01*
X43056686Y-27442225D01*
X43088482Y-27403482D01*
X43127225Y-27371686D01*
X43171415Y-27348066D01*
X43219378Y-27333517D01*
X43275391Y-27328000D01*
X44100609Y-27328000D01*
X44156622Y-27333517D01*
X44156622Y-27333517D01*
G37*
G36*
X52025000Y-27352000D02*
X49625000Y-27352000D01*
X49625000Y-25452000D01*
X52025000Y-25452000D01*
X52025000Y-27352000D01*
X52025000Y-27352000D01*
G37*
G36*
X44156622Y-25758517D02*
X44204585Y-25773066D01*
X44248775Y-25796686D01*
X44287518Y-25828482D01*
X44319314Y-25867225D01*
X44342934Y-25911415D01*
X44357483Y-25959378D01*
X44363000Y-26015391D01*
X44363000Y-26765609D01*
X44357483Y-26821622D01*
X44342934Y-26869585D01*
X44319314Y-26913775D01*
X44287518Y-26952518D01*
X44248775Y-26984314D01*
X44204585Y-27007934D01*
X44156622Y-27022483D01*
X44100609Y-27028000D01*
X43275391Y-27028000D01*
X43219378Y-27022483D01*
X43171415Y-27007934D01*
X43127225Y-26984314D01*
X43088482Y-26952518D01*
X43056686Y-26913775D01*
X43033066Y-26869585D01*
X43018517Y-26821622D01*
X43013000Y-26765609D01*
X43013000Y-26015391D01*
X43018517Y-25959378D01*
X43033066Y-25911415D01*
X43056686Y-25867225D01*
X43088482Y-25828482D01*
X43127225Y-25796686D01*
X43171415Y-25773066D01*
X43219378Y-25758517D01*
X43275391Y-25753000D01*
X44100609Y-25753000D01*
X44156622Y-25758517D01*
X44156622Y-25758517D01*
G37*
G36*
X47801628Y-24958493D02*
X47849354Y-24972970D01*
X47893336Y-24996479D01*
X47931885Y-25028115D01*
X47963521Y-25066664D01*
X47987030Y-25110646D01*
X48001507Y-25158372D01*
X48007000Y-25214141D01*
X48007000Y-26341859D01*
X48001507Y-26397628D01*
X47987030Y-26445354D01*
X47963521Y-26489336D01*
X47931885Y-26527885D01*
X47893336Y-26559521D01*
X47849354Y-26583030D01*
X47801628Y-26597507D01*
X47745859Y-26603000D01*
X45218141Y-26603000D01*
X45162372Y-26597507D01*
X45114646Y-26583030D01*
X45070664Y-26559521D01*
X45032115Y-26527885D01*
X45000479Y-26489336D01*
X44976970Y-26445354D01*
X44962493Y-26397628D01*
X44957000Y-26341859D01*
X44957000Y-25214141D01*
X44962493Y-25158372D01*
X44976970Y-25110646D01*
X45000479Y-25066664D01*
X45032115Y-25028115D01*
X45070664Y-24996479D01*
X45114646Y-24972970D01*
X45162372Y-24958493D01*
X45218141Y-24953000D01*
X47745859Y-24953000D01*
X47801628Y-24958493D01*
X47801628Y-24958493D01*
G37*
G36*
X47319622Y-21174517D02*
X47367585Y-21189066D01*
X47411775Y-21212686D01*
X47450518Y-21244482D01*
X47482314Y-21283225D01*
X47505934Y-21327415D01*
X47520483Y-21375378D01*
X47526000Y-21431391D01*
X47526000Y-22256609D01*
X47520483Y-22312622D01*
X47505934Y-22360585D01*
X47482314Y-22404775D01*
X47450518Y-22443518D01*
X47411775Y-22475314D01*
X47367585Y-22498934D01*
X47319622Y-22513483D01*
X47263609Y-22519000D01*
X46513391Y-22519000D01*
X46457378Y-22513483D01*
X46409415Y-22498934D01*
X46365225Y-22475314D01*
X46326482Y-22443518D01*
X46294686Y-22404775D01*
X46271066Y-22360585D01*
X46256517Y-22312622D01*
X46251000Y-22256609D01*
X46251000Y-21431391D01*
X46256517Y-21375378D01*
X46271066Y-21327415D01*
X46294686Y-21283225D01*
X46326482Y-21244482D01*
X46365225Y-21212686D01*
X46409415Y-21189066D01*
X46457378Y-21174517D01*
X46513391Y-21169000D01*
X47263609Y-21169000D01*
X47319622Y-21174517D01*
X47319622Y-21174517D01*
G37*
G36*
X45744622Y-21174517D02*
X45792585Y-21189066D01*
X45836775Y-21212686D01*
X45875518Y-21244482D01*
X45907314Y-21283225D01*
X45930934Y-21327415D01*
X45945483Y-21375378D01*
X45951000Y-21431391D01*
X45951000Y-22256609D01*
X45945483Y-22312622D01*
X45930934Y-22360585D01*
X45907314Y-22404775D01*
X45875518Y-22443518D01*
X45836775Y-22475314D01*
X45792585Y-22498934D01*
X45744622Y-22513483D01*
X45688609Y-22519000D01*
X44938391Y-22519000D01*
X44882378Y-22513483D01*
X44834415Y-22498934D01*
X44790225Y-22475314D01*
X44751482Y-22443518D01*
X44719686Y-22404775D01*
X44696066Y-22360585D01*
X44681517Y-22312622D01*
X44676000Y-22256609D01*
X44676000Y-21431391D01*
X44681517Y-21375378D01*
X44696066Y-21327415D01*
X44719686Y-21283225D01*
X44751482Y-21244482D01*
X44790225Y-21212686D01*
X44834415Y-21189066D01*
X44882378Y-21174517D01*
X44938391Y-21169000D01*
X45688609Y-21169000D01*
X45744622Y-21174517D01*
X45744622Y-21174517D01*
G37*
G36*
X40434826Y-18219576D02*
X40510226Y-18242448D01*
X40585628Y-18265321D01*
X40724604Y-18339606D01*
X40724606Y-18339607D01*
X40724605Y-18339607D01*
X40846422Y-18439578D01*
X40846423Y-18439580D01*
X40846425Y-18439581D01*
X40946392Y-18561392D01*
X41020679Y-18700371D01*
X41066424Y-18851174D01*
X41078000Y-18968705D01*
X41078000Y-19847294D01*
X41074444Y-19883396D01*
X41074444Y-19907900D01*
X41079224Y-19931934D01*
X41088601Y-19954573D01*
X41102215Y-19974948D01*
X41119542Y-19992275D01*
X41139917Y-20005889D01*
X41162556Y-20015266D01*
X41186589Y-20020047D01*
X41211093Y-20020047D01*
X41235127Y-20015267D01*
X41257766Y-20005890D01*
X41278140Y-19992276D01*
X41281392Y-19989608D01*
X41420371Y-19915321D01*
X41525615Y-19883396D01*
X41571173Y-19869576D01*
X41610351Y-19865717D01*
X41688705Y-19858000D01*
X42567295Y-19858000D01*
X42645649Y-19865717D01*
X42684827Y-19869576D01*
X42730385Y-19883396D01*
X42835629Y-19915321D01*
X42974608Y-19989608D01*
X43096422Y-20089578D01*
X43196392Y-20211392D01*
X43270679Y-20350371D01*
X43316424Y-20501174D01*
X43331870Y-20658000D01*
X43316424Y-20814826D01*
X43270679Y-20965629D01*
X43196392Y-21104608D01*
X43096422Y-21226422D01*
X42974608Y-21326392D01*
X42835629Y-21400679D01*
X42760228Y-21423551D01*
X42684827Y-21446424D01*
X42645649Y-21450283D01*
X42567295Y-21458000D01*
X41688705Y-21458000D01*
X41610351Y-21450283D01*
X41571173Y-21446424D01*
X41495772Y-21423551D01*
X41420371Y-21400679D01*
X41281392Y-21326392D01*
X41159578Y-21226422D01*
X41059608Y-21104608D01*
X40985321Y-20965629D01*
X40939576Y-20814826D01*
X40924130Y-20658000D01*
X40931556Y-20582604D01*
X40931556Y-20558099D01*
X40926776Y-20534066D01*
X40917398Y-20511427D01*
X40903785Y-20491052D01*
X40886458Y-20473725D01*
X40866083Y-20460111D01*
X40843444Y-20450734D01*
X40819411Y-20445953D01*
X40794906Y-20445953D01*
X40770873Y-20450733D01*
X40748234Y-20460111D01*
X40727860Y-20473724D01*
X40724608Y-20476392D01*
X40585629Y-20550679D01*
X40561168Y-20558099D01*
X40434827Y-20596424D01*
X40278000Y-20611870D01*
X40121174Y-20596424D01*
X39994833Y-20558099D01*
X39970372Y-20550679D01*
X39831393Y-20476392D01*
X39709579Y-20376422D01*
X39624627Y-20272908D01*
X39607300Y-20255581D01*
X39586926Y-20241967D01*
X39564287Y-20232589D01*
X39540253Y-20227809D01*
X39515749Y-20227809D01*
X39491716Y-20232589D01*
X39469076Y-20241967D01*
X39448702Y-20255581D01*
X39431375Y-20272907D01*
X39346420Y-20376424D01*
X39224608Y-20476392D01*
X39085629Y-20550679D01*
X39061168Y-20558099D01*
X38934827Y-20596424D01*
X38778000Y-20611870D01*
X38621174Y-20596424D01*
X38494833Y-20558099D01*
X38470372Y-20550679D01*
X38331393Y-20476392D01*
X38209579Y-20376422D01*
X38124627Y-20272908D01*
X38107300Y-20255581D01*
X38086926Y-20241967D01*
X38064287Y-20232589D01*
X38040253Y-20227809D01*
X38015749Y-20227809D01*
X37991716Y-20232589D01*
X37969076Y-20241967D01*
X37948702Y-20255581D01*
X37931375Y-20272907D01*
X37846420Y-20376424D01*
X37724608Y-20476392D01*
X37585629Y-20550679D01*
X37561168Y-20558099D01*
X37434827Y-20596424D01*
X37278000Y-20611870D01*
X37121174Y-20596424D01*
X36994833Y-20558099D01*
X36970372Y-20550679D01*
X36831393Y-20476392D01*
X36709579Y-20376422D01*
X36609609Y-20254608D01*
X36535322Y-20115629D01*
X36489577Y-19964826D01*
X36478000Y-19847294D01*
X36478000Y-18968706D01*
X36489576Y-18851175D01*
X36489577Y-18851173D01*
X36535321Y-18700373D01*
X36535321Y-18700372D01*
X36609606Y-18561396D01*
X36709576Y-18439581D01*
X36709578Y-18439578D01*
X36709580Y-18439577D01*
X36709581Y-18439575D01*
X36831392Y-18339608D01*
X36970371Y-18265321D01*
X37045772Y-18242449D01*
X37121173Y-18219576D01*
X37278000Y-18204130D01*
X37434826Y-18219576D01*
X37510226Y-18242448D01*
X37585628Y-18265321D01*
X37724604Y-18339606D01*
X37724606Y-18339607D01*
X37724605Y-18339607D01*
X37846422Y-18439578D01*
X37846423Y-18439580D01*
X37846425Y-18439581D01*
X37931374Y-18543092D01*
X37948701Y-18560419D01*
X37969075Y-18574033D01*
X37991714Y-18583411D01*
X38015748Y-18588191D01*
X38040252Y-18588191D01*
X38064285Y-18583411D01*
X38086925Y-18574033D01*
X38107299Y-18560419D01*
X38124626Y-18543092D01*
X38209578Y-18439578D01*
X38331392Y-18339608D01*
X38470371Y-18265321D01*
X38545772Y-18242449D01*
X38621173Y-18219576D01*
X38778000Y-18204130D01*
X38934826Y-18219576D01*
X39010226Y-18242448D01*
X39085628Y-18265321D01*
X39224604Y-18339606D01*
X39224606Y-18339607D01*
X39224605Y-18339607D01*
X39346422Y-18439578D01*
X39346423Y-18439580D01*
X39346425Y-18439581D01*
X39431374Y-18543092D01*
X39448701Y-18560419D01*
X39469075Y-18574033D01*
X39491714Y-18583411D01*
X39515748Y-18588191D01*
X39540252Y-18588191D01*
X39564285Y-18583411D01*
X39586925Y-18574033D01*
X39607299Y-18560419D01*
X39624626Y-18543092D01*
X39709578Y-18439578D01*
X39831392Y-18339608D01*
X39970371Y-18265321D01*
X40045772Y-18242449D01*
X40121173Y-18219576D01*
X40278000Y-18204130D01*
X40434826Y-18219576D01*
X40434826Y-18219576D01*
G37*
G36*
X23934826Y-18219576D02*
X24010226Y-18242448D01*
X24085628Y-18265321D01*
X24224604Y-18339606D01*
X24224606Y-18339607D01*
X24224605Y-18339607D01*
X24346422Y-18439578D01*
X24346423Y-18439580D01*
X24346425Y-18439581D01*
X24446392Y-18561392D01*
X24520679Y-18700371D01*
X24566424Y-18851174D01*
X24578000Y-18968705D01*
X24578000Y-19847295D01*
X24566424Y-19964826D01*
X24520679Y-20115629D01*
X24446392Y-20254608D01*
X24346422Y-20376422D01*
X24224608Y-20476392D01*
X24085629Y-20550679D01*
X24061168Y-20558099D01*
X23934827Y-20596424D01*
X23778000Y-20611870D01*
X23621174Y-20596424D01*
X23494833Y-20558099D01*
X23470372Y-20550679D01*
X23331393Y-20476392D01*
X23209579Y-20376422D01*
X23124627Y-20272908D01*
X23107300Y-20255581D01*
X23086926Y-20241967D01*
X23064287Y-20232589D01*
X23040253Y-20227809D01*
X23015749Y-20227809D01*
X22991716Y-20232589D01*
X22969076Y-20241967D01*
X22948702Y-20255581D01*
X22931375Y-20272907D01*
X22846420Y-20376424D01*
X22724608Y-20476392D01*
X22585629Y-20550679D01*
X22561168Y-20558099D01*
X22434827Y-20596424D01*
X22278000Y-20611870D01*
X22121174Y-20596424D01*
X21994833Y-20558099D01*
X21970372Y-20550679D01*
X21831393Y-20476392D01*
X21709579Y-20376422D01*
X21609609Y-20254608D01*
X21535322Y-20115629D01*
X21489577Y-19964826D01*
X21478000Y-19847294D01*
X21478000Y-18968706D01*
X21489576Y-18851175D01*
X21489577Y-18851173D01*
X21535321Y-18700373D01*
X21535321Y-18700372D01*
X21609606Y-18561396D01*
X21709576Y-18439581D01*
X21709578Y-18439578D01*
X21709580Y-18439577D01*
X21709581Y-18439575D01*
X21831392Y-18339608D01*
X21970371Y-18265321D01*
X22045772Y-18242449D01*
X22121173Y-18219576D01*
X22278000Y-18204130D01*
X22434826Y-18219576D01*
X22510226Y-18242448D01*
X22585628Y-18265321D01*
X22724604Y-18339606D01*
X22724606Y-18339607D01*
X22724605Y-18339607D01*
X22846422Y-18439578D01*
X22846423Y-18439580D01*
X22846425Y-18439581D01*
X22931374Y-18543092D01*
X22948701Y-18560419D01*
X22969075Y-18574033D01*
X22991714Y-18583411D01*
X23015748Y-18588191D01*
X23040252Y-18588191D01*
X23064285Y-18583411D01*
X23086925Y-18574033D01*
X23107299Y-18560419D01*
X23124626Y-18543092D01*
X23209578Y-18439578D01*
X23331392Y-18339608D01*
X23470371Y-18265321D01*
X23545772Y-18242449D01*
X23621173Y-18219576D01*
X23778000Y-18204130D01*
X23934826Y-18219576D01*
X23934826Y-18219576D01*
G37*
G36*
X44959707Y-18325097D02*
X45036836Y-18332693D01*
X45168787Y-18372720D01*
X45234763Y-18392733D01*
X45417172Y-18490233D01*
X45577054Y-18621446D01*
X45708267Y-18781328D01*
X45805767Y-18963737D01*
X45807275Y-18968708D01*
X45865807Y-19161664D01*
X45886080Y-19367500D01*
X45865807Y-19573336D01*
X45825780Y-19705287D01*
X45805767Y-19771263D01*
X45708267Y-19953672D01*
X45577054Y-20113554D01*
X45417172Y-20244767D01*
X45234763Y-20342267D01*
X45168787Y-20362280D01*
X45036836Y-20402307D01*
X44959707Y-20409904D01*
X44882580Y-20417500D01*
X44779420Y-20417500D01*
X44702293Y-20409904D01*
X44625164Y-20402307D01*
X44493213Y-20362280D01*
X44427237Y-20342267D01*
X44244828Y-20244767D01*
X44084946Y-20113554D01*
X43953733Y-19953672D01*
X43856233Y-19771263D01*
X43836220Y-19705287D01*
X43796193Y-19573336D01*
X43775920Y-19367500D01*
X43796193Y-19161664D01*
X43854725Y-18968708D01*
X43856233Y-18963737D01*
X43953733Y-18781328D01*
X44084946Y-18621446D01*
X44244828Y-18490233D01*
X44427237Y-18392733D01*
X44493213Y-18372720D01*
X44625164Y-18332693D01*
X44702293Y-18325097D01*
X44779420Y-18317500D01*
X44882580Y-18317500D01*
X44959707Y-18325097D01*
X44959707Y-18325097D01*
G37*
G36*
X47499707Y-18325097D02*
X47576836Y-18332693D01*
X47708787Y-18372720D01*
X47774763Y-18392733D01*
X47957172Y-18490233D01*
X48117054Y-18621446D01*
X48248267Y-18781328D01*
X48345767Y-18963737D01*
X48347275Y-18968708D01*
X48405807Y-19161664D01*
X48426080Y-19367500D01*
X48405807Y-19573336D01*
X48365780Y-19705287D01*
X48345767Y-19771263D01*
X48248267Y-19953672D01*
X48117054Y-20113554D01*
X47957172Y-20244767D01*
X47774763Y-20342267D01*
X47708787Y-20362280D01*
X47576836Y-20402307D01*
X47499707Y-20409904D01*
X47422580Y-20417500D01*
X47319420Y-20417500D01*
X47242293Y-20409904D01*
X47165164Y-20402307D01*
X47033213Y-20362280D01*
X46967237Y-20342267D01*
X46784828Y-20244767D01*
X46624946Y-20113554D01*
X46493733Y-19953672D01*
X46396233Y-19771263D01*
X46376220Y-19705287D01*
X46336193Y-19573336D01*
X46315920Y-19367500D01*
X46336193Y-19161664D01*
X46394725Y-18968708D01*
X46396233Y-18963737D01*
X46493733Y-18781328D01*
X46624946Y-18621446D01*
X46784828Y-18490233D01*
X46967237Y-18392733D01*
X47033213Y-18372720D01*
X47165164Y-18332693D01*
X47242293Y-18325097D01*
X47319420Y-18317500D01*
X47422580Y-18317500D01*
X47499707Y-18325097D01*
X47499707Y-18325097D01*
G37*
G36*
X50039707Y-18325097D02*
X50116836Y-18332693D01*
X50248787Y-18372720D01*
X50314763Y-18392733D01*
X50497172Y-18490233D01*
X50657054Y-18621446D01*
X50788267Y-18781328D01*
X50885767Y-18963737D01*
X50887275Y-18968708D01*
X50945807Y-19161664D01*
X50966080Y-19367500D01*
X50945807Y-19573336D01*
X50905780Y-19705287D01*
X50885767Y-19771263D01*
X50788267Y-19953672D01*
X50657054Y-20113554D01*
X50497172Y-20244767D01*
X50314763Y-20342267D01*
X50248787Y-20362280D01*
X50116836Y-20402307D01*
X50039707Y-20409904D01*
X49962580Y-20417500D01*
X49859420Y-20417500D01*
X49782293Y-20409904D01*
X49705164Y-20402307D01*
X49573213Y-20362280D01*
X49507237Y-20342267D01*
X49324828Y-20244767D01*
X49164946Y-20113554D01*
X49033733Y-19953672D01*
X48936233Y-19771263D01*
X48916220Y-19705287D01*
X48876193Y-19573336D01*
X48855920Y-19367500D01*
X48876193Y-19161664D01*
X48934725Y-18968708D01*
X48936233Y-18963737D01*
X49033733Y-18781328D01*
X49164946Y-18621446D01*
X49324828Y-18490233D01*
X49507237Y-18392733D01*
X49573213Y-18372720D01*
X49705164Y-18332693D01*
X49782293Y-18325097D01*
X49859420Y-18317500D01*
X49962580Y-18317500D01*
X50039707Y-18325097D01*
X50039707Y-18325097D01*
G37*
G36*
X52579707Y-18325097D02*
X52656836Y-18332693D01*
X52788787Y-18372720D01*
X52854763Y-18392733D01*
X53037172Y-18490233D01*
X53197054Y-18621446D01*
X53328267Y-18781328D01*
X53425767Y-18963737D01*
X53427275Y-18968708D01*
X53485807Y-19161664D01*
X53506080Y-19367500D01*
X53485807Y-19573336D01*
X53445780Y-19705287D01*
X53425767Y-19771263D01*
X53328267Y-19953672D01*
X53197054Y-20113554D01*
X53037172Y-20244767D01*
X52854763Y-20342267D01*
X52788787Y-20362280D01*
X52656836Y-20402307D01*
X52579707Y-20409904D01*
X52502580Y-20417500D01*
X52399420Y-20417500D01*
X52322293Y-20409904D01*
X52245164Y-20402307D01*
X52113213Y-20362280D01*
X52047237Y-20342267D01*
X51864828Y-20244767D01*
X51704946Y-20113554D01*
X51573733Y-19953672D01*
X51476233Y-19771263D01*
X51456220Y-19705287D01*
X51416193Y-19573336D01*
X51395920Y-19367500D01*
X51416193Y-19161664D01*
X51474725Y-18968708D01*
X51476233Y-18963737D01*
X51573733Y-18781328D01*
X51704946Y-18621446D01*
X51864828Y-18490233D01*
X52047237Y-18392733D01*
X52113213Y-18372720D01*
X52245164Y-18332693D01*
X52322293Y-18325097D01*
X52399420Y-18317500D01*
X52502580Y-18317500D01*
X52579707Y-18325097D01*
X52579707Y-18325097D01*
G37*
G36*
X56041000Y-20417500D02*
X53941000Y-20417500D01*
X53941000Y-18317500D01*
X56041000Y-18317500D01*
X56041000Y-20417500D01*
X56041000Y-20417500D01*
G37*
M02*
