G04 #@! TF.GenerationSoftware,KiCad,Pcbnew,(5.0.0)*
G04 #@! TF.CreationDate,2019-01-26T11:16:20+03:00*
G04 #@! TF.ProjectId,stm32mc,73746D33326D632E6B696361645F7063,rev?*
G04 #@! TF.SameCoordinates,Original*
G04 #@! TF.FileFunction,Other,Fab,Top*
%FSLAX46Y46*%
G04 Gerber Fmt 4.6, Leading zero omitted, Abs format (unit mm)*
G04 Created by KiCad (PCBNEW (5.0.0)) date 01/26/19 11:16:20*
%MOMM*%
%LPD*%
G01*
G04 APERTURE LIST*
%ADD10C,0.150000*%
%ADD11C,0.100000*%
%ADD12C,0.120000*%
%ADD13C,0.060000*%
G04 APERTURE END LIST*
D10*
X58531000Y-19050000D02*
G75*
G03X58531000Y-19050000I-1000000J0D01*
G01*
X32512000Y-40386000D02*
G75*
G03X32512000Y-40386000I-1000000J0D01*
G01*
X59055000Y-42291000D02*
X59055000Y-17526000D01*
X59024000Y-17507000D02*
X21082000Y-17526000D01*
X21082000Y-42291000D02*
X59055000Y-42291000D01*
X21082000Y-17526000D02*
X21082000Y-42291000D01*
G04 #@! TO.C,D1*
X16278000Y-30908000D02*
X19278000Y-30908000D01*
X16278000Y-28908000D02*
X19278000Y-28908000D01*
X16278000Y-26908000D02*
X19278000Y-26908000D01*
X16278000Y-24908000D02*
X19278000Y-24908000D01*
X16278000Y-22908000D02*
X19278000Y-22908000D01*
X16278000Y-20908000D02*
X16278000Y-22908000D01*
X19278000Y-22908000D02*
X19278000Y-24908000D01*
X16278000Y-24908000D02*
X16278000Y-26908000D01*
X19278000Y-26908000D02*
X19278000Y-28908000D01*
X16278000Y-28908000D02*
X16278000Y-30908000D01*
X42028000Y-32408000D02*
X42028000Y-19408000D01*
X42028000Y-19408000D02*
X15278000Y-19408000D01*
X20528000Y-19408000D02*
X20528000Y-32408000D01*
X15278000Y-32408000D02*
X42028000Y-32408000D01*
X15278000Y-19408000D02*
X15278000Y-32408000D01*
D11*
G04 #@! TO.C,C1*
X47986000Y-31039000D02*
X47986000Y-34239000D01*
X45486000Y-31039000D02*
X47986000Y-31039000D01*
X45486000Y-34239000D02*
X45486000Y-31039000D01*
X47986000Y-34239000D02*
X45486000Y-34239000D01*
G04 #@! TO.C,C5*
X44088000Y-27978000D02*
X43288000Y-27978000D01*
X43288000Y-27978000D02*
X43288000Y-26378000D01*
X43288000Y-26378000D02*
X44088000Y-26378000D01*
X44088000Y-26378000D02*
X44088000Y-27978000D01*
G04 #@! TO.C,C6*
X47732000Y-28778000D02*
X45232000Y-28778000D01*
X45232000Y-28778000D02*
X45232000Y-25578000D01*
X45232000Y-25578000D02*
X47732000Y-25578000D01*
X47732000Y-25578000D02*
X47732000Y-28778000D01*
G04 #@! TO.C,U1*
X52125000Y-26352000D02*
X53125000Y-25352000D01*
X52125000Y-26352000D02*
X52125000Y-32052000D01*
X53125000Y-25352000D02*
X55825000Y-25352000D01*
X52125000Y-32052000D02*
X55825000Y-32052000D01*
X55825000Y-25352000D02*
X55825000Y-32052000D01*
G04 #@! TO.C,R16*
X22206000Y-35141000D02*
X23006000Y-35141000D01*
X23006000Y-35141000D02*
X23006000Y-36741000D01*
X23006000Y-36741000D02*
X22206000Y-36741000D01*
X22206000Y-36741000D02*
X22206000Y-35141000D01*
G04 #@! TO.C,VD1*
X22206000Y-38570000D02*
X22206000Y-39870000D01*
X22206000Y-39870000D02*
X22506000Y-40170000D01*
X22506000Y-40170000D02*
X23006000Y-40170000D01*
X23006000Y-40170000D02*
X23006000Y-38570000D01*
X23006000Y-38570000D02*
X22206000Y-38570000D01*
G04 #@! TO.C,C11*
X46901000Y-21444000D02*
X46901000Y-22244000D01*
X46901000Y-22244000D02*
X45301000Y-22244000D01*
X45301000Y-22244000D02*
X45301000Y-21444000D01*
X45301000Y-21444000D02*
X46901000Y-21444000D01*
G04 #@! TO.C,J6*
X56261000Y-18732500D02*
X56261000Y-20637500D01*
X56261000Y-20637500D02*
X43561000Y-20637500D01*
X43561000Y-20637500D02*
X43561000Y-18097500D01*
X43561000Y-18097500D02*
X55626000Y-18097500D01*
X55626000Y-18097500D02*
X56261000Y-18732500D01*
G04 #@! TD*
G04 #@! TO.C,D1*
D10*
X33482761Y-28312761D02*
X33530380Y-28169904D01*
X33530380Y-27931809D01*
X33482761Y-27836571D01*
X33435142Y-27788952D01*
X33339904Y-27741333D01*
X33244666Y-27741333D01*
X33149428Y-27788952D01*
X33101809Y-27836571D01*
X33054190Y-27931809D01*
X33006571Y-28122285D01*
X32958952Y-28217523D01*
X32911333Y-28265142D01*
X32816095Y-28312761D01*
X32720857Y-28312761D01*
X32625619Y-28265142D01*
X32578000Y-28217523D01*
X32530380Y-28122285D01*
X32530380Y-27884190D01*
X32578000Y-27741333D01*
X33530380Y-27312761D02*
X32530380Y-27312761D01*
X32530380Y-26931809D01*
X32578000Y-26836571D01*
X32625619Y-26788952D01*
X32720857Y-26741333D01*
X32863714Y-26741333D01*
X32958952Y-26788952D01*
X33006571Y-26836571D01*
X33054190Y-26931809D01*
X33054190Y-27312761D01*
X33530380Y-26312761D02*
X32530380Y-26312761D01*
X32530380Y-25931809D01*
X32578000Y-25836571D01*
X32625619Y-25788952D01*
X32720857Y-25741333D01*
X32863714Y-25741333D01*
X32958952Y-25788952D01*
X33006571Y-25836571D01*
X33054190Y-25931809D01*
X33054190Y-26312761D01*
X33149428Y-25312761D02*
X33149428Y-24550857D01*
X33435142Y-23503238D02*
X33482761Y-23550857D01*
X33530380Y-23693714D01*
X33530380Y-23788952D01*
X33482761Y-23931809D01*
X33387523Y-24027047D01*
X33292285Y-24074666D01*
X33101809Y-24122285D01*
X32958952Y-24122285D01*
X32768476Y-24074666D01*
X32673238Y-24027047D01*
X32578000Y-23931809D01*
X32530380Y-23788952D01*
X32530380Y-23693714D01*
X32578000Y-23550857D01*
X32625619Y-23503238D01*
X31480380Y-26646095D02*
X30480380Y-26646095D01*
X30480380Y-26408000D01*
X30528000Y-26265142D01*
X30623238Y-26169904D01*
X30718476Y-26122285D01*
X30908952Y-26074666D01*
X31051809Y-26074666D01*
X31242285Y-26122285D01*
X31337523Y-26169904D01*
X31432761Y-26265142D01*
X31480380Y-26408000D01*
X31480380Y-26646095D01*
X31480380Y-25122285D02*
X31480380Y-25693714D01*
X31480380Y-25408000D02*
X30480380Y-25408000D01*
X30623238Y-25503238D01*
X30718476Y-25598476D01*
X30766095Y-25693714D01*
G04 #@! TO.C,C1*
X44908047Y-29663714D02*
X44908047Y-30330380D01*
X44669952Y-29282761D02*
X44431857Y-29997047D01*
X45050904Y-29997047D01*
X45336619Y-29330380D02*
X46003285Y-29330380D01*
X45574714Y-30330380D01*
X46384238Y-30235142D02*
X46431857Y-30282761D01*
X46384238Y-30330380D01*
X46336619Y-30282761D01*
X46384238Y-30235142D01*
X46384238Y-30330380D01*
X47050904Y-29330380D02*
X47146142Y-29330380D01*
X47241380Y-29378000D01*
X47289000Y-29425619D01*
X47336619Y-29520857D01*
X47384238Y-29711333D01*
X47384238Y-29949428D01*
X47336619Y-30139904D01*
X47289000Y-30235142D01*
X47241380Y-30282761D01*
X47146142Y-30330380D01*
X47050904Y-30330380D01*
X46955666Y-30282761D01*
X46908047Y-30235142D01*
X46860428Y-30139904D01*
X46812809Y-29949428D01*
X46812809Y-29711333D01*
X46860428Y-29520857D01*
X46908047Y-29425619D01*
X46955666Y-29378000D01*
X47050904Y-29330380D01*
X48241380Y-29663714D02*
X48241380Y-30330380D01*
X47812809Y-29663714D02*
X47812809Y-30187523D01*
X47860428Y-30282761D01*
X47955666Y-30330380D01*
X48098523Y-30330380D01*
X48193761Y-30282761D01*
X48241380Y-30235142D01*
X49050904Y-29806571D02*
X48717571Y-29806571D01*
X48717571Y-30330380D02*
X48717571Y-29330380D01*
X49193761Y-29330380D01*
D12*
X46602666Y-32794714D02*
X46564571Y-32832809D01*
X46450285Y-32870904D01*
X46374095Y-32870904D01*
X46259809Y-32832809D01*
X46183619Y-32756619D01*
X46145523Y-32680428D01*
X46107428Y-32528047D01*
X46107428Y-32413761D01*
X46145523Y-32261380D01*
X46183619Y-32185190D01*
X46259809Y-32109000D01*
X46374095Y-32070904D01*
X46450285Y-32070904D01*
X46564571Y-32109000D01*
X46602666Y-32147095D01*
X47364571Y-32870904D02*
X46907428Y-32870904D01*
X47136000Y-32870904D02*
X47136000Y-32070904D01*
X47059809Y-32185190D01*
X46983619Y-32261380D01*
X46907428Y-32299476D01*
G04 #@! TO.C,C5*
D10*
X41928142Y-28205380D02*
X42023380Y-28205380D01*
X42118619Y-28253000D01*
X42166238Y-28300619D01*
X42213857Y-28395857D01*
X42261476Y-28586333D01*
X42261476Y-28824428D01*
X42213857Y-29014904D01*
X42166238Y-29110142D01*
X42118619Y-29157761D01*
X42023380Y-29205380D01*
X41928142Y-29205380D01*
X41832904Y-29157761D01*
X41785285Y-29110142D01*
X41737666Y-29014904D01*
X41690047Y-28824428D01*
X41690047Y-28586333D01*
X41737666Y-28395857D01*
X41785285Y-28300619D01*
X41832904Y-28253000D01*
X41928142Y-28205380D01*
X42690047Y-29110142D02*
X42737666Y-29157761D01*
X42690047Y-29205380D01*
X42642428Y-29157761D01*
X42690047Y-29110142D01*
X42690047Y-29205380D01*
X43690047Y-29205380D02*
X43118619Y-29205380D01*
X43404333Y-29205380D02*
X43404333Y-28205380D01*
X43309095Y-28348238D01*
X43213857Y-28443476D01*
X43118619Y-28491095D01*
X44547190Y-28538714D02*
X44547190Y-29205380D01*
X44118619Y-28538714D02*
X44118619Y-29062523D01*
X44166238Y-29157761D01*
X44261476Y-29205380D01*
X44404333Y-29205380D01*
X44499571Y-29157761D01*
X44547190Y-29110142D01*
X45356714Y-28681571D02*
X45023380Y-28681571D01*
X45023380Y-29205380D02*
X45023380Y-28205380D01*
X45499571Y-28205380D01*
D13*
X43830857Y-27244666D02*
X43849904Y-27263714D01*
X43868952Y-27320857D01*
X43868952Y-27358952D01*
X43849904Y-27416095D01*
X43811809Y-27454190D01*
X43773714Y-27473238D01*
X43697523Y-27492285D01*
X43640380Y-27492285D01*
X43564190Y-27473238D01*
X43526095Y-27454190D01*
X43488000Y-27416095D01*
X43468952Y-27358952D01*
X43468952Y-27320857D01*
X43488000Y-27263714D01*
X43507047Y-27244666D01*
X43468952Y-26882761D02*
X43468952Y-27073238D01*
X43659428Y-27092285D01*
X43640380Y-27073238D01*
X43621333Y-27035142D01*
X43621333Y-26939904D01*
X43640380Y-26901809D01*
X43659428Y-26882761D01*
X43697523Y-26863714D01*
X43792761Y-26863714D01*
X43830857Y-26882761D01*
X43849904Y-26901809D01*
X43868952Y-26939904D01*
X43868952Y-27035142D01*
X43849904Y-27073238D01*
X43830857Y-27092285D01*
G04 #@! TO.C,C6*
D10*
X45408333Y-24220714D02*
X45408333Y-24887380D01*
X45170238Y-23839761D02*
X44932142Y-24554047D01*
X45551190Y-24554047D01*
X45836904Y-23887380D02*
X46503571Y-23887380D01*
X46075000Y-24887380D01*
X47313095Y-24220714D02*
X47313095Y-24887380D01*
X46884523Y-24220714D02*
X46884523Y-24744523D01*
X46932142Y-24839761D01*
X47027380Y-24887380D01*
X47170238Y-24887380D01*
X47265476Y-24839761D01*
X47313095Y-24792142D01*
X48122619Y-24363571D02*
X47789285Y-24363571D01*
X47789285Y-24887380D02*
X47789285Y-23887380D01*
X48265476Y-23887380D01*
D12*
X46348666Y-27463714D02*
X46310571Y-27501809D01*
X46196285Y-27539904D01*
X46120095Y-27539904D01*
X46005809Y-27501809D01*
X45929619Y-27425619D01*
X45891523Y-27349428D01*
X45853428Y-27197047D01*
X45853428Y-27082761D01*
X45891523Y-26930380D01*
X45929619Y-26854190D01*
X46005809Y-26778000D01*
X46120095Y-26739904D01*
X46196285Y-26739904D01*
X46310571Y-26778000D01*
X46348666Y-26816095D01*
X47034380Y-26739904D02*
X46882000Y-26739904D01*
X46805809Y-26778000D01*
X46767714Y-26816095D01*
X46691523Y-26930380D01*
X46653428Y-27082761D01*
X46653428Y-27387523D01*
X46691523Y-27463714D01*
X46729619Y-27501809D01*
X46805809Y-27539904D01*
X46958190Y-27539904D01*
X47034380Y-27501809D01*
X47072476Y-27463714D01*
X47110571Y-27387523D01*
X47110571Y-27197047D01*
X47072476Y-27120857D01*
X47034380Y-27082761D01*
X46958190Y-27044666D01*
X46805809Y-27044666D01*
X46729619Y-27082761D01*
X46691523Y-27120857D01*
X46653428Y-27197047D01*
G04 #@! TO.C,U1*
D10*
X49584714Y-33092666D02*
X50060904Y-33092666D01*
X49489476Y-33378380D02*
X49822809Y-32378380D01*
X50156142Y-33378380D01*
X50489476Y-33378380D02*
X50489476Y-32378380D01*
X50870428Y-32378380D01*
X50965666Y-32426000D01*
X51013285Y-32473619D01*
X51060904Y-32568857D01*
X51060904Y-32711714D01*
X51013285Y-32806952D01*
X50965666Y-32854571D01*
X50870428Y-32902190D01*
X50489476Y-32902190D01*
X52013285Y-33378380D02*
X51441857Y-33378380D01*
X51727571Y-33378380D02*
X51727571Y-32378380D01*
X51632333Y-32521238D01*
X51537095Y-32616476D01*
X51441857Y-32664095D01*
X52965666Y-33378380D02*
X52394238Y-33378380D01*
X52679952Y-33378380D02*
X52679952Y-32378380D01*
X52584714Y-32521238D01*
X52489476Y-32616476D01*
X52394238Y-32664095D01*
X53918047Y-33378380D02*
X53346619Y-33378380D01*
X53632333Y-33378380D02*
X53632333Y-32378380D01*
X53537095Y-32521238D01*
X53441857Y-32616476D01*
X53346619Y-32664095D01*
X54251380Y-32378380D02*
X54918047Y-32378380D01*
X54489476Y-33378380D01*
X55299000Y-32997428D02*
X56060904Y-32997428D01*
X56441857Y-32378380D02*
X57060904Y-32378380D01*
X56727571Y-32759333D01*
X56870428Y-32759333D01*
X56965666Y-32806952D01*
X57013285Y-32854571D01*
X57060904Y-32949809D01*
X57060904Y-33187904D01*
X57013285Y-33283142D01*
X56965666Y-33330761D01*
X56870428Y-33378380D01*
X56584714Y-33378380D01*
X56489476Y-33330761D01*
X56441857Y-33283142D01*
X57394238Y-32378380D02*
X58013285Y-32378380D01*
X57679952Y-32759333D01*
X57822809Y-32759333D01*
X57918047Y-32806952D01*
X57965666Y-32854571D01*
X58013285Y-32949809D01*
X58013285Y-33187904D01*
X57965666Y-33283142D01*
X57918047Y-33330761D01*
X57822809Y-33378380D01*
X57537095Y-33378380D01*
X57441857Y-33330761D01*
X57394238Y-33283142D01*
D12*
X53365476Y-28263904D02*
X53365476Y-28911523D01*
X53403571Y-28987714D01*
X53441666Y-29025809D01*
X53517857Y-29063904D01*
X53670238Y-29063904D01*
X53746428Y-29025809D01*
X53784523Y-28987714D01*
X53822619Y-28911523D01*
X53822619Y-28263904D01*
X54622619Y-29063904D02*
X54165476Y-29063904D01*
X54394047Y-29063904D02*
X54394047Y-28263904D01*
X54317857Y-28378190D01*
X54241666Y-28454380D01*
X54165476Y-28492476D01*
G04 #@! TO.C,R16*
D10*
X24668380Y-36423285D02*
X24668380Y-36994714D01*
X24668380Y-36709000D02*
X23668380Y-36709000D01*
X23811238Y-36804238D01*
X23906476Y-36899476D01*
X23954095Y-36994714D01*
X24668380Y-35994714D02*
X23668380Y-35994714D01*
X24668380Y-35423285D02*
X24096952Y-35851857D01*
X23668380Y-35423285D02*
X24239809Y-35994714D01*
D13*
X22786952Y-36198142D02*
X22596476Y-36331476D01*
X22786952Y-36426714D02*
X22386952Y-36426714D01*
X22386952Y-36274333D01*
X22406000Y-36236238D01*
X22425047Y-36217190D01*
X22463142Y-36198142D01*
X22520285Y-36198142D01*
X22558380Y-36217190D01*
X22577428Y-36236238D01*
X22596476Y-36274333D01*
X22596476Y-36426714D01*
X22786952Y-35817190D02*
X22786952Y-36045761D01*
X22786952Y-35931476D02*
X22386952Y-35931476D01*
X22444095Y-35969571D01*
X22482190Y-36007666D01*
X22501238Y-36045761D01*
X22386952Y-35474333D02*
X22386952Y-35550523D01*
X22406000Y-35588619D01*
X22425047Y-35607666D01*
X22482190Y-35645761D01*
X22558380Y-35664809D01*
X22710761Y-35664809D01*
X22748857Y-35645761D01*
X22767904Y-35626714D01*
X22786952Y-35588619D01*
X22786952Y-35512428D01*
X22767904Y-35474333D01*
X22748857Y-35455285D01*
X22710761Y-35436238D01*
X22615523Y-35436238D01*
X22577428Y-35455285D01*
X22558380Y-35474333D01*
X22539333Y-35512428D01*
X22539333Y-35588619D01*
X22558380Y-35626714D01*
X22577428Y-35645761D01*
X22615523Y-35664809D01*
G04 #@! TO.C,VD1*
D10*
X24488380Y-40012857D02*
X24488380Y-40489047D01*
X23488380Y-40489047D01*
X23964571Y-39679523D02*
X23964571Y-39346190D01*
X24488380Y-39203333D02*
X24488380Y-39679523D01*
X23488380Y-39679523D01*
X23488380Y-39203333D01*
X24488380Y-38774761D02*
X23488380Y-38774761D01*
X23488380Y-38536666D01*
X23536000Y-38393809D01*
X23631238Y-38298571D01*
X23726476Y-38250952D01*
X23916952Y-38203333D01*
X24059809Y-38203333D01*
X24250285Y-38250952D01*
X24345523Y-38298571D01*
X24440761Y-38393809D01*
X24488380Y-38536666D01*
X24488380Y-38774761D01*
D13*
X22386952Y-39893809D02*
X22786952Y-39760476D01*
X22386952Y-39627142D01*
X22786952Y-39493809D02*
X22386952Y-39493809D01*
X22386952Y-39398571D01*
X22406000Y-39341428D01*
X22444095Y-39303333D01*
X22482190Y-39284285D01*
X22558380Y-39265238D01*
X22615523Y-39265238D01*
X22691714Y-39284285D01*
X22729809Y-39303333D01*
X22767904Y-39341428D01*
X22786952Y-39398571D01*
X22786952Y-39493809D01*
X22786952Y-38884285D02*
X22786952Y-39112857D01*
X22786952Y-38998571D02*
X22386952Y-38998571D01*
X22444095Y-39036666D01*
X22482190Y-39074761D01*
X22501238Y-39112857D01*
G04 #@! TO.C,C11*
D10*
X44458142Y-19866380D02*
X44553380Y-19866380D01*
X44648619Y-19914000D01*
X44696238Y-19961619D01*
X44743857Y-20056857D01*
X44791476Y-20247333D01*
X44791476Y-20485428D01*
X44743857Y-20675904D01*
X44696238Y-20771142D01*
X44648619Y-20818761D01*
X44553380Y-20866380D01*
X44458142Y-20866380D01*
X44362904Y-20818761D01*
X44315285Y-20771142D01*
X44267666Y-20675904D01*
X44220047Y-20485428D01*
X44220047Y-20247333D01*
X44267666Y-20056857D01*
X44315285Y-19961619D01*
X44362904Y-19914000D01*
X44458142Y-19866380D01*
X45220047Y-20771142D02*
X45267666Y-20818761D01*
X45220047Y-20866380D01*
X45172428Y-20818761D01*
X45220047Y-20771142D01*
X45220047Y-20866380D01*
X46220047Y-20866380D02*
X45648619Y-20866380D01*
X45934333Y-20866380D02*
X45934333Y-19866380D01*
X45839095Y-20009238D01*
X45743857Y-20104476D01*
X45648619Y-20152095D01*
X47077190Y-20199714D02*
X47077190Y-20866380D01*
X46648619Y-20199714D02*
X46648619Y-20723523D01*
X46696238Y-20818761D01*
X46791476Y-20866380D01*
X46934333Y-20866380D01*
X47029571Y-20818761D01*
X47077190Y-20771142D01*
X47886714Y-20342571D02*
X47553380Y-20342571D01*
X47553380Y-20866380D02*
X47553380Y-19866380D01*
X48029571Y-19866380D01*
D13*
X45843857Y-21986857D02*
X45824809Y-22005904D01*
X45767666Y-22024952D01*
X45729571Y-22024952D01*
X45672428Y-22005904D01*
X45634333Y-21967809D01*
X45615285Y-21929714D01*
X45596238Y-21853523D01*
X45596238Y-21796380D01*
X45615285Y-21720190D01*
X45634333Y-21682095D01*
X45672428Y-21644000D01*
X45729571Y-21624952D01*
X45767666Y-21624952D01*
X45824809Y-21644000D01*
X45843857Y-21663047D01*
X46224809Y-22024952D02*
X45996238Y-22024952D01*
X46110523Y-22024952D02*
X46110523Y-21624952D01*
X46072428Y-21682095D01*
X46034333Y-21720190D01*
X45996238Y-21739238D01*
X46605761Y-22024952D02*
X46377190Y-22024952D01*
X46491476Y-22024952D02*
X46491476Y-21624952D01*
X46453380Y-21682095D01*
X46415285Y-21720190D01*
X46377190Y-21739238D01*
G04 #@! TO.C,J6*
D10*
X42953380Y-23462738D02*
X42286714Y-23462738D01*
X42381952Y-23462738D02*
X42334333Y-23415119D01*
X42286714Y-23319880D01*
X42286714Y-23177023D01*
X42334333Y-23081785D01*
X42429571Y-23034166D01*
X42953380Y-23034166D01*
X42429571Y-23034166D02*
X42334333Y-22986547D01*
X42286714Y-22891309D01*
X42286714Y-22748452D01*
X42334333Y-22653214D01*
X42429571Y-22605595D01*
X42953380Y-22605595D01*
X42953380Y-22129404D02*
X42286714Y-22129404D01*
X41953380Y-22129404D02*
X42001000Y-22177023D01*
X42048619Y-22129404D01*
X42001000Y-22081785D01*
X41953380Y-22129404D01*
X42048619Y-22129404D01*
X42905761Y-21224642D02*
X42953380Y-21319880D01*
X42953380Y-21510357D01*
X42905761Y-21605595D01*
X42858142Y-21653214D01*
X42762904Y-21700833D01*
X42477190Y-21700833D01*
X42381952Y-21653214D01*
X42334333Y-21605595D01*
X42286714Y-21510357D01*
X42286714Y-21319880D01*
X42334333Y-21224642D01*
X42953380Y-20796071D02*
X42286714Y-20796071D01*
X42477190Y-20796071D02*
X42381952Y-20748452D01*
X42334333Y-20700833D01*
X42286714Y-20605595D01*
X42286714Y-20510357D01*
X42953380Y-20034166D02*
X42905761Y-20129404D01*
X42858142Y-20177023D01*
X42762904Y-20224642D01*
X42477190Y-20224642D01*
X42381952Y-20177023D01*
X42334333Y-20129404D01*
X42286714Y-20034166D01*
X42286714Y-19891309D01*
X42334333Y-19796071D01*
X42381952Y-19748452D01*
X42477190Y-19700833D01*
X42762904Y-19700833D01*
X42858142Y-19748452D01*
X42905761Y-19796071D01*
X42953380Y-19891309D01*
X42953380Y-20034166D01*
X42286714Y-19272261D02*
X43286714Y-19272261D01*
X42334333Y-19272261D02*
X42286714Y-19177023D01*
X42286714Y-18986547D01*
X42334333Y-18891309D01*
X42381952Y-18843690D01*
X42477190Y-18796071D01*
X42762904Y-18796071D01*
X42858142Y-18843690D01*
X42905761Y-18891309D01*
X42953380Y-18986547D01*
X42953380Y-19177023D01*
X42905761Y-19272261D01*
X42953380Y-18367500D02*
X41953380Y-18367500D01*
X42953380Y-17938928D02*
X42429571Y-17938928D01*
X42334333Y-17986547D01*
X42286714Y-18081785D01*
X42286714Y-18224642D01*
X42334333Y-18319880D01*
X42381952Y-18367500D01*
X42953380Y-17319880D02*
X42905761Y-17415119D01*
X42858142Y-17462738D01*
X42762904Y-17510357D01*
X42477190Y-17510357D01*
X42381952Y-17462738D01*
X42334333Y-17415119D01*
X42286714Y-17319880D01*
X42286714Y-17177023D01*
X42334333Y-17081785D01*
X42381952Y-17034166D01*
X42477190Y-16986547D01*
X42762904Y-16986547D01*
X42858142Y-17034166D01*
X42905761Y-17081785D01*
X42953380Y-17177023D01*
X42953380Y-17319880D01*
X42286714Y-16557976D02*
X42953380Y-16557976D01*
X42381952Y-16557976D02*
X42334333Y-16510357D01*
X42286714Y-16415119D01*
X42286714Y-16272261D01*
X42334333Y-16177023D01*
X42429571Y-16129404D01*
X42953380Y-16129404D01*
X42905761Y-15272261D02*
X42953380Y-15367500D01*
X42953380Y-15557976D01*
X42905761Y-15653214D01*
X42810523Y-15700833D01*
X42429571Y-15700833D01*
X42334333Y-15653214D01*
X42286714Y-15557976D01*
X42286714Y-15367500D01*
X42334333Y-15272261D01*
X42429571Y-15224642D01*
X42524809Y-15224642D01*
X42620047Y-15700833D01*
X49577666Y-18819880D02*
X49577666Y-19534166D01*
X49530047Y-19677023D01*
X49434809Y-19772261D01*
X49291952Y-19819880D01*
X49196714Y-19819880D01*
X50482428Y-18819880D02*
X50291952Y-18819880D01*
X50196714Y-18867500D01*
X50149095Y-18915119D01*
X50053857Y-19057976D01*
X50006238Y-19248452D01*
X50006238Y-19629404D01*
X50053857Y-19724642D01*
X50101476Y-19772261D01*
X50196714Y-19819880D01*
X50387190Y-19819880D01*
X50482428Y-19772261D01*
X50530047Y-19724642D01*
X50577666Y-19629404D01*
X50577666Y-19391309D01*
X50530047Y-19296071D01*
X50482428Y-19248452D01*
X50387190Y-19200833D01*
X50196714Y-19200833D01*
X50101476Y-19248452D01*
X50053857Y-19296071D01*
X50006238Y-19391309D01*
G04 #@! TD*
M02*
