M48
;DRILL file {KiCad (5.0.0)} date 01/26/19 11:16:23
;FORMAT={-:-/ absolute / inch / decimal}
FMAT,2
INCH,TZ
T1C0.0160
T2C0.0394
T3C0.0472
%
G90
G05
M72
T1
X0.925Y-1.18
X0.965Y-1.2
X0.9675Y-1.0775
X1.025Y-1.01
X1.0712Y-1.4554
X1.0867Y-1.125
X1.1888Y-0.8312
X1.255Y-1.07
X1.305Y-1.125
X1.305Y-1.18
X1.5657Y-1.35
X1.655Y-1.015
X1.74Y-1.27
X1.75Y-1.34
X1.755Y-1.0149
X1.925Y-1.13
X2.03Y-0.905
X2.1274Y-1.45
T2
X1.765Y-0.7625
X1.865Y-0.7625
X1.965Y-0.7625
X2.065Y-0.7625
X2.165Y-0.7625
T3
X1.385Y-1.475
X1.535Y-1.475
X1.685Y-1.475
T0
M30
